SplineFontDB: 3.2
FontName: Nunito-ExtraBoldItalic
FullName: Nunito ExtraBold Italic
FamilyName: Nunito ExtraBold
Weight: Heavy
Copyright: Copyright 2014 The Nunito Project Authors (https://github.com/googlefonts/nunito)
Version: 3.602-ef
ItalicAngle: -9
UnderlinePosition: -94
UnderlineWidth: 28
Ascent: 800
Descent: 200
InvalidEm: 0
sfntRevision: 0x00039a1d
LayerCount: 2
Layer: 0 1 "Back" 1
Layer: 1 1 "Fore" 0
XUID: [1021 965 1680887925 15271245]
StyleMap: 0x0001
FSType: 0
OS2Version: 4
OS2_WeightWidthSlopeOnly: 0
OS2_UseTypoMetrics: 1
CreationTime: 1592915285
ModificationTime: 1719074998
PfmFamily: 81
TTFWeight: 800
TTFWidth: 5
LineGap: 0
VLineGap: 0
Panose: 0 0 0 0 0 0 0 0 0 0
OS2TypoAscent: 1011
OS2TypoAOffset: 0
OS2TypoDescent: -353
OS2TypoDOffset: 0
OS2TypoLinegap: 0
OS2WinAscent: 1077
OS2WinAOffset: 0
OS2WinDescent: 300
OS2WinDOffset: 0
HheadAscent: 1011
HheadAOffset: 0
HheadDescent: -353
HheadDOffset: 0
OS2SubXSize: 650
OS2SubYSize: 600
OS2SubXOff: 0
OS2SubYOff: 75
OS2SupXSize: 650
OS2SupYSize: 600
OS2SupXOff: 0
OS2SupYOff: 350
OS2StrikeYSize: 28
OS2StrikeYPos: 290
OS2CapHeight: 705
OS2XHeight: 484
OS2Vendor: 'NONE'
OS2CodePages: 20000197.00000000
OS2UnicodeRanges: a00002ff.5000204b.00000000.00000000
Lookup: 1 0 0 "'aalt' Access All Alternates lookup 0" { "'aalt' Access All Alternates lookup 0 subtable"  } ['aalt' ('DFLT' <'dflt' > 'cyrl' <'BSH ' 'CHU ' 'dflt' > 'latn' <'AZE ' 'CAT ' 'CRT ' 'KAZ ' 'MOL ' 'NLD ' 'ROM ' 'TAT ' 'TRK ' 'dflt' > ) ]
Lookup: 3 0 0 "'aalt' Access All Alternates lookup 1" { "'aalt' Access All Alternates lookup 1 subtable"  } ['aalt' ('DFLT' <'dflt' > 'cyrl' <'BSH ' 'CHU ' 'dflt' > 'latn' <'AZE ' 'CAT ' 'CRT ' 'KAZ ' 'MOL ' 'NLD ' 'ROM ' 'TAT ' 'TRK ' 'dflt' > ) ]

StartChar: .notdef
Encoding: 65536 -1 0
Width: 500
GlyphClass: 1
Flags: W
LayerCount: 2
Fore
SplineSet
50 -180 m 1,0,-1
 50 705 l 1,1,-1
 450 705 l 1,2,-1
 450 -180 l 1,3,-1
 50 -180 l 1,0,-1
100 -130 m 1,4,-1
 400 -130 l 1,5,-1
 400 655 l 1,6,-1
 100 655 l 1,7,-1
 100 -130 l 1,4,-1
EndSplineSet
EndChar

StartChar: A
Encoding: 65 65 1
Width: 753
GlyphClass: 2
Flags: W
AnchorPoint: "Anchor-3" 673 0 basechar 0
AnchorPoint: "Anchor-2" 358 0 basechar 0
AnchorPoint: "Anchor-0" 448 705 basechar 0
LayerCount: 2
Fore
SplineSet
59 -9 m 256,0,1
 32 -9 32 -9 13.5 3.5 c 128,-1,2
 -5 16 -5 16 -8.5 36.5 c 128,-1,3
 -12 57 -12 57 3 82 c 2,4,-1
 361 661 l 2,5,6
 378 689 378 689 398 701.5 c 128,-1,7
 418 714 418 714 449 714 c 256,8,9
 480 714 480 714 500.5 698 c 128,-1,10
 521 682 521 682 530 650 c 2,11,-1
 699 85 l 2,12,13
 708 54 708 54 702 33.5 c 128,-1,14
 696 13 696 13 679 2 c 128,-1,15
 662 -9 662 -9 638 -9 c 0,16,17
 604 -9 604 -9 586.5 7.5 c 128,-1,18
 569 24 569 24 560 59 c 2,19,-1
 527 185 l 1,20,-1
 572 153 l 1,21,-1
 166 153 l 1,22,-1
 221 182 l 1,23,-1
 136 36 l 2,24,25
 123 14 123 14 104.5 2.5 c 128,-1,26
 86 -9 86 -9 59 -9 c 256,0,1
431 540 m 1,27,-1
 259 246 l 1,28,-1
 237 274 l 1,29,-1
 541 274 l 1,30,-1
 511 243 l 1,31,-1
 433 540 l 1,32,-1
 431 540 l 1,27,-1
EndSplineSet
Substitution2: "Single Substitution lookup 29 subtable" ordfeminine
Substitution2: "'aalt' Access All Alternates lookup 0 subtable" ordfeminine
EndChar

StartChar: Aogonek
Encoding: 260 260 24
Width: 753
GlyphClass: 1
Flags: W
LayerCount: 2
Fore
SplineSet
634 -197 m 0,0,1
 576 -197 576 -197 547.5 -170 c 128,-1,2
 519 -143 519 -143 519 -101 c 0,3,4
 519 -64 519 -64 536.5 -33.5 c 128,-1,5
 554 -3 554 -3 588 20 c 1,6,-1
 585 10 l 1,7,8
 577 18 577 18 570.5 30 c 128,-1,9
 564 42 564 42 560 59 c 2,10,-1
 527 185 l 1,11,-1
 572 153 l 1,12,-1
 166 153 l 1,13,-1
 221 182 l 1,14,-1
 136 36 l 2,15,16
 123 14 123 14 104.5 2.5 c 128,-1,17
 86 -9 86 -9 59 -9 c 256,18,19
 32 -9 32 -9 13.5 3.5 c 128,-1,20
 -5 16 -5 16 -8.5 36.5 c 128,-1,21
 -12 57 -12 57 3 82 c 2,22,-1
 361 661 l 2,23,24
 378 689 378 689 398 701.5 c 128,-1,25
 418 714 418 714 449 714 c 256,26,27
 480 714 480 714 500.5 698 c 128,-1,28
 521 682 521 682 530 650 c 2,29,-1
 699 85 l 2,30,31
 709 50 709 50 700 28 c 128,-1,32
 691 6 691 6 669 -3 c 0,33,34
 651 -11 651 -11 637.5 -21.5 c 128,-1,35
 624 -32 624 -32 617 -45.5 c 128,-1,36
 610 -59 610 -59 610 -75 c 0,37,38
 610 -95 610 -95 624 -107.5 c 128,-1,39
 638 -120 638 -120 660 -120 c 0,40,41
 667 -120 667 -120 674.5 -119 c 128,-1,42
 682 -118 682 -118 693 -115 c 0,43,44
 711 -110 711 -110 720.5 -118.5 c 128,-1,45
 730 -127 730 -127 731.5 -141 c 128,-1,46
 733 -155 733 -155 726.5 -167.5 c 128,-1,47
 720 -180 720 -180 706 -186 c 0,48,49
 690 -191 690 -191 672 -194 c 128,-1,50
 654 -197 654 -197 634 -197 c 0,0,1
431 540 m 1,51,-1
 259 246 l 1,52,-1
 237 274 l 1,53,-1
 541 274 l 1,54,-1
 511 243 l 1,55,-1
 433 540 l 1,56,-1
 431 540 l 1,51,-1
EndSplineSet
EndChar

StartChar: AE
Encoding: 198 198 28
Width: 1000
GlyphClass: 2
Flags: W
AnchorPoint: "Anchor-2" 449 0 basechar 0
AnchorPoint: "Anchor-0" 549 705 basechar 0
LayerCount: 2
Fore
SplineSet
29 -9 m 0,0,1
 -3 -9 -3 -9 -19 6.5 c 128,-1,2
 -35 22 -35 22 -35 44 c 128,-1,3
 -35 66 -35 66 -19 85 c 2,4,-1
 437 666 l 2,5,6
 454 687 454 687 473.5 696 c 128,-1,7
 493 705 493 705 519 705 c 2,8,-1
 956 705 l 2,9,10
 987 705 987 705 1004 692.5 c 128,-1,11
 1021 680 1021 680 1021 656 c 0,12,13
 1021 622 1021 622 1001.5 603 c 128,-1,14
 982 584 982 584 948 584 c 2,15,-1
 569 584 l 1,16,-1
 615 620 l 1,17,-1
 631 376 l 1,18,-1
 583 419 l 1,19,-1
 889 419 l 2,20,21
 920 419 920 419 936.5 406 c 128,-1,22
 953 393 953 393 953 370 c 0,23,24
 953 336 953 336 933.5 316.5 c 128,-1,25
 914 297 914 297 881 297 c 2,26,-1
 591 297 l 1,27,-1
 632 340 l 1,28,-1
 648 79 l 1,29,-1
 600 121 l 1,30,-1
 864 121 l 2,31,32
 896 121 896 121 912.5 108.5 c 128,-1,33
 929 96 929 96 929 72 c 0,34,35
 929 39 929 39 910 19.5 c 128,-1,36
 891 0 891 0 856 0 c 2,37,-1
 584 0 l 2,38,39
 518 0 518 0 514 65 c 2,40,-1
 507 199 l 1,41,-1
 549 153 l 1,42,-1
 165 153 l 1,43,-1
 228 194 l 1,44,-1
 105 30 l 2,45,46
 90 10 90 10 72 0.5 c 128,-1,47
 54 -9 54 -9 29 -9 c 0,0,1
485 535 m 1,48,-1
 260 237 l 1,49,-1
 257 274 l 1,50,-1
 541 274 l 1,51,-1
 505 232 l 1,52,-1
 487 535 l 1,53,-1
 485 535 l 1,48,-1
EndSplineSet
EndChar

StartChar: B
Encoding: 66 66 30
Width: 695
GlyphClass: 2
Flags: W
AnchorPoint: "Anchor-2" 310 0 basechar 0
AnchorPoint: "Anchor-0" 421 705 basechar 0
LayerCount: 2
Fore
SplineSet
120 0 m 2,0,1
 79 0 79 0 59.5 23 c 128,-1,2
 40 46 40 46 46 87 c 2,3,-1
 132 630 l 2,4,5
 138 667 138 667 160 686 c 128,-1,6
 182 705 182 705 219 705 c 2,7,-1
 447 705 l 2,8,9
 528 705 528 705 578 683 c 128,-1,10
 628 661 628 661 651 623 c 128,-1,11
 674 585 674 585 674 537 c 0,12,13
 674 462 674 462 626.5 414 c 128,-1,14
 579 366 579 366 502 353 c 1,15,-1
 502 369 l 1,16,17
 567 357 567 357 604 314.5 c 128,-1,18
 641 272 641 272 641 211 c 0,19,20
 641 108 641 108 571 54 c 128,-1,21
 501 0 501 0 380 0 c 2,22,-1
 120 0 l 2,0,1
199 115 m 1,23,-1
 371 115 l 2,24,25
 432 115 432 115 462 142.5 c 128,-1,26
 492 170 492 170 492 220 c 0,27,28
 492 260 492 260 465 280 c 128,-1,29
 438 300 438 300 388 300 c 2,30,-1
 228 300 l 1,31,-1
 199 115 l 1,23,-1
247 415 m 1,32,-1
 400 415 l 2,33,34
 460 415 460 415 492.5 441 c 128,-1,35
 525 467 525 467 525 517 c 0,36,37
 525 552 525 552 500 571 c 128,-1,38
 475 590 475 590 422 590 c 2,39,-1
 274 590 l 1,40,-1
 247 415 l 1,32,-1
EndSplineSet
EndChar

StartChar: uni0181
Encoding: 385 385 31
Width: 860
GlyphClass: 1
Flags: W
LayerCount: 2
Fore
SplineSet
286 0 m 2,0,1
 245 0 245 0 225 23 c 128,-1,2
 205 46 205 46 211 87 c 2,3,-1
 292 597 l 1,4,-1
 269 597 l 2,5,6
 224 597 224 597 200.5 576 c 128,-1,7
 177 555 177 555 168 507 c 2,8,-1
 164 487 l 2,9,10
 162 476 162 476 154.5 467.5 c 128,-1,11
 147 459 147 459 134 454 c 128,-1,12
 121 449 121 449 102 449 c 0,13,14
 79 449 79 449 65 457 c 128,-1,15
 51 465 51 465 46 479.5 c 128,-1,16
 41 494 41 494 43 512 c 2,17,-1
 46 532 l 2,18,19
 60 620 60 620 116 662.5 c 128,-1,20
 172 705 172 705 281 705 c 2,21,-1
 613 705 l 2,22,23
 693 705 693 705 743 683 c 128,-1,24
 793 661 793 661 816 623 c 128,-1,25
 839 585 839 585 839 537 c 0,26,27
 839 462 839 462 791.5 414 c 128,-1,28
 744 366 744 366 667 353 c 1,29,-1
 667 369 l 1,30,31
 733 357 733 357 769.5 314.5 c 128,-1,32
 806 272 806 272 806 211 c 0,33,34
 806 108 806 108 736 54 c 128,-1,35
 666 0 666 0 545 0 c 2,36,-1
 286 0 l 2,0,1
364 115 m 1,37,-1
 537 115 l 2,38,39
 597 115 597 115 627 142.5 c 128,-1,40
 657 170 657 170 657 220 c 0,41,42
 657 260 657 260 630.5 280 c 128,-1,43
 604 300 604 300 553 300 c 2,44,-1
 394 300 l 1,45,-1
 364 115 l 1,37,-1
412 415 m 1,46,-1
 565 415 l 2,47,48
 626 415 626 415 658 441 c 128,-1,49
 690 467 690 467 690 517 c 0,50,51
 690 552 690 552 665.5 571 c 128,-1,52
 641 590 641 590 587 590 c 2,53,-1
 440 590 l 1,54,-1
 412 415 l 1,46,-1
EndSplineSet
EndChar

StartChar: C
Encoding: 67 67 32
Width: 684
GlyphClass: 2
Flags: W
AnchorPoint: "Anchor-2" 373 0 basechar 0
AnchorPoint: "Anchor-0" 445 705 basechar 0
LayerCount: 2
Fore
SplineSet
399 -11 m 0,0,1
 303 -11 303 -11 228 25.5 c 128,-1,2
 153 62 153 62 110 133.5 c 128,-1,3
 67 205 67 205 67 312 c 0,4,5
 67 397 67 397 93 470.5 c 128,-1,6
 119 544 119 544 168.5 599 c 128,-1,7
 218 654 218 654 290.5 685 c 128,-1,8
 363 716 363 716 456 716 c 0,9,10
 508 716 508 716 559 703 c 128,-1,11
 610 690 610 690 651 664 c 0,12,13
 673 651 673 651 679.5 631 c 128,-1,14
 686 611 686 611 681.5 590.5 c 128,-1,15
 677 570 677 570 664 554 c 128,-1,16
 651 538 651 538 632.5 533 c 128,-1,17
 614 528 614 528 593 539 c 0,18,19
 554 562 554 562 520.5 570.5 c 128,-1,20
 487 579 487 579 452 579 c 0,21,22
 380 579 380 579 331 544.5 c 128,-1,23
 282 510 282 510 257 450.5 c 128,-1,24
 232 391 232 391 232 317 c 0,25,26
 232 251 232 251 252 208.5 c 128,-1,27
 272 166 272 166 313 146 c 128,-1,28
 354 126 354 126 416 126 c 0,29,30
 447 126 447 126 478 133.5 c 128,-1,31
 509 141 509 141 541 158 c 0,32,33
 565 170 565 170 584.5 165.5 c 128,-1,34
 604 161 604 161 616 145.5 c 128,-1,35
 628 130 628 130 631 110 c 128,-1,36
 634 90 634 90 625 71 c 128,-1,37
 616 52 616 52 593 39 c 0,38,39
 551 14 551 14 498 1.5 c 128,-1,40
 445 -11 445 -11 399 -11 c 0,0,1
EndSplineSet
EndChar

StartChar: D
Encoding: 68 68 39
Width: 774
GlyphClass: 2
Flags: W
AnchorPoint: "Anchor-5" 217 358 basechar 0
AnchorPoint: "Anchor-2" 351 0 basechar 0
AnchorPoint: "Anchor-0" 448 705 basechar 0
LayerCount: 2
Fore
SplineSet
120 0 m 2,0,1
 79 0 79 0 59 23 c 128,-1,2
 39 46 39 46 46 87 c 2,3,-1
 132 630 l 2,4,5
 138 667 138 667 160 686 c 128,-1,6
 182 705 182 705 219 705 c 2,7,-1
 382 705 l 2,8,9
 554 705 554 705 648 624.5 c 128,-1,10
 742 544 742 544 742 400 c 0,11,12
 742 315 742 315 716.5 242 c 128,-1,13
 691 169 691 169 640 115 c 128,-1,14
 589 61 589 61 513 30.5 c 128,-1,15
 437 0 437 0 336 0 c 2,16,-1
 120 0 l 2,0,1
207 127 m 1,17,-1
 338 127 l 2,18,19
 400 127 400 127 446 147 c 128,-1,20
 492 167 492 167 521.5 203 c 128,-1,21
 551 239 551 239 565.5 288.5 c 128,-1,22
 580 338 580 338 580 398 c 0,23,24
 580 485 580 485 530.5 531.5 c 128,-1,25
 481 578 481 578 382 578 c 2,26,-1
 279 578 l 1,27,-1
 207 127 l 1,17,-1
EndSplineSet
EndChar

StartChar: uni018A
Encoding: 394 394 45
Width: 940
GlyphClass: 1
Flags: W
LayerCount: 2
Fore
SplineSet
286 0 m 2,0,1
 245 0 245 0 225 23 c 128,-1,2
 205 46 205 46 211 87 c 2,3,-1
 292 597 l 1,4,-1
 269 597 l 2,5,6
 226 597 226 597 200.5 576 c 128,-1,7
 175 555 175 555 168 507 c 2,8,-1
 164 487 l 2,9,10
 163 476 163 476 155 467.5 c 128,-1,11
 147 459 147 459 134 454 c 128,-1,12
 121 449 121 449 102 449 c 0,13,14
 79 449 79 449 65 457 c 128,-1,15
 51 465 51 465 45.5 479.5 c 128,-1,16
 40 494 40 494 43 512 c 2,17,-1
 46 532 l 2,18,19
 61 619 61 619 117 662 c 128,-1,20
 173 705 173 705 281 705 c 2,21,-1
 547 705 l 2,22,23
 720 705 720 705 814 624.5 c 128,-1,24
 908 544 908 544 908 400 c 0,25,26
 908 315 908 315 882 242 c 128,-1,27
 856 169 856 169 805 115 c 128,-1,28
 754 61 754 61 678 30.5 c 128,-1,29
 602 0 602 0 501 0 c 2,30,-1
 286 0 l 2,0,1
372 127 m 1,31,-1
 503 127 l 2,32,33
 565 127 565 127 611 147 c 128,-1,34
 657 167 657 167 687 203 c 128,-1,35
 717 239 717 239 731.5 288.5 c 128,-1,36
 746 338 746 338 746 398 c 0,37,38
 746 485 746 485 696 531.5 c 128,-1,39
 646 578 646 578 547 578 c 2,40,-1
 444 578 l 1,41,-1
 372 127 l 1,31,-1
EndSplineSet
EndChar

StartChar: E
Encoding: 69 69 48
Width: 605
GlyphClass: 2
Flags: W
AnchorPoint: "Anchor-3" 458 0 basechar 0
AnchorPoint: "Anchor-2" 297 0 basechar 0
AnchorPoint: "Anchor-0" 402 705 basechar 0
LayerCount: 2
Fore
SplineSet
121 0 m 2,0,1
 78 0 78 0 59 22.5 c 128,-1,2
 40 45 40 45 46 87 c 2,3,-1
 132 630 l 2,4,5
 138 667 138 667 160 686 c 128,-1,6
 182 705 182 705 219 705 c 2,7,-1
 563 705 l 2,8,9
 594 705 594 705 610.5 692.5 c 128,-1,10
 627 680 627 680 627 656 c 0,11,12
 627 622 627 622 607.5 603 c 128,-1,13
 588 584 588 584 555 584 c 2,14,-1
 273 584 l 1,15,-1
 247 419 l 1,16,-1
 496 419 l 2,17,18
 527 419 527 419 543 406 c 128,-1,19
 559 393 559 393 559 370 c 0,20,21
 559 336 559 336 539.5 316.5 c 128,-1,22
 520 297 520 297 488 297 c 2,23,-1
 228 297 l 1,24,-1
 200 121 l 1,25,-1
 470 121 l 2,26,27
 501 121 501 121 517.5 108.5 c 128,-1,28
 534 96 534 96 534 72 c 0,29,30
 534 38 534 38 514.5 19 c 128,-1,31
 495 0 495 0 462 0 c 2,32,-1
 121 0 l 2,0,1
EndSplineSet
EndChar

StartChar: uni018F
Encoding: 399 399 72
Width: 796
GlyphClass: 2
Flags: W
AnchorPoint: "Anchor-2" 361 0 basechar 0
AnchorPoint: "Anchor-0" 473 705 basechar 0
LayerCount: 2
Fore
SplineSet
383 -11 m 0,0,1
 299 -11 299 -11 234.5 18.5 c 128,-1,2
 170 48 170 48 129 100.5 c 128,-1,3
 88 153 88 153 73 224 c 128,-1,4
 58 295 58 295 71 378 c 0,5,6
 74 397 74 397 87.5 405.5 c 128,-1,7
 101 414 101 414 127 414 c 2,8,-1
 651 414 l 1,9,-1
 633 292 l 1,10,-1
 176 292 l 1,11,-1
 225 353 l 1,12,13
 214 279 214 279 229 225.5 c 128,-1,14
 244 172 244 172 284 143.5 c 128,-1,15
 324 115 324 115 390 115 c 0,16,17
 464 115 464 115 510.5 154 c 128,-1,18
 557 193 557 193 579.5 258 c 128,-1,19
 602 323 602 323 602 401 c 0,20,21
 602 459 602 459 578 500 c 128,-1,22
 554 541 554 541 509 562.5 c 128,-1,23
 464 584 464 584 399 584 c 0,24,25
 352 584 352 584 306 574.5 c 128,-1,26
 260 565 260 565 218 545 c 0,27,28
 192 534 192 534 171.5 539 c 128,-1,29
 151 544 151 544 138.5 559 c 128,-1,30
 126 574 126 574 124 594 c 128,-1,31
 122 614 122 614 131.5 632.5 c 128,-1,32
 141 651 141 651 164 662 c 0,33,34
 222 690 222 690 287 703 c 128,-1,35
 352 716 352 716 422 716 c 0,36,37
 524 716 524 716 600.5 676.5 c 128,-1,38
 677 637 677 637 720 565 c 128,-1,39
 763 493 763 493 763 395 c 0,40,41
 763 315 763 315 740.5 242.5 c 128,-1,42
 718 170 718 170 671 113 c 128,-1,43
 624 56 624 56 552.5 22.5 c 128,-1,44
 481 -11 481 -11 383 -11 c 0,0,1
EndSplineSet
EndChar

StartChar: F
Encoding: 70 70 73
Width: 570
GlyphClass: 2
Flags: W
AnchorPoint: "Anchor-2" 263 0 basechar 0
AnchorPoint: "Anchor-0" 378 705 basechar 0
LayerCount: 2
Fore
SplineSet
115 -9 m 0,0,1
 75 -9 75 -9 57 14.5 c 128,-1,2
 39 38 39 38 45 79 c 2,3,-1
 132 630 l 2,4,5
 138 667 138 667 160 686 c 128,-1,6
 182 705 182 705 219 705 c 2,7,-1
 554 705 l 2,8,9
 585 705 585 705 601.5 692.5 c 128,-1,10
 618 680 618 680 618 656 c 0,11,12
 618 623 618 623 599.5 603.5 c 128,-1,13
 581 584 581 584 546 584 c 2,14,-1
 281 584 l 1,15,-1
 253 412 l 1,16,-1
 486 412 l 2,17,18
 517 412 517 412 533.5 399.5 c 128,-1,19
 550 387 550 387 550 363 c 0,20,21
 550 331 550 331 531 311 c 128,-1,22
 512 291 512 291 478 291 c 2,23,-1
 234 291 l 1,24,-1
 199 67 l 2,25,26
 187 -9 187 -9 115 -9 c 0,0,1
EndSplineSet
EndChar

StartChar: G
Encoding: 71 71 74
Width: 742
GlyphClass: 2
Flags: W
AnchorPoint: "Anchor-2" 395 0 basechar 0
AnchorPoint: "Anchor-0" 451 705 basechar 0
LayerCount: 2
Fore
SplineSet
402 -11 m 0,0,1
 304 -11 304 -11 228 25.5 c 128,-1,2
 152 62 152 62 109.5 133.5 c 128,-1,3
 67 205 67 205 67 307 c 0,4,5
 67 395 67 395 93 469.5 c 128,-1,6
 119 544 119 544 171 599 c 128,-1,7
 223 654 223 654 297 685 c 128,-1,8
 371 716 371 716 468 716 c 0,9,10
 524 716 524 716 575 703.5 c 128,-1,11
 626 691 626 691 663 670 c 0,12,13
 688 657 688 657 697 636.5 c 128,-1,14
 706 616 706 616 702 595 c 128,-1,15
 698 574 698 574 684.5 558 c 128,-1,16
 671 542 671 542 651 537 c 128,-1,17
 631 532 631 532 606 544 c 0,18,19
 573 564 573 564 536 572.5 c 128,-1,20
 499 581 499 581 460 581 c 0,21,22
 386 581 386 581 334 545 c 128,-1,23
 282 509 282 509 255 448.5 c 128,-1,24
 228 388 228 388 228 314 c 0,25,26
 228 215 228 215 280 168 c 128,-1,27
 332 121 332 121 425 121 c 0,28,29
 460 121 460 121 494 127.5 c 128,-1,30
 528 134 528 134 562 145 c 1,31,-1
 525 85 l 1,32,-1
 556 277 l 1,33,-1
 468 277 l 2,34,35
 438 277 438 277 421 290 c 128,-1,36
 404 303 404 303 404 325 c 0,37,38
 404 356 404 356 423 372.5 c 128,-1,39
 442 389 442 389 475 389 c 2,40,-1
 629 389 l 2,41,42
 663 389 663 389 679.5 370 c 128,-1,43
 696 351 696 351 690 317 c 2,44,-1
 654 89 l 2,45,46
 650 62 650 62 636.5 44.5 c 128,-1,47
 623 27 623 27 596 18 c 0,48,49
 553 4 553 4 502 -3.5 c 128,-1,50
 451 -11 451 -11 402 -11 c 0,0,1
EndSplineSet
EndChar

StartChar: H
Encoding: 72 72 81
Width: 780
GlyphClass: 2
Flags: W
AnchorPoint: "Anchor-5" 441 565 basechar 0
AnchorPoint: "Anchor-2" 357 0 basechar 0
AnchorPoint: "Anchor-0" 461 705 basechar 0
LayerCount: 2
Fore
SplineSet
111 -9 m 0,0,1
 71 -9 71 -9 54.5 15.5 c 128,-1,2
 38 40 38 40 45 83 c 2,3,-1
 133 636 l 2,4,5
 138 675 138 675 160 694.5 c 128,-1,6
 182 714 182 714 221 714 c 256,7,8
 260 714 260 714 276.5 689.5 c 128,-1,9
 293 665 293 665 286 622 c 2,10,-1
 254 422 l 1,11,-1
 581 422 l 1,12,-1
 616 636 l 2,13,14
 622 675 622 675 643 694.5 c 128,-1,15
 664 714 664 714 703 714 c 256,16,17
 742 714 742 714 759 690 c 128,-1,18
 776 666 776 666 768 622 c 2,19,-1
 681 70 l 2,20,21
 675 31 675 31 653.5 11 c 128,-1,22
 632 -9 632 -9 593 -9 c 0,23,24
 553 -9 553 -9 537 15.5 c 128,-1,25
 521 40 521 40 528 83 c 2,26,-1
 561 293 l 1,27,-1
 233 293 l 1,28,-1
 198 70 l 2,29,30
 192 31 192 31 170.5 11 c 128,-1,31
 149 -9 149 -9 111 -9 c 0,0,1
EndSplineSet
EndChar

StartChar: Hbar
Encoding: 294 294 82
Width: 829
GlyphClass: 1
Flags: W
LayerCount: 2
Fore
SplineSet
136 -9 m 0,0,1
 99 -9 99 -9 80.5 15.5 c 128,-1,2
 62 40 62 40 70 83 c 2,3,-1
 142 539 l 1,4,-1
 167 506 l 1,5,-1
 114 506 l 2,6,7
 54 506 54 506 54 551 c 0,8,9
 54 582 54 582 72 600 c 128,-1,10
 90 618 90 618 121 618 c 2,11,-1
 186 618 l 1,12,-1
 148 581 l 1,13,-1
 157 636 l 2,14,15
 163 675 163 675 185 694.5 c 128,-1,16
 207 714 207 714 245 714 c 0,17,18
 282 714 282 714 300 691 c 128,-1,19
 318 668 318 668 311 626 c 2,20,-1
 301 569 l 1,21,-1
 276 618 l 1,22,-1
 669 618 l 1,23,-1
 630 578 l 1,24,-1
 639 637 l 2,25,26
 645 676 645 676 667.5 695 c 128,-1,27
 690 714 690 714 728 714 c 0,28,29
 765 714 765 714 782.5 691 c 128,-1,30
 800 668 800 668 793 626 c 2,31,-1
 784 570 l 1,32,-1
 761 618 l 1,33,-1
 814 618 l 2,34,35
 874 618 874 618 874 573 c 0,36,37
 874 542 874 542 855.5 524 c 128,-1,38
 837 506 837 506 806 506 c 2,39,-1
 743 506 l 1,40,-1
 779 541 l 1,41,-1
 705 70 l 2,42,43
 699 31 699 31 677.5 11 c 128,-1,44
 656 -9 656 -9 618 -9 c 0,45,46
 581 -9 581 -9 563 15.5 c 128,-1,47
 545 40 545 40 552 83 c 2,48,-1
 583 280 l 1,49,-1
 256 280 l 1,50,-1
 223 70 l 2,51,52
 217 31 217 31 196 11 c 128,-1,53
 175 -9 175 -9 136 -9 c 0,0,1
277 409 m 1,54,-1
 604 409 l 1,55,-1
 619 506 l 1,56,-1
 292 506 l 1,57,-1
 277 409 l 1,54,-1
EndSplineSet
EndChar

StartChar: I
Encoding: 73 73 86
Width: 297
GlyphClass: 2
Flags: W
AnchorPoint: "Anchor-3" 150 0 basechar 0
AnchorPoint: "Anchor-2" 109 0 basechar 0
AnchorPoint: "Anchor-0" 221 705 basechar 0
LayerCount: 2
Fore
SplineSet
112 -9 m 0,0,1
 72 -9 72 -9 55 15.5 c 128,-1,2
 38 40 38 40 45 83 c 2,3,-1
 133 636 l 2,4,5
 139 675 139 675 161 694.5 c 128,-1,6
 183 714 183 714 221 714 c 0,7,8
 260 714 260 714 276.5 690 c 128,-1,9
 293 666 293 666 286 622 c 2,10,-1
 198 70 l 2,11,12
 192 31 192 31 171 11 c 128,-1,13
 150 -9 150 -9 112 -9 c 0,0,1
EndSplineSet
EndChar

StartChar: Iogonek
Encoding: 302 302 100
Width: 297
GlyphClass: 1
Flags: W
LayerCount: 2
Fore
SplineSet
111 -197 m 0,0,1
 53 -197 53 -197 24 -170 c 128,-1,2
 -5 -143 -5 -143 -5 -101 c 0,3,4
 -5 -64 -5 -64 12.5 -34 c 128,-1,5
 30 -4 30 -4 62 19 c 1,6,-1
 65 4 l 1,7,8
 51 15 51 15 45.5 35.5 c 128,-1,9
 40 56 40 56 45 83 c 2,10,-1
 133 636 l 2,11,12
 139 675 139 675 161 694.5 c 128,-1,13
 183 714 183 714 221 714 c 0,14,15
 260 714 260 714 276.5 690 c 128,-1,16
 293 666 293 666 286 622 c 2,17,-1
 198 70 l 2,18,19
 194 41 194 41 181.5 23 c 128,-1,20
 169 5 169 5 147 -3 c 0,21,22
 117 -14 117 -14 102 -33 c 128,-1,23
 87 -52 87 -52 87 -75 c 0,24,25
 87 -95 87 -95 101 -107.5 c 128,-1,26
 115 -120 115 -120 137 -120 c 0,27,28
 144 -120 144 -120 151.5 -119 c 128,-1,29
 159 -118 159 -118 169 -115 c 0,30,31
 188 -110 188 -110 197.5 -118.5 c 128,-1,32
 207 -127 207 -127 208.5 -141 c 128,-1,33
 210 -155 210 -155 203.5 -167.5 c 128,-1,34
 197 -180 197 -180 182 -186 c 0,35,36
 167 -191 167 -191 147.5 -194 c 128,-1,37
 128 -197 128 -197 111 -197 c 0,0,1
EndSplineSet
EndChar

StartChar: J
Encoding: 74 74 102
Width: 372
GlyphClass: 2
Flags: W
AnchorPoint: "Anchor-2" 185 0 basechar 0
AnchorPoint: "Anchor-0" 296 705 basechar 0
LayerCount: 2
Fore
SplineSet
26 -7 m 2,0,1
 -7 -9 -7 -9 -25.5 7.5 c 128,-1,2
 -44 24 -44 24 -43 53 c 0,3,4
 -42 84 -42 84 -28 100.5 c 128,-1,5
 -14 117 -14 117 15 118 c 2,6,-1
 45 120 l 2,7,8
 88 123 88 123 111 145 c 128,-1,9
 134 167 134 167 141 213 c 2,10,-1
 209 642 l 2,11,12
 215 679 215 679 235.5 696.5 c 128,-1,13
 256 714 256 714 292 714 c 0,14,15
 331 714 331 714 349.5 691.5 c 128,-1,16
 368 669 368 669 362 630 c 2,17,-1
 294 202 l 2,18,19
 284 137 284 137 258 93 c 128,-1,20
 232 49 232 49 183.5 24.5 c 128,-1,21
 135 0 135 0 56 -5 c 2,22,-1
 26 -7 l 2,0,1
EndSplineSet
EndChar

StartChar: K
Encoding: 75 75 104
Width: 687
GlyphClass: 2
Flags: W
AnchorPoint: "Anchor-2" 308 0 basechar 0
AnchorPoint: "Anchor-0" 413 705 basechar 0
LayerCount: 2
Fore
SplineSet
111 -9 m 256,0,1
 73 -9 73 -9 55 15 c 128,-1,2
 37 39 37 39 44 82 c 2,3,-1
 133 637 l 2,4,5
 139 676 139 676 161 695 c 128,-1,6
 183 714 183 714 221 714 c 0,7,8
 258 714 258 714 275 690 c 128,-1,9
 292 666 292 666 286 624 c 2,10,-1
 250 398 l 1,11,-1
 252 398 l 1,12,-1
 556 677 l 2,13,14
 575 695 575 695 591.5 704.5 c 128,-1,15
 608 714 608 714 633 714 c 0,16,17
 663 714 663 714 680.5 696 c 128,-1,18
 698 678 698 678 697.5 653 c 128,-1,19
 697 628 697 628 674 606 c 2,20,-1
 372 332 l 1,21,-1
 365 400 l 1,22,-1
 610 94 l 2,23,24
 628 72 628 72 625.5 48 c 128,-1,25
 623 24 623 24 605 7.5 c 128,-1,26
 587 -9 587 -9 557 -9 c 0,27,28
 529 -9 529 -9 512 3 c 128,-1,29
 495 15 495 15 472 43 c 2,30,-1
 241 326 l 1,31,-1
 239 326 l 1,32,-1
 198 66 l 2,33,34
 192 29 192 29 170.5 10 c 128,-1,35
 149 -9 149 -9 111 -9 c 256,0,1
EndSplineSet
EndChar

StartChar: L
Encoding: 76 76 106
Width: 573
GlyphClass: 2
Flags: W
AnchorPoint: "Anchor-5" 216 387 basechar 0
AnchorPoint: "Anchor-2" 275 0 basechar 0
AnchorPoint: "Anchor-1" 401 705 basechar 0
AnchorPoint: "Anchor-0" 220 705 basechar 0
LayerCount: 2
Fore
SplineSet
118 0 m 2,0,1
 77 0 77 0 58 22.5 c 128,-1,2
 39 45 39 45 45 85 c 2,3,-1
 134 642 l 2,4,5
 140 678 140 678 161 696 c 128,-1,6
 182 714 182 714 218 714 c 0,7,8
 257 714 257 714 275 691.5 c 128,-1,9
 293 669 293 669 287 629 c 2,10,-1
 208 131 l 1,11,-1
 463 131 l 2,12,13
 497 131 497 131 515 117 c 128,-1,14
 533 103 533 103 533 78 c 0,15,16
 533 41 533 41 512 20.5 c 128,-1,17
 491 0 491 0 455 0 c 2,18,-1
 118 0 l 2,0,1
EndSplineSet
EndChar

StartChar: M
Encoding: 77 77 116
Width: 877
GlyphClass: 2
Flags: W
AnchorPoint: "Anchor-2" 407 0 basechar 0
AnchorPoint: "Anchor-0" 511 705 basechar 0
LayerCount: 2
Fore
SplineSet
108 -7 m 0,0,1
 70 -7 70 -7 55 13.5 c 128,-1,2
 40 34 40 34 45 70 c 2,3,-1
 137 648 l 2,4,5
 142 681 142 681 161.5 697.5 c 128,-1,6
 181 714 181 714 213 714 c 0,7,8
 242 714 242 714 258.5 701.5 c 128,-1,9
 275 689 275 689 287 658 c 2,10,-1
 447 241 l 1,11,-1
 417 241 l 1,12,-1
 718 669 l 2,13,14
 735 693 735 693 754 703.5 c 128,-1,15
 773 714 773 714 802 714 c 0,16,17
 838 714 838 714 854.5 693.5 c 128,-1,18
 871 673 871 673 865 637 c 2,19,-1
 774 59 l 2,20,21
 769 27 769 27 750 10 c 128,-1,22
 731 -7 731 -7 697 -7 c 256,23,24
 663 -7 663 -7 646.5 13.5 c 128,-1,25
 630 34 630 34 635 70 c 2,26,-1
 698 473 l 1,27,-1
 721 473 l 1,28,-1
 480 131 l 2,29,30
 467 113 467 113 453.5 105 c 128,-1,31
 440 97 440 97 419 97 c 0,32,33
 397 97 397 97 383.5 107.5 c 128,-1,34
 370 118 370 118 360 140 c 2,35,-1
 227 468 l 1,36,-1
 249 468 l 1,37,-1
 184 59 l 2,38,39
 179 27 179 27 160 10 c 128,-1,40
 141 -7 141 -7 108 -7 c 0,0,1
EndSplineSet
EndChar

StartChar: N
Encoding: 78 78 118
Width: 752
GlyphClass: 2
Flags: W
AnchorPoint: "Anchor-2" 348 0 basechar 0
AnchorPoint: "Anchor-0" 446 705 basechar 0
LayerCount: 2
Fore
SplineSet
107 -9 m 0,0,1
 73 -9 73 -9 55.5 13.5 c 128,-1,2
 38 36 38 36 44 77 c 2,3,-1
 135 648 l 2,4,5
 141 681 141 681 159.5 697.5 c 128,-1,6
 178 714 178 714 206 714 c 0,7,8
 236 714 236 714 251.5 702.5 c 128,-1,9
 267 691 267 691 283 665 c 2,10,-1
 558 205 l 1,11,-1
 531 205 l 1,12,-1
 600 642 l 2,13,14
 606 679 606 679 626.5 696.5 c 128,-1,15
 647 714 647 714 683 714 c 0,16,17
 717 714 717 714 732.5 691.5 c 128,-1,18
 748 669 748 669 742 629 c 2,19,-1
 652 58 l 2,20,21
 647 25 647 25 630 8 c 128,-1,22
 613 -9 613 -9 585 -9 c 0,23,24
 555 -9 555 -9 537 3 c 128,-1,25
 519 15 519 15 503 41 c 2,26,-1
 228 500 l 1,27,-1
 255 500 l 1,28,-1
 186 63 l 2,29,30
 181 27 181 27 162 9 c 128,-1,31
 143 -9 143 -9 107 -9 c 0,0,1
EndSplineSet
EndChar

StartChar: Eng
Encoding: 330 330 128
Width: 752
GlyphClass: 2
Flags: W
AnchorPoint: "Anchor-2" 338 0 basechar 0
AnchorPoint: "Anchor-0" 448 705 basechar 0
LayerCount: 2
Fore
SplineSet
415 -191 m 0,0,1
 392 -191 392 -191 378 -180.5 c 128,-1,2
 364 -170 364 -170 359 -154 c 128,-1,3
 354 -138 354 -138 358 -121.5 c 128,-1,4
 362 -105 362 -105 375 -93.5 c 128,-1,5
 388 -82 388 -82 409 -80 c 0,6,7
 444 -78 444 -78 468 -59.5 c 128,-1,8
 492 -41 492 -41 498 -2 c 2,9,-1
 507 57 l 1,10,-1
 528 0 l 1,11,-1
 228 500 l 1,12,-1
 255 500 l 1,13,-1
 186 63 l 2,14,15
 181 27 181 27 162 9 c 128,-1,16
 143 -9 143 -9 107 -9 c 0,17,18
 73 -9 73 -9 55.5 13.5 c 128,-1,19
 38 36 38 36 44 77 c 2,20,-1
 135 647 l 2,21,22
 141 681 141 681 159.5 697.5 c 128,-1,23
 178 714 178 714 206 714 c 0,24,25
 236 714 236 714 251.5 702.5 c 128,-1,26
 267 691 267 691 283 665 c 2,27,-1
 558 205 l 1,28,-1
 531 205 l 1,29,-1
 600 642 l 2,30,31
 606 679 606 679 626 696.5 c 128,-1,32
 646 714 646 714 682 714 c 0,33,34
 716 714 716 714 732 691.5 c 128,-1,35
 748 669 748 669 742 629 c 2,36,-1
 645 17 l 2,37,38
 629 -88 629 -88 575 -139.5 c 128,-1,39
 521 -191 521 -191 415 -191 c 0,0,1
EndSplineSet
EndChar

StartChar: O
Encoding: 79 79 129
Width: 796
GlyphClass: 2
Flags: W
AnchorPoint: "Anchor-5" 415 353 basechar 0
AnchorPoint: "Anchor-3" 436 0 basechar 0
AnchorPoint: "Anchor-2" 367 0 basechar 0
AnchorPoint: "Anchor-1" 516 705 basechar 0
AnchorPoint: "Anchor-0" 457 705 basechar 0
LayerCount: 2
Fore
SplineSet
388 -11 m 0,0,1
 291 -11 291 -11 218.5 26 c 128,-1,2
 146 63 146 63 106 133 c 128,-1,3
 66 203 66 203 66 302 c 0,4,5
 66 392 66 392 92.5 468 c 128,-1,6
 119 544 119 544 168.5 599.5 c 128,-1,7
 218 655 218 655 287 685.5 c 128,-1,8
 356 716 356 716 442 716 c 0,9,10
 540 716 540 716 612.5 679 c 128,-1,11
 685 642 685 642 724.5 572 c 128,-1,12
 764 502 764 502 764 404 c 0,13,14
 764 313 764 313 738 237 c 128,-1,15
 712 161 712 161 662.5 105.5 c 128,-1,16
 613 50 613 50 544 19.5 c 128,-1,17
 475 -11 475 -11 388 -11 c 0,0,1
391 121 m 0,18,19
 458 121 458 121 505.5 157 c 128,-1,20
 553 193 553 193 578 256.5 c 128,-1,21
 603 320 603 320 603 401 c 0,22,23
 603 494 603 494 559 539 c 128,-1,24
 515 584 515 584 439 584 c 0,25,26
 372 584 372 584 325 548.5 c 128,-1,27
 278 513 278 513 253 450 c 128,-1,28
 228 387 228 387 228 304 c 0,29,30
 228 212 228 212 271.5 166.5 c 128,-1,31
 315 121 315 121 391 121 c 0,18,19
EndSplineSet
Substitution2: "Single Substitution lookup 29 subtable" ordmasculine
Substitution2: "'aalt' Access All Alternates lookup 0 subtable" ordmasculine
EndChar

StartChar: OE
Encoding: 338 338 163
Width: 1062
GlyphClass: 2
Flags: W
AnchorPoint: "Anchor-2" 563 0 basechar 0
AnchorPoint: "Anchor-0" 675 705 basechar 0
LayerCount: 2
Fore
SplineSet
428 0 m 2,0,1
 255 0 255 0 162 81 c 128,-1,2
 69 162 69 162 68 305 c 0,3,4
 68 395 68 395 93 468 c 128,-1,5
 118 541 118 541 170 594.5 c 128,-1,6
 222 648 222 648 299.5 676.5 c 128,-1,7
 377 705 377 705 480 705 c 2,8,-1
 1018 705 l 2,9,10
 1049 705 1049 705 1065.5 692.5 c 128,-1,11
 1082 680 1082 680 1082 656 c 0,12,13
 1082 622 1082 622 1062.5 603 c 128,-1,14
 1043 584 1043 584 1010 584 c 2,15,-1
 729 584 l 1,16,-1
 703 419 l 1,17,-1
 952 419 l 2,18,19
 983 419 983 419 999 406 c 128,-1,20
 1015 393 1015 393 1015 370 c 0,21,22
 1015 336 1015 336 995.5 316.5 c 128,-1,23
 976 297 976 297 943 297 c 2,24,-1
 685 297 l 1,25,-1
 656 121 l 1,26,-1
 926 121 l 2,27,28
 957 121 957 121 973.5 108.5 c 128,-1,29
 990 96 990 96 990 73 c 0,30,31
 990 39 990 39 970.5 19.5 c 128,-1,32
 951 0 951 0 919 0 c 2,33,-1
 428 0 l 2,0,1
428 127 m 2,34,-1
 509 127 l 1,35,-1
 580 578 l 1,36,-1
 478 578 l 2,37,38
 413 578 413 578 366.5 558.5 c 128,-1,39
 320 539 320 539 289.5 503 c 128,-1,40
 259 467 259 467 244 417.5 c 128,-1,41
 229 368 229 368 229 307 c 0,42,43
 229 220 229 220 279 173.5 c 128,-1,44
 329 127 329 127 428 127 c 2,34,-1
EndSplineSet
EndChar

StartChar: P
Encoding: 80 80 164
Width: 664
GlyphClass: 2
Flags: W
AnchorPoint: "Anchor-2" 297 0 basechar 0
AnchorPoint: "Anchor-0" 408 705 basechar 0
LayerCount: 2
Fore
SplineSet
110 -9 m 0,0,1
 73 -9 73 -9 56 15.5 c 128,-1,2
 39 40 39 40 45 82 c 2,3,-1
 132 628 l 2,4,5
 137 667 137 667 160 686 c 128,-1,6
 183 705 183 705 222 705 c 2,7,-1
 429 705 l 2,8,9
 552 705 552 705 614 652.5 c 128,-1,10
 676 600 676 600 676 505 c 0,11,12
 676 386 676 386 603 320 c 128,-1,13
 530 254 530 254 391 254 c 2,14,-1
 227 254 l 1,15,-1
 198 69 l 2,16,17
 192 30 192 30 170 10.5 c 128,-1,18
 148 -9 148 -9 110 -9 c 0,0,1
247 374 m 1,19,-1
 397 374 l 2,20,21
 461 374 461 374 494 404.5 c 128,-1,22
 527 435 527 435 527 492 c 0,23,24
 527 540 527 540 498 562 c 128,-1,25
 469 584 469 584 410 584 c 2,26,-1
 280 584 l 1,27,-1
 247 374 l 1,19,-1
EndSplineSet
EndChar

StartChar: Thorn
Encoding: 222 222 165
Width: 666
GlyphClass: 2
Flags: W
AnchorPoint: "Anchor-2" 301 0 basechar 0
AnchorPoint: "Anchor-0" 411 705 basechar 0
LayerCount: 2
Fore
SplineSet
109 -9 m 0,0,1
 72 -9 72 -9 55 15.5 c 128,-1,2
 38 40 38 40 45 83 c 2,3,-1
 132 630 l 2,4,5
 137 668 137 668 160.5 687.5 c 128,-1,6
 184 707 184 707 222 707 c 0,7,8
 258 707 258 707 276.5 688.5 c 128,-1,9
 295 670 295 670 289 640 c 2,10,-1
 281 593 l 1,11,-1
 413 593 l 2,12,13
 536 593 536 593 598.5 540.5 c 128,-1,14
 661 488 661 488 661 394 c 0,15,16
 661 274 661 274 587.5 207.5 c 128,-1,17
 514 141 514 141 375 141 c 2,18,-1
 209 141 l 1,19,-1
 198 69 l 2,20,21
 192 30 192 30 170 10.5 c 128,-1,22
 148 -9 148 -9 109 -9 c 0,0,1
228 262 m 1,23,-1
 382 262 l 2,24,25
 446 262 446 262 479 292.5 c 128,-1,26
 512 323 512 323 512 380 c 0,27,28
 512 428 512 428 483 450 c 128,-1,29
 454 472 454 472 394 472 c 2,30,-1
 262 472 l 1,31,-1
 228 262 l 1,23,-1
EndSplineSet
EndChar

StartChar: Q
Encoding: 81 81 166
Width: 796
GlyphClass: 2
Flags: W
AnchorPoint: "Anchor-5" 415 353 basechar 0
AnchorPoint: "Anchor-3" 436 0 basechar 0
AnchorPoint: "Anchor-2" 367 0 basechar 0
AnchorPoint: "Anchor-1" 516 705 basechar 0
AnchorPoint: "Anchor-0" 457 705 basechar 0
LayerCount: 2
Fore
SplineSet
646 -105 m 2,0,1
 661 -134 661 -134 655.5 -156.5 c 128,-1,2
 650 -179 650 -179 632.5 -192.5 c 128,-1,3
 615 -206 615 -206 592.5 -208.5 c 128,-1,4
 570 -211 570 -211 549 -199.5 c 128,-1,5
 528 -188 528 -188 515 -161 c 2,6,-1
 468 -60 l 2,7,8
 456 -33 456 -33 435.5 -22 c 128,-1,9
 415 -11 415 -11 373 -11 c 1,10,-1
 496 34 l 1,11,12
 540 34 540 34 568.5 17.5 c 128,-1,13
 597 1 597 1 615 -37 c 2,14,-1
 646 -105 l 2,0,1
388 -11 m 0,15,16
 291 -11 291 -11 218.5 26 c 128,-1,17
 146 63 146 63 106 133 c 128,-1,18
 66 203 66 203 66 302 c 0,19,20
 66 392 66 392 92.5 468 c 128,-1,21
 119 544 119 544 168.5 599.5 c 128,-1,22
 218 655 218 655 287 685.5 c 128,-1,23
 356 716 356 716 442 716 c 0,24,25
 540 716 540 716 612.5 679 c 128,-1,26
 685 642 685 642 724.5 572 c 128,-1,27
 764 502 764 502 764 404 c 0,28,29
 764 313 764 313 738 237 c 128,-1,30
 712 161 712 161 662.5 105.5 c 128,-1,31
 613 50 613 50 544 19.5 c 128,-1,32
 475 -11 475 -11 388 -11 c 0,15,16
391 121 m 0,33,34
 458 121 458 121 505.5 157 c 128,-1,35
 553 193 553 193 578 256.5 c 128,-1,36
 603 320 603 320 603 401 c 0,37,38
 603 494 603 494 559 539 c 128,-1,39
 515 584 515 584 439 584 c 0,40,41
 372 584 372 584 325 548.5 c 128,-1,42
 278 513 278 513 253 450 c 128,-1,43
 228 387 228 387 228 304 c 0,44,45
 228 212 228 212 271.5 166.5 c 128,-1,46
 315 121 315 121 391 121 c 0,33,34
EndSplineSet
EndChar

StartChar: R
Encoding: 82 82 167
Width: 696
GlyphClass: 2
Flags: W
AnchorPoint: "Anchor-2" 319 0 basechar 0
AnchorPoint: "Anchor-0" 412 705 basechar 0
LayerCount: 2
Fore
SplineSet
109 -9 m 0,0,1
 73 -9 73 -9 55.5 15.5 c 128,-1,2
 38 40 38 40 45 83 c 2,3,-1
 132 628 l 2,4,5
 137 666 137 666 160 685.5 c 128,-1,6
 183 705 183 705 222 705 c 2,7,-1
 433 705 l 2,8,9
 551 705 551 705 613.5 652 c 128,-1,10
 676 599 676 599 676 507 c 0,11,12
 676 427 676 427 641 375.5 c 128,-1,13
 606 324 606 324 544 299.5 c 128,-1,14
 482 275 482 275 403 275 c 1,15,-1
 403 292 l 1,16,-1
 435 292 l 2,17,18
 484 292 484 292 515 264.5 c 128,-1,19
 546 237 546 237 565 189 c 2,20,-1
 603 91 l 2,21,22
 615 60 615 60 611.5 37.5 c 128,-1,23
 608 15 608 15 590 3 c 128,-1,24
 572 -9 572 -9 539 -9 c 0,25,26
 507 -9 507 -9 488 7.5 c 128,-1,27
 469 24 469 24 456 59 c 2,28,-1
 397 214 l 2,29,30
 386 246 386 246 366.5 259.5 c 128,-1,31
 347 273 347 273 313 273 c 2,32,-1
 230 273 l 1,33,-1
 199 69 l 2,34,35
 193 30 193 30 170.5 10.5 c 128,-1,36
 148 -9 148 -9 109 -9 c 0,0,1
248 385 m 1,37,-1
 400 385 l 2,38,39
 461 385 461 385 494 412.5 c 128,-1,40
 527 440 527 440 527 494 c 0,41,42
 527 539 527 539 498.5 561.5 c 128,-1,43
 470 584 470 584 408 584 c 2,44,-1
 280 584 l 1,45,-1
 248 385 l 1,37,-1
EndSplineSet
EndChar

StartChar: S
Encoding: 83 83 175
Width: 641
GlyphClass: 2
Flags: W
AnchorPoint: "Anchor-2" 306 0 basechar 0
AnchorPoint: "Anchor-0" 384 705 basechar 0
LayerCount: 2
Fore
SplineSet
302 -11 m 0,0,1
 261 -11 261 -11 220 -5 c 128,-1,2
 179 1 179 1 139.5 13.5 c 128,-1,3
 100 26 100 26 66 44 c 0,4,5
 43 57 43 57 34.5 76.5 c 128,-1,6
 26 96 26 96 29 116 c 128,-1,7
 32 136 32 136 45 151.5 c 128,-1,8
 58 167 58 167 78 171.5 c 128,-1,9
 98 176 98 176 124 163 c 0,10,11
 170 139 170 139 220.5 128.5 c 128,-1,12
 271 118 271 118 316 118 c 0,13,14
 380 118 380 118 415.5 141 c 128,-1,15
 451 164 451 164 451 200 c 0,16,17
 451 229 451 229 430 248 c 128,-1,18
 409 267 409 267 360 278 c 2,19,-1
 247 305 l 2,20,21
 173 322 173 322 129.5 368 c 128,-1,22
 86 414 86 414 86 487 c 0,23,24
 86 541 86 541 108.5 583.5 c 128,-1,25
 131 626 131 626 171.5 655.5 c 128,-1,26
 212 685 212 685 264.5 700.5 c 128,-1,27
 317 716 317 716 375 716 c 0,28,29
 425 716 425 716 483.5 703 c 128,-1,30
 542 690 542 690 592 660 c 0,31,32
 612 648 612 648 620 629.5 c 128,-1,33
 628 611 628 611 625.5 591.5 c 128,-1,34
 623 572 623 572 610.5 558 c 128,-1,35
 598 544 598 544 576.5 540.5 c 128,-1,36
 555 537 555 537 525 551 c 0,37,38
 492 568 492 568 451.5 577.5 c 128,-1,39
 411 587 411 587 373 587 c 0,40,41
 333 587 333 587 302.5 576 c 128,-1,42
 272 565 272 565 255.5 546 c 128,-1,43
 239 527 239 527 239 501 c 0,44,45
 239 471 239 471 258.5 453.5 c 128,-1,46
 278 436 278 436 317 426 c 2,47,-1
 429 399 l 2,48,49
 515 379 515 379 559.5 332 c 128,-1,50
 604 285 604 285 604 219 c 0,51,52
 604 161 604 161 580 118 c 128,-1,53
 556 75 556 75 513.5 46.5 c 128,-1,54
 471 18 471 18 416.5 3.5 c 128,-1,55
 362 -11 362 -11 302 -11 c 0,0,1
EndSplineSet
EndChar

StartChar: uni1E9E
Encoding: 7838 7838 186
Width: 741
GlyphClass: 1
Flags: W
LayerCount: 2
Fore
SplineSet
436 -11 m 0,0,1
 395 -11 395 -11 358 -2 c 128,-1,2
 321 7 321 7 287 25 c 0,3,4
 267 35 267 35 259.5 52 c 128,-1,5
 252 69 252 69 254.5 87 c 128,-1,6
 257 105 257 105 268 119 c 128,-1,7
 279 133 279 133 296 138.5 c 128,-1,8
 313 144 313 144 334 135 c 0,9,10
 360 122 360 122 383.5 117.5 c 128,-1,11
 407 113 407 113 431 113 c 0,12,13
 481 113 481 113 509 140 c 128,-1,14
 537 167 537 167 537 210 c 0,15,16
 537 247 537 247 510 270 c 128,-1,17
 483 293 483 293 424 293 c 2,18,-1
 377 293 l 2,19,20
 356 293 356 293 342 305.5 c 128,-1,21
 328 318 328 318 328 339 c 0,22,23
 328 373 328 373 343 392.5 c 128,-1,24
 358 412 358 412 389 412 c 2,25,-1
 433 412 l 2,26,27
 488 412 488 412 517.5 435.5 c 128,-1,28
 547 459 547 459 547 509 c 0,29,30
 547 544 547 544 516 567.5 c 128,-1,31
 485 591 485 591 425 591 c 0,32,33
 347 591 347 591 308 554.5 c 128,-1,34
 269 518 269 518 257 443 c 2,35,-1
 197 65 l 2,36,37
 192 29 192 29 170.5 10 c 128,-1,38
 149 -9 149 -9 112 -9 c 0,39,40
 74 -9 74 -9 56 13.5 c 128,-1,41
 38 36 38 36 44 77 c 2,42,-1
 104 458 l 2,43,44
 119 553 119 553 162 609 c 128,-1,45
 205 665 205 665 274.5 690.5 c 128,-1,46
 344 716 344 716 438 716 c 0,47,48
 523 716 523 716 580 690.5 c 128,-1,49
 637 665 637 665 666.5 623 c 128,-1,50
 696 581 696 581 696 531 c 0,51,52
 696 466 696 466 653.5 416.5 c 128,-1,53
 611 367 611 367 542 352 c 1,54,-1
 542 368 l 1,55,56
 588 360 588 360 620 335 c 128,-1,57
 652 310 652 310 668.5 274 c 128,-1,58
 685 238 685 238 685 197 c 0,59,60
 685 141 685 141 656.5 93.5 c 128,-1,61
 628 46 628 46 572.5 17.5 c 128,-1,62
 517 -11 517 -11 436 -11 c 0,0,1
EndSplineSet
EndChar

StartChar: T
Encoding: 84 84 187
Width: 632
GlyphClass: 2
Flags: W
AnchorPoint: "Anchor-5" 334 358 basechar 0
AnchorPoint: "Anchor-2" 279 0 basechar 0
AnchorPoint: "Anchor-0" 387 705 basechar 0
LayerCount: 2
Fore
SplineSet
279 -9 m 256,0,1
 241 -9 241 -9 223.5 15.5 c 128,-1,2
 206 40 206 40 213 82 c 2,3,-1
 291 577 l 1,4,-1
 127 577 l 2,5,6
 95 577 95 577 77 591 c 128,-1,7
 59 605 59 605 59 629 c 0,8,9
 59 665 59 665 79.5 685 c 128,-1,10
 100 705 100 705 136 705 c 2,11,-1
 631 705 l 2,12,13
 664 705 664 705 681.5 691.5 c 128,-1,14
 699 678 699 678 699 654 c 0,15,16
 699 618 699 618 679 597.5 c 128,-1,17
 659 577 659 577 623 577 c 2,18,-1
 447 577 l 1,19,-1
 366 69 l 2,20,21
 360 31 360 31 338.5 11 c 128,-1,22
 317 -9 317 -9 279 -9 c 256,0,1
EndSplineSet
EndChar

StartChar: U
Encoding: 85 85 194
Width: 743
GlyphClass: 2
Flags: W
AnchorPoint: "Anchor-3" 406 0 basechar 0
AnchorPoint: "Anchor-2" 334 0 basechar 0
AnchorPoint: "Anchor-1" 634 705 basechar 0
AnchorPoint: "Anchor-0" 443 705 basechar 0
LayerCount: 2
Fore
SplineSet
345 -11 m 0,0,1
 277 -11 277 -11 222 9 c 128,-1,2
 167 29 167 29 130 69 c 128,-1,3
 93 109 93 109 78 170 c 128,-1,4
 63 231 63 231 76 313 c 2,5,-1
 129 641 l 2,6,7
 134 678 134 678 155.5 696 c 128,-1,8
 177 714 177 714 213 714 c 0,9,10
 252 714 252 714 270 691.5 c 128,-1,11
 288 669 288 669 281 628 c 2,12,-1
 230 303 l 2,13,14
 217 215 217 215 248.5 168 c 128,-1,15
 280 121 280 121 357 121 c 0,16,17
 429 121 429 121 472 159.5 c 128,-1,18
 515 198 515 198 528 279 c 2,19,-1
 585 641 l 2,20,21
 591 678 591 678 612.5 696 c 128,-1,22
 634 714 634 714 670 714 c 0,23,24
 708 714 708 714 725.5 692 c 128,-1,25
 743 670 743 670 737 628 c 2,26,-1
 683 284 l 2,27,28
 668 189 668 189 627.5 123 c 128,-1,29
 587 57 587 57 518 23 c 128,-1,30
 449 -11 449 -11 345 -11 c 0,0,1
EndSplineSet
EndChar

StartChar: V
Encoding: 86 86 217
Width: 727
GlyphClass: 2
Flags: W
AnchorPoint: "Anchor-2" 325 0 basechar 0
AnchorPoint: "Anchor-0" 435 705 basechar 0
LayerCount: 2
Fore
SplineSet
328 -9 m 0,0,1
 295 -9 295 -9 274.5 8 c 128,-1,2
 254 25 254 25 244 58 c 2,3,-1
 84 609 l 2,4,5
 76 638 76 638 83 659.5 c 128,-1,6
 90 681 90 681 108 693 c 128,-1,7
 126 705 126 705 151 705 c 0,8,9
 180 705 180 705 199.5 690.5 c 128,-1,10
 219 676 219 676 229 637 c 2,11,-1
 363 142 l 1,12,-1
 314 142 l 1,13,-1
 614 651 l 2,14,15
 631 680 631 680 650 692.5 c 128,-1,16
 669 705 669 705 700 705 c 256,17,18
 731 705 731 705 748.5 690.5 c 128,-1,19
 766 676 766 676 768.5 653 c 128,-1,20
 771 630 771 630 755 605 c 2,21,-1
 416 45 l 2,22,23
 399 17 399 17 379 4 c 128,-1,24
 359 -9 359 -9 328 -9 c 0,0,1
EndSplineSet
EndChar

StartChar: W
Encoding: 87 87 218
Width: 1120
GlyphClass: 2
Flags: W
AnchorPoint: "Anchor-2" 521 0 basechar 0
AnchorPoint: "Anchor-0" 630 705 basechar 0
LayerCount: 2
Fore
SplineSet
291 -9 m 0,0,1
 259 -9 259 -9 241.5 8.5 c 128,-1,2
 224 26 224 26 216 62 c 2,3,-1
 106 621 l 2,4,5
 98 663 98 663 117.5 688.5 c 128,-1,6
 137 714 137 714 177 714 c 0,7,8
 207 714 207 714 225.5 696 c 128,-1,9
 244 678 244 678 250 643 c 2,10,-1
 336 161 l 1,11,-1
 294 161 l 1,12,-1
 548 657 l 2,13,14
 563 686 563 686 582.5 700 c 128,-1,15
 602 714 602 714 630 714 c 256,16,17
 658 714 658 714 674 696.5 c 128,-1,18
 690 679 690 679 697 642 c 2,19,-1
 784 161 l 1,20,-1
 746 161 l 1,21,-1
 995 657 l 2,22,23
 1009 686 1009 686 1027 700 c 128,-1,24
 1045 714 1045 714 1076 714 c 0,25,26
 1120 714 1120 714 1135.5 685 c 128,-1,27
 1151 656 1151 656 1130 614 c 2,28,-1
 838 48 l 2,29,30
 823 18 823 18 802 4.5 c 128,-1,31
 781 -9 781 -9 749 -9 c 0,32,33
 718 -9 718 -9 700 8.5 c 128,-1,34
 682 26 682 26 675 62 c 2,35,-1
 590 500 l 1,36,-1
 614 500 l 1,37,-1
 380 48 l 2,38,39
 365 19 365 19 344.5 5 c 128,-1,40
 324 -9 324 -9 291 -9 c 0,0,1
EndSplineSet
EndChar

StartChar: X
Encoding: 88 88 223
Width: 685
GlyphClass: 2
Flags: W
AnchorPoint: "Anchor-2" 303 0 basechar 0
AnchorPoint: "Anchor-0" 413 705 basechar 0
LayerCount: 2
Fore
SplineSet
81 -9 m 0,0,1
 51 -9 51 -9 33.5 9 c 128,-1,2
 16 27 16 27 16 52.5 c 128,-1,3
 16 78 16 78 37 103 c 2,4,-1
 293 392 l 1,5,-1
 293 324 l 1,6,-1
 125 605 l 2,7,8
 109 633 109 633 112.5 657.5 c 128,-1,9
 116 682 116 682 135 698 c 128,-1,10
 154 714 154 714 184 714 c 0,11,12
 212 714 212 714 228 701.5 c 128,-1,13
 244 689 244 689 263 655 c 2,14,-1
 388 436 l 1,15,-1
 351 436 l 1,16,-1
 544 665 l 2,17,18
 567 692 567 692 585.5 703 c 128,-1,19
 604 714 604 714 630 714 c 0,20,21
 661 714 661 714 679 696.5 c 128,-1,22
 697 679 697 679 698 654 c 128,-1,23
 699 629 699 629 678 604 c 2,24,-1
 427 322 l 1,25,-1
 427 393 l 1,26,-1
 602 100 l 2,27,28
 618 74 618 74 614 49 c 128,-1,29
 610 24 610 24 591 7.5 c 128,-1,30
 572 -9 572 -9 541 -9 c 0,31,32
 514 -9 514 -9 497.5 3.5 c 128,-1,33
 481 16 481 16 462 49 c 2,34,-1
 329 279 l 1,35,-1
 369 279 l 1,36,-1
 168 40 l 2,37,38
 145 13 145 13 126.5 2 c 128,-1,39
 108 -9 108 -9 81 -9 c 0,0,1
EndSplineSet
EndChar

StartChar: Y
Encoding: 89 89 224
Width: 631
GlyphClass: 2
Flags: W
AnchorPoint: "Anchor-2" 277 0 basechar 0
AnchorPoint: "Anchor-0" 375 705 basechar 0
LayerCount: 2
Fore
SplineSet
275 -9 m 0,0,1
 238 -9 238 -9 221.5 15.5 c 128,-1,2
 205 40 205 40 212 82 c 2,3,-1
 256 362 l 1,4,-1
 274 273 l 1,5,-1
 94 604 l 2,6,7
 78 633 78 633 81.5 657.5 c 128,-1,8
 85 682 85 682 104 698 c 128,-1,9
 123 714 123 714 155 714 c 0,10,11
 182 714 182 714 199.5 701.5 c 128,-1,12
 217 689 217 689 235 655 c 2,13,-1
 353 432 l 1,14,-1
 321 432 l 1,15,-1
 518 665 l 2,16,17
 542 693 542 693 560 703.5 c 128,-1,18
 578 714 578 714 605 714 c 0,19,20
 636 714 636 714 653.5 697 c 128,-1,21
 671 680 671 680 671 654.5 c 128,-1,22
 671 629 671 629 650 604 c 2,23,-1
 365 273 l 1,24,-1
 412 362 l 1,25,-1
 365 69 l 2,26,27
 352 -9 352 -9 275 -9 c 0,0,1
EndSplineSet
EndChar

StartChar: uni01B3
Encoding: 435 435 231
Width: 644
GlyphClass: 1
Flags: W
LayerCount: 2
Fore
SplineSet
278 -9 m 0,0,1
 238 -9 238 -9 221.5 14.5 c 128,-1,2
 205 38 205 38 211 78 c 2,3,-1
 256 362 l 1,4,-1
 274 273 l 1,5,-1
 94 604 l 2,6,7
 78 633 78 633 82 657.5 c 128,-1,8
 86 682 86 682 105.5 698 c 128,-1,9
 125 714 125 714 155 714 c 0,10,11
 173 714 173 714 186.5 708.5 c 128,-1,12
 200 703 200 703 211.5 691 c 128,-1,13
 223 679 223 679 235 655 c 2,14,-1
 353 432 l 1,15,-1
 321 432 l 1,16,-1
 481 619 l 2,17,18
 513 656 513 656 542 677 c 128,-1,19
 571 698 571 698 603.5 706.5 c 128,-1,20
 636 715 636 715 674 715 c 0,21,22
 717 715 717 715 739.5 703.5 c 128,-1,23
 762 692 762 692 762 659 c 0,24,25
 762 645 762 645 757.5 631.5 c 128,-1,26
 753 618 753 618 744.5 609.5 c 128,-1,27
 736 601 736 601 724 602 c 0,28,29
 717 603 717 603 710 603.5 c 128,-1,30
 703 604 703 604 695 604 c 0,31,32
 676 604 676 604 652.5 591.5 c 128,-1,33
 629 579 629 579 607 554 c 2,34,-1
 365 273 l 1,35,-1
 412 362 l 1,36,-1
 365 67 l 2,37,38
 352 -9 352 -9 278 -9 c 0,0,1
EndSplineSet
EndChar

StartChar: Z
Encoding: 90 90 235
Width: 615
GlyphClass: 2
Flags: W
AnchorPoint: "Anchor-2" 290 0 basechar 0
AnchorPoint: "Anchor-0" 378 705 basechar 0
LayerCount: 2
Fore
SplineSet
81 0 m 2,0,1
 56 0 56 0 39.5 13 c 128,-1,2
 23 26 23 26 17.5 47.5 c 128,-1,3
 12 69 12 69 21 95.5 c 128,-1,4
 30 122 30 122 55 149 c 2,5,-1
 485 623 l 1,6,-1
 487 576 l 1,7,-1
 167 576 l 2,8,9
 135 576 135 576 117.5 590 c 128,-1,10
 100 604 100 604 100 629 c 0,11,12
 100 666 100 666 120.5 685.5 c 128,-1,13
 141 705 141 705 176 705 c 2,14,-1
 571 705 l 2,15,16
 601 705 601 705 619.5 692 c 128,-1,17
 638 679 638 679 643 657.5 c 128,-1,18
 648 636 648 636 639 610.5 c 128,-1,19
 630 585 630 585 606 559 c 2,20,-1
 175 83 l 1,21,-1
 171 129 l 1,22,-1
 507 129 l 2,23,24
 539 129 539 129 557 115.5 c 128,-1,25
 575 102 575 102 575 77 c 0,26,27
 575 40 575 40 554.5 20 c 128,-1,28
 534 0 534 0 498 0 c 2,29,-1
 81 0 l 2,0,1
EndSplineSet
EndChar

StartChar: a
Encoding: 97 97 242
Width: 557
GlyphClass: 2
Flags: W
AnchorPoint: "Anchor-3" 417 0 basechar 0
AnchorPoint: "Anchor-2" 249 -1 basechar 0
AnchorPoint: "Anchor-0" 313 484 basechar 0
LayerCount: 2
Fore
SplineSet
189 -11 m 0,0,1
 143 -11 143 -11 105.5 10.5 c 128,-1,2
 68 32 68 32 45.5 67 c 128,-1,3
 23 102 23 102 23 143 c 0,4,5
 23 195 23 195 52 228 c 128,-1,6
 81 261 81 261 142 276.5 c 128,-1,7
 203 292 203 292 298 292 c 2,8,-1
 377 292 l 1,9,-1
 365 214 l 1,10,-1
 301 214 l 2,11,12
 252 214 252 214 223 208.5 c 128,-1,13
 194 203 194 203 181 189.5 c 128,-1,14
 168 176 168 176 168 153 c 0,15,16
 168 123 168 123 188.5 106.5 c 128,-1,17
 209 90 209 90 240 90 c 0,18,19
 269 90 269 90 291.5 102 c 128,-1,20
 314 114 314 114 329.5 136 c 128,-1,21
 345 158 345 158 349 188 c 2,22,-1
 368 305 l 2,23,24
 375 346 375 346 353.5 368 c 128,-1,25
 332 390 332 390 281 390 c 0,26,27
 250 390 250 390 220.5 384 c 128,-1,28
 191 378 191 378 159 364 c 0,29,30
 136 356 136 356 119 361 c 128,-1,31
 102 366 102 366 91.5 379 c 128,-1,32
 81 392 81 392 81.5 409.5 c 128,-1,33
 82 427 82 427 94 443 c 128,-1,34
 106 459 106 459 133 470 c 0,35,36
 176 487 176 487 219 494 c 128,-1,37
 262 501 262 501 302 501 c 0,38,39
 386 501 386 501 434 470 c 128,-1,40
 482 439 482 439 499 386.5 c 128,-1,41
 516 334 516 334 505 269 c 2,42,-1
 473 66 l 2,43,44
 468 29 468 29 447 10 c 128,-1,45
 426 -9 426 -9 392 -9 c 0,46,47
 359 -9 359 -9 343 12 c 128,-1,48
 327 33 327 33 334 74 c 2,49,-1
 342 127 l 1,50,-1
 347 100 l 1,51,52
 332 62 332 62 307.5 37 c 128,-1,53
 283 12 283 12 253 0.5 c 128,-1,54
 223 -11 223 -11 189 -11 c 0,0,1
EndSplineSet
Substitution2: "'ss01' Style Set 1 lookup 35 subtable" a.ss01
Substitution2: "'salt' Stylistic Alternatives lookup 34 subtable" a.ss01
Substitution2: "Single Substitution lookup 29 subtable" ordfeminine
AlternateSubs2: "'aalt' Access All Alternates lookup 1 subtable" a.ss01 ordfeminine
EndChar

StartChar: aogonek
Encoding: 261 261 265
Width: 557
GlyphClass: 1
Flags: W
LayerCount: 2
Fore
SplineSet
378 -197 m 0,0,1
 320 -197 320 -197 291 -170 c 128,-1,2
 262 -143 262 -143 262 -101 c 0,3,4
 262 -60 262 -60 283.5 -27 c 128,-1,5
 305 6 305 6 344 29 c 1,6,-1
 341 16 l 1,7,8
 334 27 334 27 332.5 41.5 c 128,-1,9
 331 56 331 56 334 74 c 2,10,-1
 342 127 l 1,11,-1
 347 100 l 1,12,13
 332 62 332 62 307.5 37 c 128,-1,14
 283 12 283 12 253 0.5 c 128,-1,15
 223 -11 223 -11 189 -11 c 0,16,17
 143 -11 143 -11 105.5 10.5 c 128,-1,18
 68 32 68 32 45.5 67 c 128,-1,19
 23 102 23 102 23 143 c 0,20,21
 23 195 23 195 52 228 c 128,-1,22
 81 261 81 261 142 276.5 c 128,-1,23
 203 292 203 292 298 292 c 2,24,-1
 377 292 l 1,25,-1
 365 214 l 1,26,-1
 301 214 l 2,27,28
 252 214 252 214 223 208.5 c 128,-1,29
 194 203 194 203 181 189.5 c 128,-1,30
 168 176 168 176 168 153 c 0,31,32
 168 123 168 123 188.5 106.5 c 128,-1,33
 209 90 209 90 240 90 c 0,34,35
 269 90 269 90 291.5 102 c 128,-1,36
 314 114 314 114 329.5 136 c 128,-1,37
 345 158 345 158 349 188 c 2,38,-1
 368 305 l 2,39,40
 375 346 375 346 353.5 368 c 128,-1,41
 332 390 332 390 281 390 c 0,42,43
 250 390 250 390 220.5 384 c 128,-1,44
 191 378 191 378 159 364 c 0,45,46
 136 356 136 356 119 361 c 128,-1,47
 102 366 102 366 91.5 379 c 128,-1,48
 81 392 81 392 81.5 409.5 c 128,-1,49
 82 427 82 427 94 443 c 128,-1,50
 106 459 106 459 133 470 c 0,51,52
 176 487 176 487 219 494 c 128,-1,53
 262 501 262 501 302 501 c 0,54,55
 386 501 386 501 434 470 c 128,-1,56
 482 439 482 439 499 386.5 c 128,-1,57
 516 334 516 334 505 269 c 2,58,-1
 473 66 l 2,59,60
 469 35 469 35 453.5 17.5 c 128,-1,61
 438 0 438 0 413 -7 c 0,62,63
 383 -16 383 -16 368.5 -34.5 c 128,-1,64
 354 -53 354 -53 354 -76 c 0,65,66
 354 -95 354 -95 368 -107.5 c 128,-1,67
 382 -120 382 -120 404 -120 c 0,68,69
 411 -120 411 -120 418.5 -119 c 128,-1,70
 426 -118 426 -118 437 -115 c 0,71,72
 455 -110 455 -110 464.5 -118.5 c 128,-1,73
 474 -127 474 -127 475.5 -141 c 128,-1,74
 477 -155 477 -155 470.5 -167.5 c 128,-1,75
 464 -180 464 -180 450 -186 c 0,76,77
 434 -191 434 -191 414.5 -194 c 128,-1,78
 395 -197 395 -197 378 -197 c 0,0,1
EndSplineSet
Substitution2: "'ss01' Style Set 1 lookup 35 subtable" aogonek.ss01
Substitution2: "'salt' Stylistic Alternatives lookup 34 subtable" aogonek.ss01
Substitution2: "'aalt' Access All Alternates lookup 0 subtable" aogonek.ss01
EndChar

StartChar: ae
Encoding: 230 230 269
Width: 868
GlyphClass: 2
Flags: W
AnchorPoint: "Anchor-2" 376 0 basechar 0
AnchorPoint: "Anchor-0" 436 484 basechar 0
LayerCount: 2
Fore
SplineSet
218 -11 m 0,0,1
 168 -11 168 -11 123 6 c 128,-1,2
 78 23 78 23 50.5 57.5 c 128,-1,3
 23 92 23 92 23 143 c 0,4,5
 23 195 23 195 52 228 c 128,-1,6
 81 261 81 261 142 276.5 c 128,-1,7
 203 292 203 292 298 292 c 2,8,-1
 377 292 l 1,9,-1
 366 214 l 1,10,-1
 302 214 l 2,11,12
 254 214 254 214 224.5 208 c 128,-1,13
 195 202 195 202 181.5 188 c 128,-1,14
 168 174 168 174 168 151 c 0,15,16
 168 125 168 125 188 109 c 128,-1,17
 208 93 208 93 239 93 c 0,18,19
 268 93 268 93 290.5 104 c 128,-1,20
 313 115 313 115 328 135.5 c 128,-1,21
 343 156 343 156 347 186 c 2,22,-1
 366 302 l 2,23,24
 372 344 372 344 352 367 c 128,-1,25
 332 390 332 390 281 390 c 0,26,27
 250 390 250 390 220.5 384 c 128,-1,28
 191 378 191 378 159 364 c 0,29,30
 136 356 136 356 119 361 c 128,-1,31
 102 366 102 366 91.5 379.5 c 128,-1,32
 81 393 81 393 81.5 410 c 128,-1,33
 82 427 82 427 94 443.5 c 128,-1,34
 106 460 106 460 133 470 c 0,35,36
 176 487 176 487 219 494 c 128,-1,37
 262 501 262 501 302 501 c 0,38,39
 368 501 368 501 410 478 c 128,-1,40
 452 455 452 455 471 410 c 1,41,-1
 439 410 l 1,42,43
 473 454 473 454 521 477.5 c 128,-1,44
 569 501 569 501 628 501 c 0,45,46
 696 501 696 501 740 477.5 c 128,-1,47
 784 454 784 454 807.5 416.5 c 128,-1,48
 831 379 831 379 838 336 c 128,-1,49
 845 293 845 293 839 254 c 2,50,-1
 837 240 l 2,51,52
 835 226 835 226 826.5 220 c 128,-1,53
 818 214 818 214 803 214 c 2,54,-1
 473 214 l 1,55,-1
 484 292 l 1,56,-1
 735 292 l 1,57,-1
 718 277 l 1,58,59
 723 311 723 311 715.5 339 c 128,-1,60
 708 367 708 367 686 383.5 c 128,-1,61
 664 400 664 400 626 400 c 0,62,63
 590 400 590 400 565 383 c 128,-1,64
 540 366 540 366 525 338.5 c 128,-1,65
 510 311 510 311 505 278 c 2,66,-1
 499 243 l 2,67,68
 488 176 488 176 520 139 c 128,-1,69
 552 102 552 102 618 102 c 0,70,71
 645 102 645 102 675 108 c 128,-1,72
 705 114 705 114 729 126 c 0,73,74
 752 137 752 137 768.5 133.5 c 128,-1,75
 785 130 785 130 793.5 117.5 c 128,-1,76
 802 105 802 105 802.5 88 c 128,-1,77
 803 71 803 71 793.5 54.5 c 128,-1,78
 784 38 784 38 764 27 c 0,79,80
 729 8 729 8 685.5 -1.5 c 128,-1,81
 642 -11 642 -11 603 -11 c 0,82,83
 521 -11 521 -11 466.5 23 c 128,-1,84
 412 57 412 57 390 118 c 1,85,-1
 415 118 l 1,86,87
 393 52 393 52 338 20.5 c 128,-1,88
 283 -11 283 -11 218 -11 c 0,0,1
EndSplineSet
EndChar

StartChar: b
Encoding: 98 98 271
Width: 610
GlyphClass: 2
Flags: W
AnchorPoint: "Anchor-2" 267 0 basechar 0
AnchorPoint: "Anchor-0" 390 705 basechar 0
LayerCount: 2
Fore
SplineSet
331 -11 m 0,0,1
 276 -11 276 -11 234.5 14.5 c 128,-1,2
 193 40 193 40 176 89 c 1,3,-1
 186 122 l 1,4,-1
 178 67 l 2,5,6
 173 30 173 30 152.5 10.5 c 128,-1,7
 132 -9 132 -9 95 -9 c 0,8,9
 59 -9 59 -9 42.5 14.5 c 128,-1,10
 26 38 26 38 32 79 c 2,11,-1
 121 638 l 2,12,13
 126 675 126 675 148 694.5 c 128,-1,14
 170 714 170 714 208 714 c 0,15,16
 243 714 243 714 259.5 690.5 c 128,-1,17
 276 667 276 667 270 626 c 2,18,-1
 235 405 l 1,19,-1
 225 405 l 1,20,21
 252 451 252 451 296 476 c 128,-1,22
 340 501 340 501 395 501 c 256,23,24
 450 501 450 501 491.5 475.5 c 128,-1,25
 533 450 533 450 555.5 402 c 128,-1,26
 578 354 578 354 578 289 c 0,27,28
 578 204 578 204 548 136 c 128,-1,29
 518 68 518 68 462.5 28.5 c 128,-1,30
 407 -11 407 -11 331 -11 c 0,0,1
300 102 m 0,31,32
 340 102 340 102 368 125.5 c 128,-1,33
 396 149 396 149 411 189.5 c 128,-1,34
 426 230 426 230 426 281 c 0,35,36
 426 333 426 333 401.5 360.5 c 128,-1,37
 377 388 377 388 334 388 c 0,38,39
 294 388 294 388 266 365 c 128,-1,40
 238 342 238 342 223 301.5 c 128,-1,41
 208 261 208 261 208 210 c 0,42,43
 208 158 208 158 232.5 130 c 128,-1,44
 257 102 257 102 300 102 c 0,31,32
EndSplineSet
EndChar

StartChar: uni0253
Encoding: 595 595 272
Width: 610
GlyphClass: 1
Flags: W
LayerCount: 2
Fore
SplineSet
331 -11 m 0,0,1
 276 -11 276 -11 234.5 14.5 c 128,-1,2
 193 40 193 40 176 89 c 1,3,-1
 186 122 l 1,4,-1
 178 67 l 2,5,6
 172 29 172 29 152 10 c 128,-1,7
 132 -9 132 -9 94 -9 c 0,8,9
 59 -9 59 -9 42.5 14.5 c 128,-1,10
 26 38 26 38 32 79 c 2,11,-1
 100 512 l 2,12,13
 117 616 117 616 173.5 666 c 128,-1,14
 230 716 230 716 335 716 c 0,15,16
 377 716 377 716 394 701.5 c 128,-1,17
 411 687 411 687 411 660 c 0,18,19
 411 636 411 636 400.5 616.5 c 128,-1,20
 390 597 390 597 373 597 c 0,21,22
 369 597 369 597 360 598 c 128,-1,23
 351 599 351 599 343 599 c 0,24,25
 305 599 305 599 282 576.5 c 128,-1,26
 259 554 259 554 251 510 c 2,27,-1
 235 405 l 1,28,-1
 225 405 l 1,29,30
 252 451 252 451 296 476 c 128,-1,31
 340 501 340 501 395 501 c 256,32,33
 450 501 450 501 491.5 475.5 c 128,-1,34
 533 450 533 450 555.5 402 c 128,-1,35
 578 354 578 354 578 289 c 0,36,37
 578 204 578 204 548 136 c 128,-1,38
 518 68 518 68 462.5 28.5 c 128,-1,39
 407 -11 407 -11 331 -11 c 0,0,1
300 102 m 0,40,41
 340 102 340 102 368 125.5 c 128,-1,42
 396 149 396 149 411 189.5 c 128,-1,43
 426 230 426 230 426 281 c 0,44,45
 426 333 426 333 401.5 360.5 c 128,-1,46
 377 388 377 388 334 388 c 0,47,48
 294 388 294 388 266 365 c 128,-1,49
 238 342 238 342 223 301.5 c 128,-1,50
 208 261 208 261 208 210 c 0,51,52
 208 158 208 158 232.5 130 c 128,-1,53
 257 102 257 102 300 102 c 0,40,41
EndSplineSet
EndChar

StartChar: c
Encoding: 99 99 273
Width: 478
GlyphClass: 2
Flags: W
AnchorPoint: "Anchor-2" 248 0 basechar 0
AnchorPoint: "Anchor-0" 316 484 basechar 0
LayerCount: 2
Fore
SplineSet
278 -11 m 0,0,1
 196 -11 196 -11 141.5 17.5 c 128,-1,2
 87 46 87 46 60 97.5 c 128,-1,3
 33 149 33 149 33 216 c 0,4,5
 33 271 33 271 50 322 c 128,-1,6
 67 373 67 373 102.5 413.5 c 128,-1,7
 138 454 138 454 192.5 477.5 c 128,-1,8
 247 501 247 501 320 501 c 0,9,10
 355 501 355 501 385.5 494.5 c 128,-1,11
 416 488 416 488 443 476 c 0,12,13
 467 466 467 466 477 450 c 128,-1,14
 487 434 487 434 485.5 416 c 128,-1,15
 484 398 484 398 474.5 383.5 c 128,-1,16
 465 369 465 369 449 363 c 128,-1,17
 433 357 433 357 414 366 c 0,18,19
 392 377 392 377 372 381.5 c 128,-1,20
 352 386 352 386 331 386 c 0,21,22
 291 386 291 386 263.5 371.5 c 128,-1,23
 236 357 236 357 219.5 332.5 c 128,-1,24
 203 308 203 308 195 278.5 c 128,-1,25
 187 249 187 249 187 218 c 0,26,27
 187 167 187 167 213.5 136 c 128,-1,28
 240 105 240 105 301 105 c 0,29,30
 316 105 316 105 336.5 109.5 c 128,-1,31
 357 114 357 114 379 124 c 0,32,33
 395 131 395 131 409.5 125.5 c 128,-1,34
 424 120 424 120 433 106.5 c 128,-1,35
 442 93 442 93 443.5 76.5 c 128,-1,36
 445 60 445 60 435.5 44 c 128,-1,37
 426 28 426 28 404 17 c 0,38,39
 379 4 379 4 343.5 -3.5 c 128,-1,40
 308 -11 308 -11 278 -11 c 0,0,1
EndSplineSet
EndChar

StartChar: d
Encoding: 100 100 280
Width: 610
GlyphClass: 2
Flags: W
AnchorPoint: "Anchor-5" 300 246 basechar 0
AnchorPoint: "Anchor-4" 481 590 basechar 0
AnchorPoint: "Anchor-2" 273 0 basechar 0
AnchorPoint: "Anchor-1" 662 705 basechar 0
AnchorPoint: "Anchor-0" 369 629 basechar 0
LayerCount: 2
Fore
SplineSet
215 -11 m 0,0,1
 160 -11 160 -11 118.5 15.5 c 128,-1,2
 77 42 77 42 54.5 89.5 c 128,-1,3
 32 137 32 137 32 202 c 0,4,5
 32 288 32 288 62 355.5 c 128,-1,6
 92 423 92 423 148 462 c 128,-1,7
 204 501 204 501 279 501 c 0,8,9
 334 501 334 501 375.5 475.5 c 128,-1,10
 417 450 417 450 434 401 c 1,11,-1
 426 402 l 1,12,-1
 463 641 l 2,13,14
 469 678 469 678 491 696 c 128,-1,15
 513 714 513 714 550 714 c 0,16,17
 586 714 586 714 602 691.5 c 128,-1,18
 618 669 618 669 612 627 c 2,19,-1
 523 68 l 2,20,21
 518 30 518 30 496 10.5 c 128,-1,22
 474 -9 474 -9 437 -9 c 0,23,24
 402 -9 402 -9 386.5 15.5 c 128,-1,25
 371 40 371 40 378 81 c 2,26,-1
 385 125 l 1,27,-1
 385 85 l 1,28,29
 357 41 357 41 313 15 c 128,-1,30
 269 -11 269 -11 215 -11 c 0,0,1
276 102 m 0,31,32
 316 102 316 102 344 126 c 128,-1,33
 372 150 372 150 387 190 c 128,-1,34
 402 230 402 230 402 281 c 0,35,36
 402 333 402 333 377.5 360.5 c 128,-1,37
 353 388 353 388 310 388 c 0,38,39
 270 388 270 388 242 365 c 128,-1,40
 214 342 214 342 199 301.5 c 128,-1,41
 184 261 184 261 184 210 c 0,42,43
 184 158 184 158 208.5 130 c 128,-1,44
 233 102 233 102 276 102 c 0,31,32
EndSplineSet
EndChar

StartChar: eth
Encoding: 240 240 281
Width: 593
GlyphClass: 1
Flags: W
LayerCount: 2
Fore
SplineSet
267 -11 m 0,0,1
 199 -11 199 -11 145 15.5 c 128,-1,2
 91 42 91 42 60 89 c 128,-1,3
 29 136 29 136 29 196 c 0,4,5
 29 271 29 271 62.5 328 c 128,-1,6
 96 385 96 385 154 416.5 c 128,-1,7
 212 448 212 448 284 448 c 0,8,9
 328 448 328 448 364 436 c 128,-1,10
 400 424 400 424 425 396.5 c 128,-1,11
 450 369 450 369 457 322 c 1,12,-1
 432 321 l 1,13,14
 439 396 439 396 408.5 458 c 128,-1,15
 378 520 378 520 322 561 c 1,16,-1
 343 560 l 1,17,-1
 199 497 l 2,18,19
 183 489 183 489 170 495 c 128,-1,20
 157 501 157 501 151.5 514 c 128,-1,21
 146 527 146 527 150.5 540.5 c 128,-1,22
 155 554 155 554 171 562 c 2,23,-1
 273 607 l 1,24,-1
 267 594 l 1,25,26
 253 601 253 601 236 607 c 128,-1,27
 219 613 219 613 203 618 c 0,28,29
 177 625 177 625 168.5 642 c 128,-1,30
 160 659 160 659 166 676.5 c 128,-1,31
 172 694 172 694 191 704.5 c 128,-1,32
 210 715 210 715 239 708 c 0,33,34
 280 699 280 699 319.5 683 c 128,-1,35
 359 667 359 667 389 648 c 1,36,-1
 369 650 l 1,37,-1
 495 706 l 2,38,39
 513 714 513 714 526.5 708 c 128,-1,40
 540 702 540 702 545.5 689 c 128,-1,41
 551 676 551 676 546.5 662.5 c 128,-1,42
 542 649 542 649 524 641 c 2,43,-1
 432 600 l 1,44,-1
 436 613 l 1,45,46
 483 573 483 573 511.5 525 c 128,-1,47
 540 477 540 477 553.5 424 c 128,-1,48
 567 371 567 371 567 318 c 0,49,50
 567 249 567 249 547.5 189 c 128,-1,51
 528 129 528 129 490 84 c 128,-1,52
 452 39 452 39 396.5 14 c 128,-1,53
 341 -11 341 -11 267 -11 c 0,0,1
281 104 m 0,54,55
 316 104 316 104 343 121 c 128,-1,56
 370 138 370 138 386 169 c 128,-1,57
 402 200 402 200 402 243 c 256,58,59
 402 286 402 286 375.5 311.5 c 128,-1,60
 349 337 349 337 302 337 c 0,61,62
 268 337 268 337 240.5 320.5 c 128,-1,63
 213 304 213 304 197 273 c 128,-1,64
 181 242 181 242 181 199 c 0,65,66
 181 155 181 155 208 129.5 c 128,-1,67
 235 104 235 104 281 104 c 0,54,55
EndSplineSet
EndChar

StartChar: dcroat
Encoding: 273 273 283
Width: 610
GlyphClass: 1
Flags: W
LayerCount: 2
Fore
SplineSet
214 -11 m 256,0,1
 159 -11 159 -11 118 15 c 128,-1,2
 77 41 77 41 54 88.5 c 128,-1,3
 31 136 31 136 31 199 c 0,4,5
 31 283 31 283 61 350 c 128,-1,6
 91 417 91 417 146.5 456 c 128,-1,7
 202 495 202 495 278 495 c 0,8,9
 332 495 332 495 373.5 469.5 c 128,-1,10
 415 444 415 444 432 395 c 1,11,-1
 425 396 l 1,12,-1
 447 538 l 1,13,-1
 319 538 l 2,14,15
 292 538 292 538 277.5 548.5 c 128,-1,16
 263 559 263 559 263 581 c 0,17,18
 263 609 263 609 279.5 625.5 c 128,-1,19
 296 642 296 642 326 642 c 2,20,-1
 494 642 l 1,21,-1
 454 583 l 1,22,-1
 463 639 l 2,23,24
 469 677 469 677 491 695.5 c 128,-1,25
 513 714 513 714 550 714 c 0,26,27
 585 714 585 714 602 693 c 128,-1,28
 619 672 619 672 612 634 c 2,29,-1
 604 583 l 1,30,-1
 582 642 l 1,31,-1
 642 642 l 2,32,33
 668 642 668 642 683 631 c 128,-1,34
 698 620 698 620 698 600 c 0,35,36
 698 571 698 571 681 554.5 c 128,-1,37
 664 538 664 538 635 538 c 2,38,-1
 598 538 l 1,39,-1
 523 68 l 2,40,41
 518 30 518 30 496 10.5 c 128,-1,42
 474 -9 474 -9 437 -9 c 0,43,44
 402 -9 402 -9 386.5 15.5 c 128,-1,45
 371 40 371 40 377 82 c 2,46,-1
 384 125 l 1,47,-1
 385 86 l 1,48,49
 358 41 358 41 313.5 15 c 128,-1,50
 269 -11 269 -11 214 -11 c 256,0,1
276 102 m 0,51,52
 316 102 316 102 343.5 125.5 c 128,-1,53
 371 149 371 149 386.5 189 c 128,-1,54
 402 229 402 229 402 278 c 256,55,56
 402 327 402 327 377 354.5 c 128,-1,57
 352 382 352 382 309 382 c 0,58,59
 270 382 270 382 241.5 359 c 128,-1,60
 213 336 213 336 198 296.5 c 128,-1,61
 183 257 183 257 183 207 c 256,62,63
 183 157 183 157 207.5 129.5 c 128,-1,64
 232 102 232 102 276 102 c 0,51,52
EndSplineSet
EndChar

StartChar: uni0257
Encoding: 599 599 285
Width: 610
GlyphClass: 1
Flags: W
LayerCount: 2
Fore
SplineSet
214 -11 m 256,0,1
 159 -11 159 -11 118 15.5 c 128,-1,2
 77 42 77 42 54 89.5 c 128,-1,3
 31 137 31 137 31 202 c 0,4,5
 31 288 31 288 61.5 355.5 c 128,-1,6
 92 423 92 423 148 462 c 128,-1,7
 204 501 204 501 279 501 c 0,8,9
 333 501 333 501 374.5 475.5 c 128,-1,10
 416 450 416 450 433 401 c 1,11,-1
 425 402 l 1,12,-1
 442 512 l 2,13,14
 459 616 459 616 515.5 666 c 128,-1,15
 572 716 572 716 676 716 c 0,16,17
 718 716 718 716 735.5 701.5 c 128,-1,18
 753 687 753 687 753 660 c 0,19,20
 753 636 753 636 742.5 616.5 c 128,-1,21
 732 597 732 597 715 597 c 0,22,23
 711 597 711 597 702 598 c 128,-1,24
 693 599 693 599 685 599 c 0,25,26
 647 599 647 599 623.5 576 c 128,-1,27
 600 553 600 553 593 509 c 2,28,-1
 523 68 l 2,29,30
 517 30 517 30 495.5 10.5 c 128,-1,31
 474 -9 474 -9 437 -9 c 0,32,33
 401 -9 401 -9 386 15.5 c 128,-1,34
 371 40 371 40 378 81 c 2,35,-1
 385 125 l 1,36,-1
 385 85 l 1,37,38
 357 41 357 41 313 15 c 128,-1,39
 269 -11 269 -11 214 -11 c 256,0,1
276 102 m 0,40,41
 316 102 316 102 344 126 c 128,-1,42
 372 150 372 150 387 190 c 128,-1,43
 402 230 402 230 402 281 c 0,44,45
 402 333 402 333 377.5 360.5 c 128,-1,46
 353 388 353 388 309 388 c 0,47,48
 270 388 270 388 242 365 c 128,-1,49
 214 342 214 342 198.5 301.5 c 128,-1,50
 183 261 183 261 183 210 c 0,51,52
 183 158 183 158 208 130 c 128,-1,53
 233 102 233 102 276 102 c 0,40,41
EndSplineSet
EndChar

StartChar: e
Encoding: 101 101 288
Width: 549
GlyphClass: 2
Flags: W
AnchorPoint: "Anchor-3" 351 0 basechar 0
AnchorPoint: "Anchor-2" 258 0 basechar 0
AnchorPoint: "Anchor-0" 324 484 basechar 0
LayerCount: 2
Fore
SplineSet
286 -11 m 0,0,1
 209 -11 209 -11 152 17.5 c 128,-1,2
 95 46 95 46 64 97 c 128,-1,3
 33 148 33 148 33 215 c 0,4,5
 33 299 33 299 69 363 c 128,-1,6
 105 427 105 427 167.5 464 c 128,-1,7
 230 501 230 501 309 501 c 0,8,9
 371 501 371 501 414 480 c 128,-1,10
 457 459 457 459 482 423.5 c 128,-1,11
 507 388 507 388 515.5 342.5 c 128,-1,12
 524 297 524 297 519 249 c 0,13,14
 516 226 516 226 506 219.5 c 128,-1,15
 496 213 496 213 479 213 c 2,16,-1
 155 213 l 1,17,-1
 166 291 l 1,18,-1
 417 291 l 1,19,-1
 401 277 l 1,20,21
 406 313 406 313 398 340.5 c 128,-1,22
 390 368 390 368 368 384.5 c 128,-1,23
 346 401 346 401 308 401 c 256,24,25
 270 401 270 401 243.5 383.5 c 128,-1,26
 217 366 217 366 202 338.5 c 128,-1,27
 187 311 187 311 181 278 c 2,28,-1
 176 243 l 2,29,30
 165 177 165 177 198.5 139.5 c 128,-1,31
 232 102 232 102 301 102 c 0,32,33
 327 102 327 102 357.5 108 c 128,-1,34
 388 114 388 114 412 126 c 0,35,36
 434 137 434 137 450.5 133.5 c 128,-1,37
 467 130 467 130 476 117 c 128,-1,38
 485 104 485 104 485.5 87.5 c 128,-1,39
 486 71 486 71 476.5 54.5 c 128,-1,40
 467 38 467 38 447 27 c 0,41,42
 412 8 412 8 368 -1.5 c 128,-1,43
 324 -11 324 -11 286 -11 c 0,0,1
EndSplineSet
EndChar

StartChar: uni0259
Encoding: 601 601 311
Width: 549
GlyphClass: 1
Flags: W
LayerCount: 2
Fore
SplineSet
241 -11 m 0,0,1
 158 -11 158 -11 108 24.5 c 128,-1,2
 58 60 58 60 39.5 118 c 128,-1,3
 21 176 21 176 30 243 c 0,4,5
 33 264 33 264 41.5 271 c 128,-1,6
 50 278 50 278 68 278 c 2,7,-1
 395 278 l 1,8,-1
 383 200 l 1,9,-1
 136 200 l 1,10,-1
 158 213 l 1,11,12
 153 180 153 180 161 152 c 128,-1,13
 169 124 169 124 190 106.5 c 128,-1,14
 211 89 211 89 244 89 c 0,15,16
 282 89 282 89 307.5 106.5 c 128,-1,17
 333 124 333 124 347.5 152 c 128,-1,18
 362 180 362 180 367 212 c 2,19,-1
 372 248 l 2,20,21
 383 315 383 315 352.5 351.5 c 128,-1,22
 322 388 322 388 251 388 c 0,23,24
 224 388 224 388 194 382 c 128,-1,25
 164 376 164 376 140 363 c 0,26,27
 118 352 118 352 101.5 356 c 128,-1,28
 85 360 85 360 75 372 c 128,-1,29
 65 384 65 384 63.5 401 c 128,-1,30
 62 418 62 418 69.5 434.5 c 128,-1,31
 77 451 77 451 96 461 c 0,32,33
 132 482 132 482 178.5 491.5 c 128,-1,34
 225 501 225 501 267 501 c 0,35,36
 344 501 344 501 400 473 c 128,-1,37
 456 445 456 445 486.5 394.5 c 128,-1,38
 517 344 517 344 517 275 c 0,39,40
 517 192 517 192 481 127.5 c 128,-1,41
 445 63 445 63 383 26 c 128,-1,42
 321 -11 321 -11 241 -11 c 0,0,1
EndSplineSet
EndChar

StartChar: f
Encoding: 102 102 314
Width: 382
GlyphClass: 2
Flags: W
AnchorPoint: "Anchor-2" 132 0 basechar 0
AnchorPoint: "Anchor-0" 243 705 basechar 0
LayerCount: 2
Fore
SplineSet
132 -9 m 0,0,1
 96 -9 96 -9 80 14.5 c 128,-1,2
 64 38 64 38 70 79 c 2,3,-1
 118 378 l 1,4,-1
 86 378 l 2,5,6
 58 378 58 378 43 390 c 128,-1,7
 28 402 28 402 28 424 c 0,8,9
 28 455 28 455 46 473 c 128,-1,10
 64 491 64 491 95 491 c 2,11,-1
 150 491 l 1,12,-1
 133 476 l 1,13,-1
 138 506 l 2,14,15
 151 595 151 595 208.5 647.5 c 128,-1,16
 266 700 266 700 381 707 c 2,17,-1
 408 709 l 2,18,19
 432 710 432 710 445 699.5 c 128,-1,20
 458 689 458 689 462 673.5 c 128,-1,21
 466 658 466 658 462 641 c 128,-1,22
 458 624 458 624 446.5 612.5 c 128,-1,23
 435 601 435 601 418 599 c 2,24,-1
 392 597 l 2,25,26
 344 593 344 593 320 572.5 c 128,-1,27
 296 552 296 552 289 511 c 2,28,-1
 284 479 l 1,29,-1
 274 491 l 1,30,-1
 350 491 l 2,31,32
 378 491 378 491 393.5 479 c 128,-1,33
 409 467 409 467 409 446 c 0,34,35
 409 414 409 414 390.5 396 c 128,-1,36
 372 378 372 378 341 378 c 2,37,-1
 269 378 l 1,38,-1
 219 66 l 2,39,40
 206 -9 206 -9 132 -9 c 0,0,1
EndSplineSet
EndChar

StartChar: g
Encoding: 103 103 315
Width: 615
GlyphClass: 2
Flags: W
AnchorPoint: "Anchor-0" 338 484 basechar 0
LayerCount: 2
Fore
SplineSet
260 -191 m 0,0,1
 202 -191 202 -191 147.5 -179 c 128,-1,2
 93 -167 93 -167 53 -146 c 0,3,4
 32 -135 32 -135 24.5 -118 c 128,-1,5
 17 -101 17 -101 19.5 -84 c 128,-1,6
 22 -67 22 -67 33.5 -53.5 c 128,-1,7
 45 -40 45 -40 62.5 -36.5 c 128,-1,8
 80 -33 80 -33 102 -44 c 0,9,10
 132 -59 132 -59 167 -68.5 c 128,-1,11
 202 -78 202 -78 238 -78 c 0,12,13
 295 -78 295 -78 330.5 -54 c 128,-1,14
 366 -30 366 -30 375 25 c 2,15,-1
 389 108 l 1,16,-1
 397 107 l 1,17,18
 374 60 374 60 329 36 c 128,-1,19
 284 12 284 12 230 12 c 0,20,21
 171 12 171 12 126.5 36 c 128,-1,22
 82 60 82 60 57.5 105.5 c 128,-1,23
 33 151 33 151 33 214 c 0,24,25
 33 272 33 272 51 324.5 c 128,-1,26
 69 377 69 377 101.5 416.5 c 128,-1,27
 134 456 134 456 180.5 478.5 c 128,-1,28
 227 501 227 501 283 501 c 0,29,30
 340 501 340 501 382 475.5 c 128,-1,31
 424 450 424 450 441 401 c 1,32,-1
 428 364 l 1,33,-1
 437 426 l 2,34,35
 443 464 443 464 465 481.5 c 128,-1,36
 487 499 487 499 523 499 c 0,37,38
 558 499 558 499 573.5 476 c 128,-1,39
 589 453 589 453 582 411 c 2,40,-1
 522 33 l 2,41,42
 506 -74 506 -74 440.5 -132.5 c 128,-1,43
 375 -191 375 -191 260 -191 c 0,0,1
280 125 m 0,44,45
 321 125 321 125 350 148 c 128,-1,46
 379 171 379 171 394 208.5 c 128,-1,47
 409 246 409 246 409 290 c 0,48,49
 409 335 409 335 384 361.5 c 128,-1,50
 359 388 359 388 313 388 c 0,51,52
 273 388 273 388 244 365.5 c 128,-1,53
 215 343 215 343 200 305.5 c 128,-1,54
 185 268 185 268 185 223 c 256,55,56
 185 178 185 178 209.5 151.5 c 128,-1,57
 234 125 234 125 280 125 c 0,44,45
EndSplineSet
EndChar

StartChar: uni01E5
Encoding: 485 485 322
Width: 615
GlyphClass: 1
Flags: W
LayerCount: 2
Fore
SplineSet
258 -191 m 0,0,1
 193 -191 193 -191 137.5 -179 c 128,-1,2
 82 -167 82 -167 43 -145 c 0,3,4
 24 -135 24 -135 17 -118.5 c 128,-1,5
 10 -102 10 -102 13.5 -85 c 128,-1,6
 17 -68 17 -68 28.5 -55.5 c 128,-1,7
 40 -43 40 -43 56.5 -39 c 128,-1,8
 73 -35 73 -35 93 -46 c 0,9,10
 124 -62 124 -62 162 -72.5 c 128,-1,11
 200 -83 200 -83 236 -83 c 0,12,13
 276 -83 276 -83 306 -72 c 128,-1,14
 336 -61 336 -61 353 -37 c 1,15,-1
 358 -49 l 1,16,-1
 278 -49 l 2,17,18
 255 -49 255 -49 245 -38.5 c 128,-1,19
 235 -28 235 -28 235 -12 c 0,20,21
 235 8 235 8 248.5 18.5 c 128,-1,22
 262 29 262 29 281 29 c 2,23,-1
 393 29 l 1,24,-1
 372 8 l 1,25,26
 372 12 372 12 373.5 16.5 c 128,-1,27
 375 21 375 21 376 24 c 2,28,-1
 394 148 l 1,29,-1
 400 147 l 1,30,31
 377 100 377 100 329.5 74.5 c 128,-1,32
 282 49 282 49 226 49 c 0,33,34
 166 49 166 49 123.5 75.5 c 128,-1,35
 81 102 81 102 59 146.5 c 128,-1,36
 37 191 37 191 37 245 c 0,37,38
 37 298 37 298 54.5 344 c 128,-1,39
 72 390 72 390 105 425.5 c 128,-1,40
 138 461 138 461 183.5 481 c 128,-1,41
 229 501 229 501 286 501 c 256,42,43
 343 501 343 501 385 475.5 c 128,-1,44
 427 450 427 450 440 402 c 1,45,-1
 427 364 l 1,46,-1
 437 426 l 2,47,48
 443 464 443 464 464.5 481.5 c 128,-1,49
 486 499 486 499 522 499 c 0,50,51
 557 499 557 499 572.5 476 c 128,-1,52
 588 453 588 453 582 411 c 2,53,-1
 523 41 l 2,54,55
 522 35 522 35 520.5 29 c 128,-1,56
 519 23 519 23 518 16 c 1,57,-1
 512 29 l 1,58,-1
 533 29 l 2,59,60
 557 29 557 29 567 19 c 128,-1,61
 577 9 577 9 577 -8 c 0,62,63
 577 -26 577 -26 563.5 -37.5 c 128,-1,64
 550 -49 550 -49 530 -49 c 2,65,-1
 485 -49 l 1,66,-1
 504 -37 l 1,67,68
 474 -111 474 -111 414.5 -151 c 128,-1,69
 355 -191 355 -191 258 -191 c 0,0,1
283 161 m 0,70,71
 322 161 322 161 351.5 179.5 c 128,-1,72
 381 198 381 198 397.5 229 c 128,-1,73
 414 260 414 260 414 297 c 0,74,75
 414 339 414 339 389.5 363.5 c 128,-1,76
 365 388 365 388 319 388 c 0,77,78
 281 388 281 388 251.5 370 c 128,-1,79
 222 352 222 352 205 320.5 c 128,-1,80
 188 289 188 289 188 251 c 0,81,82
 188 211 188 211 212.5 186 c 128,-1,83
 237 161 237 161 283 161 c 0,70,71
EndSplineSet
EndChar

StartChar: h
Encoding: 104 104 323
Width: 595
GlyphClass: 2
Flags: W
AnchorPoint: "Anchor-5" 299 249 basechar 0
AnchorPoint: "Anchor-4" 239 590 basechar 0
AnchorPoint: "Anchor-2" 263 0 basechar 0
AnchorPoint: "Anchor-1" 308 705 basechar 0
AnchorPoint: "Anchor-0" 369 705 basechar 0
LayerCount: 2
Fore
SplineSet
94 -9 m 0,0,1
 59 -9 59 -9 42.5 15.5 c 128,-1,2
 26 40 26 40 33 81 c 2,3,-1
 121 638 l 2,4,5
 126 675 126 675 148 694.5 c 128,-1,6
 170 714 170 714 208 714 c 0,7,8
 243 714 243 714 259.5 691 c 128,-1,9
 276 668 276 668 270 626 c 2,10,-1
 234 398 l 1,11,-1
 223 398 l 1,12,13
 248 448 248 448 293 474.5 c 128,-1,14
 338 501 338 501 399 501 c 0,15,16
 453 501 453 501 490 479 c 128,-1,17
 527 457 527 457 542.5 411 c 128,-1,18
 558 365 558 365 547 292 c 2,19,-1
 511 67 l 2,20,21
 506 30 506 30 484 10.5 c 128,-1,22
 462 -9 462 -9 424 -9 c 0,23,24
 389 -9 389 -9 372.5 14.5 c 128,-1,25
 356 38 356 38 362 79 c 2,26,-1
 395 289 l 2,27,28
 403 337 403 337 388.5 360.5 c 128,-1,29
 374 384 374 384 334 384 c 0,30,31
 283 384 283 384 252 351.5 c 128,-1,32
 221 319 221 319 212 262 c 2,33,-1
 181 67 l 2,34,35
 169 -9 169 -9 94 -9 c 0,0,1
EndSplineSet
EndChar

StartChar: hbar
Encoding: 295 295 324
Width: 595
GlyphClass: 1
Flags: W
LayerCount: 2
Fore
SplineSet
94 -9 m 0,0,1
 59 -9 59 -9 42.5 14.5 c 128,-1,2
 26 38 26 38 32 79 c 2,3,-1
 104 538 l 1,4,-1
 74 538 l 2,5,6
 46 538 46 538 32.5 551 c 128,-1,7
 19 564 19 564 22 589 c 0,8,9
 29 642 29 642 84 642 c 2,10,-1
 156 642 l 1,11,-1
 113 589 l 1,12,-1
 121 639 l 2,13,14
 126 681 126 681 148.5 697.5 c 128,-1,15
 171 714 171 714 208 714 c 0,16,17
 244 714 244 714 261 694.5 c 128,-1,18
 278 675 278 675 270 631 c 2,19,-1
 262 577 l 1,20,-1
 240 642 l 1,21,-1
 399 642 l 2,22,23
 430 642 430 642 444.5 629 c 128,-1,24
 459 616 459 616 455 591 c 0,25,26
 448 538 448 538 393 538 c 2,27,-1
 255 538 l 1,28,-1
 233 392 l 1,29,-1
 222 392 l 1,30,31
 248 442 248 442 293 468.5 c 128,-1,32
 338 495 338 495 397 495 c 0,33,34
 451 495 451 495 488.5 473 c 128,-1,35
 526 451 526 451 541.5 404.5 c 128,-1,36
 557 358 557 358 546 286 c 2,37,-1
 511 67 l 2,38,39
 506 30 506 30 484 10.5 c 128,-1,40
 462 -9 462 -9 424 -9 c 0,41,42
 389 -9 389 -9 372.5 14.5 c 128,-1,43
 356 38 356 38 362 79 c 2,44,-1
 394 284 l 2,45,46
 402 331 402 331 387.5 354.5 c 128,-1,47
 373 378 373 378 332 378 c 0,48,49
 282 378 282 378 251 345.5 c 128,-1,50
 220 313 220 313 211 256 c 2,51,-1
 181 67 l 2,52,53
 170 -9 170 -9 94 -9 c 0,0,1
EndSplineSet
EndChar

StartChar: i
Encoding: 105 105 329
Width: 268
GlyphClass: 2
Flags: W
AnchorPoint: "Anchor-3" 136 0 basechar 0
AnchorPoint: "Anchor-2" 95 0 basechar 0
LayerCount: 2
Fore
SplineSet
93 -9 m 0,0,1
 58 -9 58 -9 41.5 14.5 c 128,-1,2
 25 38 25 38 32 79 c 2,3,-1
 87 424 l 2,4,5
 92 462 92 462 114 480.5 c 128,-1,6
 136 499 136 499 174 499 c 0,7,8
 209 499 209 499 225 476 c 128,-1,9
 241 453 241 453 235 411 c 2,10,-1
 180 66 l 2,11,12
 174 29 174 29 153 10 c 128,-1,13
 132 -9 132 -9 93 -9 c 0,0,1
188 581 m 0,14,15
 148 581 148 581 128.5 600 c 128,-1,16
 109 619 109 619 113 654 c 0,17,18
 119 693 119 693 144 712.5 c 128,-1,19
 169 732 169 732 212 732 c 0,20,21
 252 732 252 732 272 713 c 128,-1,22
 292 694 292 694 286 658 c 0,23,24
 281 620 281 620 256 600.5 c 128,-1,25
 231 581 231 581 188 581 c 0,14,15
EndSplineSet
Substitution2: "'locl' Localized Forms in Latin lookup 10 subtable" i.loclTRK
Substitution2: "Single Substitution lookup 4 subtable" dotlessi
Substitution2: "Single Substitution lookup 3 subtable" dotlessi
Substitution2: "'aalt' Access All Alternates lookup 0 subtable" i.loclTRK
EndChar

StartChar: dotlessi
Encoding: 305 305 330
Width: 268
GlyphClass: 2
Flags: W
AnchorPoint: "Anchor-3" 136 0 basechar 0
AnchorPoint: "Anchor-2" 95 0 basechar 0
AnchorPoint: "Anchor-0" 172 484 basechar 0
LayerCount: 2
Fore
SplineSet
93 -9 m 0,0,1
 58 -9 58 -9 41.5 14.5 c 128,-1,2
 25 38 25 38 32 79 c 2,3,-1
 87 424 l 2,4,5
 92 462 92 462 114 480.5 c 128,-1,6
 136 499 136 499 174 499 c 0,7,8
 209 499 209 499 225 476 c 128,-1,9
 241 453 241 453 235 411 c 2,10,-1
 180 66 l 2,11,12
 174 29 174 29 153 10 c 128,-1,13
 132 -9 132 -9 93 -9 c 0,0,1
EndSplineSet
EndChar

StartChar: iogonek
Encoding: 303 303 343
Width: 268
GlyphClass: 1
Flags: W
LayerCount: 2
Fore
SplineSet
97 -197 m 0,0,1
 39 -197 39 -197 10.5 -170 c 128,-1,2
 -18 -143 -18 -143 -18 -101 c 0,3,4
 -18 -61 -18 -61 2 -30 c 128,-1,5
 22 1 22 1 53 22 c 1,6,-1
 49 6 l 1,7,8
 37 18 37 18 32.5 36.5 c 128,-1,9
 28 55 28 55 32 79 c 2,10,-1
 87 424 l 2,11,12
 92 462 92 462 114 480.5 c 128,-1,13
 136 499 136 499 174 499 c 0,14,15
 209 499 209 499 225 476 c 128,-1,16
 241 453 241 453 235 411 c 2,17,-1
 180 66 l 2,18,19
 176 40 176 40 164 23 c 128,-1,20
 152 6 152 6 131 -2 c 0,21,22
 102 -14 102 -14 87.5 -34 c 128,-1,23
 73 -54 73 -54 73 -75 c 0,24,25
 73 -95 73 -95 87 -107.5 c 128,-1,26
 101 -120 101 -120 123 -120 c 0,27,28
 130 -120 130 -120 138 -119 c 128,-1,29
 146 -118 146 -118 156 -115 c 0,30,31
 174 -110 174 -110 184 -118.5 c 128,-1,32
 194 -127 194 -127 195.5 -141 c 128,-1,33
 197 -155 197 -155 190 -167.5 c 128,-1,34
 183 -180 183 -180 169 -186 c 0,35,36
 154 -191 154 -191 134.5 -194 c 128,-1,37
 115 -197 115 -197 97 -197 c 0,0,1
188 581 m 0,38,39
 148 581 148 581 128.5 600 c 128,-1,40
 109 619 109 619 113 654 c 0,41,42
 119 693 119 693 144 712.5 c 128,-1,43
 169 732 169 732 212 732 c 0,44,45
 252 732 252 732 272 713 c 128,-1,46
 292 694 292 694 286 658 c 0,47,48
 281 620 281 620 256 600.5 c 128,-1,49
 231 581 231 581 188 581 c 0,38,39
EndSplineSet
EndChar

StartChar: j
Encoding: 106 106 345
Width: 273
GlyphClass: 1
Flags: W
LayerCount: 2
Fore
SplineSet
-53 -191 m 0,0,1
 -76 -191 -76 -191 -90.5 -180.5 c 128,-1,2
 -105 -170 -105 -170 -109.5 -154.5 c 128,-1,3
 -114 -139 -114 -139 -110 -122 c 128,-1,4
 -106 -105 -106 -105 -93.5 -93.5 c 128,-1,5
 -81 -82 -81 -82 -60 -80 c 0,6,7
 -25 -78 -25 -78 -3.5 -59.5 c 128,-1,8
 18 -41 18 -41 24 -2 c 2,9,-1
 91 424 l 2,10,11
 97 462 97 462 118 480.5 c 128,-1,12
 139 499 139 499 177 499 c 0,13,14
 212 499 212 499 229 476 c 128,-1,15
 246 453 246 453 240 411 c 2,16,-1
 178 17 l 2,17,18
 167 -53 167 -53 141 -98 c 128,-1,19
 115 -143 115 -143 68 -165.5 c 128,-1,20
 21 -188 21 -188 -53 -191 c 0,0,1
191 581 m 0,21,22
 151 581 151 581 131.5 600 c 128,-1,23
 112 619 112 619 116 654 c 0,24,25
 122 693 122 693 147 712.5 c 128,-1,26
 172 732 172 732 215 732 c 0,27,28
 255 732 255 732 275 713 c 128,-1,29
 295 694 295 694 289 658 c 0,30,31
 284 620 284 620 259 600.5 c 128,-1,32
 234 581 234 581 191 581 c 0,21,22
EndSplineSet
Substitution2: "Single Substitution lookup 4 subtable" uni0237
Substitution2: "Single Substitution lookup 3 subtable" uni0237
EndChar

StartChar: uni0237
Encoding: 567 567 346
Width: 273
GlyphClass: 2
Flags: W
AnchorPoint: "Anchor-2" 99 0 basechar 0
AnchorPoint: "Anchor-0" 175 484 basechar 0
LayerCount: 2
Fore
SplineSet
-53 -191 m 0,0,1
 -76 -191 -76 -191 -90.5 -180.5 c 128,-1,2
 -105 -170 -105 -170 -109.5 -154.5 c 128,-1,3
 -114 -139 -114 -139 -110 -122 c 128,-1,4
 -106 -105 -106 -105 -93.5 -93.5 c 128,-1,5
 -81 -82 -81 -82 -60 -80 c 0,6,7
 -25 -78 -25 -78 -3.5 -59.5 c 128,-1,8
 18 -41 18 -41 24 -2 c 2,9,-1
 91 424 l 2,10,11
 97 462 97 462 118 480.5 c 128,-1,12
 139 499 139 499 177 499 c 0,13,14
 212 499 212 499 229 476 c 128,-1,15
 246 453 246 453 240 411 c 2,16,-1
 178 17 l 2,17,18
 167 -53 167 -53 141 -98 c 128,-1,19
 115 -143 115 -143 68 -165.5 c 128,-1,20
 21 -188 21 -188 -53 -191 c 0,0,1
EndSplineSet
EndChar

StartChar: k
Encoding: 107 107 348
Width: 558
GlyphClass: 2
Flags: W
AnchorPoint: "Anchor-2" 253 0 basechar 0
AnchorPoint: "Anchor-0" 369 705 basechar 0
LayerCount: 2
Fore
SplineSet
95 -9 m 0,0,1
 59 -9 59 -9 43 14.5 c 128,-1,2
 27 38 27 38 33 79 c 2,3,-1
 122 640 l 2,4,5
 127 677 127 677 149 695.5 c 128,-1,6
 171 714 171 714 209 714 c 0,7,8
 244 714 244 714 260 690.5 c 128,-1,9
 276 667 276 667 270 625 c 2,10,-1
 217 288 l 1,11,-1
 219 288 l 1,12,-1
 391 454 l 2,13,14
 414 478 414 478 432.5 488.5 c 128,-1,15
 451 499 451 499 478 499 c 0,16,17
 509 499 509 499 523 482.5 c 128,-1,18
 537 466 537 466 534.5 441.5 c 128,-1,19
 532 417 532 417 511 395 c 2,20,-1
 339 226 l 1,21,-1
 337 285 l 1,22,-1
 476 97 l 2,23,24
 494 71 494 71 492 47 c 128,-1,25
 490 23 490 23 473 7 c 128,-1,26
 456 -9 456 -9 427 -9 c 0,27,28
 394 -9 394 -9 375.5 4.5 c 128,-1,29
 357 18 357 18 336 48 c 2,30,-1
 208 219 l 1,31,-1
 206 219 l 1,32,-1
 182 65 l 2,33,34
 170 -9 170 -9 95 -9 c 0,0,1
EndSplineSet
EndChar

StartChar: kgreenlandic
Encoding: 312 312 351
Width: 558
GlyphClass: 2
Flags: W
AnchorPoint: "Anchor-2" 240 0 basechar 0
AnchorPoint: "Anchor-0" 316 484 basechar 0
LayerCount: 2
Fore
SplineSet
97 -9 m 0,0,1
 59 -9 59 -9 42.5 14.5 c 128,-1,2
 26 38 26 38 33 79 c 2,3,-1
 88 426 l 2,4,5
 93 462 93 462 114.5 480.5 c 128,-1,6
 136 499 136 499 173 499 c 0,7,8
 211 499 211 499 226.5 475.5 c 128,-1,9
 242 452 242 452 236 410 c 2,10,-1
 216 288 l 1,11,-1
 218 288 l 1,12,-1
 391 454 l 2,13,14
 410 474 410 474 429 486.5 c 128,-1,15
 448 499 448 499 477 499 c 0,16,17
 508 499 508 499 523 482.5 c 128,-1,18
 538 466 538 466 535.5 441.5 c 128,-1,19
 533 417 533 417 511 395 c 2,20,-1
 339 226 l 1,21,-1
 337 285 l 1,22,-1
 476 97 l 2,23,24
 494 71 494 71 492 47 c 128,-1,25
 490 23 490 23 472 7 c 128,-1,26
 454 -9 454 -9 424 -9 c 256,27,28
 394 -9 394 -9 375.5 4.5 c 128,-1,29
 357 18 357 18 336 48 c 2,30,-1
 207 219 l 1,31,-1
 205 219 l 1,32,-1
 181 65 l 2,33,34
 175 28 175 28 153.5 9.5 c 128,-1,35
 132 -9 132 -9 97 -9 c 0,0,1
EndSplineSet
EndChar

StartChar: l
Encoding: 108 108 352
Width: 333
GlyphClass: 2
Flags: W
AnchorPoint: "Anchor-5" 160 357 basechar 0
AnchorPoint: "Anchor-2" 160 0 basechar 0
AnchorPoint: "Anchor-1" 319 705 basechar 0
AnchorPoint: "Anchor-0" 206 705 basechar 0
LayerCount: 2
Fore
SplineSet
203 -11 m 0,0,1
 114 -11 114 -11 74 39.5 c 128,-1,2
 34 90 34 90 49 186 c 2,3,-1
 122 638 l 2,4,5
 127 676 127 676 149 695 c 128,-1,6
 171 714 171 714 209 714 c 0,7,8
 244 714 244 714 260 690.5 c 128,-1,9
 276 667 276 667 270 626 c 2,10,-1
 200 188 l 2,11,12
 194 149 194 149 207.5 130 c 128,-1,13
 221 111 221 111 249 111 c 0,14,15
 259 111 259 111 265.5 112 c 128,-1,16
 272 113 272 113 278 113 c 0,17,18
 290 113 290 113 297 105 c 128,-1,19
 304 97 304 97 304 74 c 0,20,21
 304 39 304 39 290 20.5 c 128,-1,22
 276 2 276 2 257 -4 c 0,23,24
 248 -7 248 -7 232.5 -9 c 128,-1,25
 217 -11 217 -11 203 -11 c 0,0,1
EndSplineSet
Substitution2: "'ss02' Style Set 2 lookup 36 subtable" l.ss02
Substitution2: "'aalt' Access All Alternates lookup 0 subtable" l.ss02
EndChar

StartChar: m
Encoding: 109 109 361
Width: 889
GlyphClass: 2
Flags: W
AnchorPoint: "Anchor-2" 407 0 basechar 0
AnchorPoint: "Anchor-0" 483 484 basechar 0
LayerCount: 2
Fore
SplineSet
95 -9 m 0,0,1
 60 -9 60 -9 43.5 13.5 c 128,-1,2
 27 36 27 36 34 76 c 2,3,-1
 90 427 l 2,4,5
 95 463 95 463 116.5 481 c 128,-1,6
 138 499 138 499 173 499 c 0,7,8
 209 499 209 499 225 477 c 128,-1,9
 241 455 241 455 235 415 c 2,10,-1
 227 361 l 1,11,-1
 221 394 l 1,12,13
 250 450 250 450 295 475.5 c 128,-1,14
 340 501 340 501 390 501 c 0,15,16
 445 501 445 501 481 472.5 c 128,-1,17
 517 444 517 444 531 388 c 1,18,-1
 517 395 l 1,19,20
 544 448 544 448 589.5 474.5 c 128,-1,21
 635 501 635 501 694 501 c 0,22,23
 747 501 747 501 783 479 c 128,-1,24
 819 457 819 457 834 410.5 c 128,-1,25
 849 364 849 364 838 291 c 2,26,-1
 802 64 l 2,27,28
 797 28 797 28 775.5 9.5 c 128,-1,29
 754 -9 754 -9 718 -9 c 0,30,31
 681 -9 681 -9 664 13.5 c 128,-1,32
 647 36 647 36 653 76 c 2,33,-1
 686 291 l 2,34,35
 694 337 694 337 680 360.5 c 128,-1,36
 666 384 666 384 631 384 c 0,37,38
 589 384 589 384 561.5 352 c 128,-1,39
 534 320 534 320 524 262 c 2,40,-1
 493 64 l 2,41,42
 488 28 488 28 466 9.5 c 128,-1,43
 444 -9 444 -9 408 -9 c 0,44,45
 371 -9 371 -9 354 13.5 c 128,-1,46
 337 36 337 36 343 76 c 2,47,-1
 377 291 l 2,48,49
 385 337 385 337 371 360.5 c 128,-1,50
 357 384 357 384 322 384 c 0,51,52
 280 384 280 384 252 352 c 128,-1,53
 224 320 224 320 214 262 c 2,54,-1
 183 64 l 2,55,56
 172 -9 172 -9 95 -9 c 0,0,1
EndSplineSet
EndChar

StartChar: n
Encoding: 110 110 363
Width: 595
GlyphClass: 2
Flags: W
AnchorPoint: "Anchor-2" 262 0 basechar 0
AnchorPoint: "Anchor-0" 332 484 basechar 0
LayerCount: 2
Fore
SplineSet
94 -7 m 0,0,1
 59 -7 59 -7 42.5 16.5 c 128,-1,2
 26 40 26 40 33 81 c 2,3,-1
 87 424 l 2,4,5
 93 462 93 462 115 480.5 c 128,-1,6
 137 499 137 499 173 499 c 0,7,8
 207 499 207 499 223.5 478.5 c 128,-1,9
 240 458 240 458 233 418 c 2,10,-1
 225 365 l 1,11,-1
 223 398 l 1,12,13
 248 448 248 448 293 474.5 c 128,-1,14
 338 501 338 501 399 501 c 0,15,16
 453 501 453 501 490 479 c 128,-1,17
 527 457 527 457 542.5 411 c 128,-1,18
 558 365 558 365 547 292 c 2,19,-1
 511 68 l 2,20,21
 506 30 506 30 484 11.5 c 128,-1,22
 462 -7 462 -7 424 -7 c 0,23,24
 389 -7 389 -7 372.5 16.5 c 128,-1,25
 356 40 356 40 362 81 c 2,26,-1
 395 289 l 2,27,28
 403 337 403 337 388.5 360.5 c 128,-1,29
 374 384 374 384 334 384 c 0,30,31
 283 384 283 384 252 351.5 c 128,-1,32
 221 319 221 319 212 262 c 2,33,-1
 181 68 l 2,34,35
 170 -7 170 -7 94 -7 c 0,0,1
EndSplineSet
EndChar

StartChar: eng
Encoding: 331 331 373
Width: 595
GlyphClass: 1
Flags: W
LayerCount: 2
Fore
SplineSet
273 -190 m 0,0,1
 250 -191 250 -191 235.5 -180.5 c 128,-1,2
 221 -170 221 -170 216 -154.5 c 128,-1,3
 211 -139 211 -139 214.5 -123 c 128,-1,4
 218 -107 218 -107 230 -95 c 128,-1,5
 242 -83 242 -83 262 -81 c 0,6,7
 300 -77 300 -77 321.5 -59 c 128,-1,8
 343 -41 343 -41 349 -2 c 2,9,-1
 395 289 l 2,10,11
 403 337 403 337 388.5 360.5 c 128,-1,12
 374 384 374 384 334 384 c 0,13,14
 283 384 283 384 252 351.5 c 128,-1,15
 221 319 221 319 212 262 c 2,16,-1
 181 68 l 2,17,18
 170 -7 170 -7 94 -7 c 0,19,20
 59 -7 59 -7 42.5 16.5 c 128,-1,21
 26 40 26 40 33 81 c 2,22,-1
 87 424 l 2,23,24
 93 462 93 462 115 480.5 c 128,-1,25
 137 499 137 499 173 499 c 0,26,27
 207 499 207 499 223.5 478.5 c 128,-1,28
 240 458 240 458 233 418 c 2,29,-1
 225 365 l 1,30,-1
 223 398 l 1,31,32
 248 448 248 448 293 474.5 c 128,-1,33
 338 501 338 501 399 501 c 0,34,35
 453 501 453 501 490 479 c 128,-1,36
 527 457 527 457 542.5 411 c 128,-1,37
 558 365 558 365 547 292 c 2,38,-1
 503 17 l 2,39,40
 493 -53 493 -53 466 -98 c 128,-1,41
 439 -143 439 -143 392.5 -165 c 128,-1,42
 346 -187 346 -187 273 -190 c 0,0,1
EndSplineSet
EndChar

StartChar: o
Encoding: 111 111 374
Width: 589
GlyphClass: 2
Flags: W
AnchorPoint: "Anchor-5" 295 246 basechar 0
AnchorPoint: "Anchor-3" 325 0 basechar 0
AnchorPoint: "Anchor-2" 260 0 basechar 0
AnchorPoint: "Anchor-1" 383 484 basechar 0
AnchorPoint: "Anchor-0" 333 484 basechar 0
LayerCount: 2
Fore
SplineSet
274 -11 m 0,0,1
 198 -11 198 -11 144 17 c 128,-1,2
 90 45 90 45 61.5 96 c 128,-1,3
 33 147 33 147 33 215 c 256,4,5
 33 283 33 283 55.5 336.5 c 128,-1,6
 78 390 78 390 117.5 426.5 c 128,-1,7
 157 463 157 463 207.5 482 c 128,-1,8
 258 501 258 501 314 501 c 0,9,10
 390 501 390 501 444 473.5 c 128,-1,11
 498 446 498 446 527 395 c 128,-1,12
 556 344 556 344 556 276 c 0,13,14
 556 207 556 207 533 154 c 128,-1,15
 510 101 510 101 470.5 64 c 128,-1,16
 431 27 431 27 380.5 8 c 128,-1,17
 330 -11 330 -11 274 -11 c 0,0,1
278 102 m 0,18,19
 318 102 318 102 345.5 125.5 c 128,-1,20
 373 149 373 149 388.5 189.5 c 128,-1,21
 404 230 404 230 404 281 c 0,22,23
 404 333 404 333 379 360.5 c 128,-1,24
 354 388 354 388 311 388 c 0,25,26
 272 388 272 388 243.5 365 c 128,-1,27
 215 342 215 342 200 301.5 c 128,-1,28
 185 261 185 261 185 210 c 0,29,30
 185 158 185 158 209.5 130 c 128,-1,31
 234 102 234 102 278 102 c 0,18,19
EndSplineSet
Substitution2: "Single Substitution lookup 29 subtable" ordmasculine
Substitution2: "'aalt' Access All Alternates lookup 0 subtable" ordmasculine
EndChar

StartChar: oslash
Encoding: 248 248 402
Width: 589
GlyphClass: 2
Flags: W
AnchorPoint: "Anchor-5" 295 246 basechar 0
AnchorPoint: "Anchor-0" 333 484 basechar 0
LayerCount: 2
Fore
SplineSet
275 -11 m 0,0,1
 199 -11 199 -11 145 17.5 c 128,-1,2
 91 46 91 46 62.5 97 c 128,-1,3
 34 148 34 148 34 215 c 0,4,5
 34 284 34 284 56.5 337 c 128,-1,6
 79 390 79 390 118.5 426.5 c 128,-1,7
 158 463 158 463 208.5 482 c 128,-1,8
 259 501 259 501 315 501 c 0,9,10
 391 501 391 501 445 473.5 c 128,-1,11
 499 446 499 446 527.5 395 c 128,-1,12
 556 344 556 344 556 276 c 0,13,14
 556 207 556 207 533.5 154 c 128,-1,15
 511 101 511 101 471.5 64 c 128,-1,16
 432 27 432 27 381.5 8 c 128,-1,17
 331 -11 331 -11 275 -11 c 0,0,1
281 93 m 0,18,19
 324 93 324 93 355 116.5 c 128,-1,20
 386 140 386 140 402.5 183 c 128,-1,21
 419 226 419 226 419 283 c 0,22,23
 419 339 419 339 391 368.5 c 128,-1,24
 363 398 363 398 308 398 c 0,25,26
 266 398 266 398 235 374.5 c 128,-1,27
 204 351 204 351 187 308 c 128,-1,28
 170 265 170 265 170 208 c 256,29,30
 170 151 170 151 198.5 122 c 128,-1,31
 227 93 227 93 281 93 c 0,18,19
139 -32 m 2,32,33
 128 -48 128 -48 112 -49 c 128,-1,34
 96 -50 96 -50 83.5 -40.5 c 128,-1,35
 71 -31 71 -31 68 -15 c 128,-1,36
 65 1 65 1 78 18 c 2,37,-1
 452 521 l 2,38,39
 464 538 464 538 479.5 538.5 c 128,-1,40
 495 539 495 539 507 529 c 128,-1,41
 519 519 519 519 522 503 c 128,-1,42
 525 487 525 487 512 470 c 2,43,-1
 139 -32 l 2,32,33
EndSplineSet
EndChar

StartChar: oe
Encoding: 339 339 408
Width: 918
GlyphClass: 2
Flags: W
AnchorPoint: "Anchor-2" 437 0 basechar 0
AnchorPoint: "Anchor-0" 515 484 basechar 0
LayerCount: 2
Fore
SplineSet
274 -11 m 0,0,1
 198 -11 198 -11 144 17.5 c 128,-1,2
 90 46 90 46 61.5 97 c 128,-1,3
 33 148 33 148 33 215 c 0,4,5
 33 284 33 284 55.5 337 c 128,-1,6
 78 390 78 390 117.5 426.5 c 128,-1,7
 157 463 157 463 207.5 482 c 128,-1,8
 258 501 258 501 314 501 c 0,9,10
 383 501 383 501 432 473.5 c 128,-1,11
 481 446 481 446 506 397 c 1,12,-1
 472 397 l 1,13,14
 507 444 507 444 560 472.5 c 128,-1,15
 613 501 613 501 679 501 c 0,16,17
 763 501 763 501 812 465.5 c 128,-1,18
 861 430 861 430 879 372.5 c 128,-1,19
 897 315 897 315 888 249 c 0,20,21
 884 226 884 226 874.5 219.5 c 128,-1,22
 865 213 865 213 848 213 c 2,23,-1
 524 213 l 1,24,-1
 535 291 l 1,25,-1
 785 291 l 1,26,-1
 769 277 l 1,27,28
 775 313 775 313 767 340.5 c 128,-1,29
 759 368 759 368 737.5 384.5 c 128,-1,30
 716 401 716 401 678 401 c 0,31,32
 641 401 641 401 616 384.5 c 128,-1,33
 591 368 591 368 576.5 340.5 c 128,-1,34
 562 313 562 313 557 280 c 2,35,-1
 551 243 l 2,36,37
 540 176 540 176 571.5 139.5 c 128,-1,38
 603 103 603 103 670 103 c 0,39,40
 697 103 697 103 726 108.5 c 128,-1,41
 755 114 755 114 780 126 c 0,42,43
 804 136 804 136 820 132.5 c 128,-1,44
 836 129 836 129 845 116.5 c 128,-1,45
 854 104 854 104 854 87 c 128,-1,46
 854 70 854 70 845 54 c 128,-1,47
 836 38 836 38 816 27 c 0,48,49
 781 8 781 8 737.5 -1.5 c 128,-1,50
 694 -11 694 -11 657 -11 c 0,51,52
 583 -11 583 -11 528.5 18.5 c 128,-1,53
 474 48 474 48 446 101 c 1,54,-1
 489 101 l 1,55,56
 452 48 452 48 396 18.5 c 128,-1,57
 340 -11 340 -11 274 -11 c 0,0,1
278 103 m 0,58,59
 318 103 318 103 345.5 126 c 128,-1,60
 373 149 373 149 388.5 189.5 c 128,-1,61
 404 230 404 230 404 281 c 0,62,63
 404 333 404 333 379 360.5 c 128,-1,64
 354 388 354 388 311 388 c 0,65,66
 272 388 272 388 243.5 365 c 128,-1,67
 215 342 215 342 200 301.5 c 128,-1,68
 185 261 185 261 185 210 c 0,69,70
 185 158 185 158 209.5 130.5 c 128,-1,71
 234 103 234 103 278 103 c 0,58,59
EndSplineSet
EndChar

StartChar: p
Encoding: 112 112 409
Width: 610
GlyphClass: 2
Flags: W
AnchorPoint: "Anchor-2" 265 0 basechar 0
AnchorPoint: "Anchor-0" 341 484 basechar 0
LayerCount: 2
Fore
SplineSet
66 -189 m 0,0,1
 31 -189 31 -189 14 -165.5 c 128,-1,2
 -3 -142 -3 -142 4 -101 c 2,3,-1
 87 423 l 2,4,5
 92 461 92 461 114 480 c 128,-1,6
 136 499 136 499 173 499 c 0,7,8
 208 499 208 499 223.5 476 c 128,-1,9
 239 453 239 453 233 411 c 2,10,-1
 225 367 l 1,11,-1
 225 406 l 1,12,13
 253 452 253 452 297 476.5 c 128,-1,14
 341 501 341 501 395 501 c 0,15,16
 450 501 450 501 491.5 475.5 c 128,-1,17
 533 450 533 450 555.5 402 c 128,-1,18
 578 354 578 354 578 289 c 0,19,20
 578 204 578 204 548 136 c 128,-1,21
 518 68 518 68 462.5 28.5 c 128,-1,22
 407 -11 407 -11 331 -11 c 0,23,24
 276 -11 276 -11 234.5 14.5 c 128,-1,25
 193 40 193 40 176 89 c 1,26,-1
 185 89 l 1,27,-1
 152 -116 l 2,28,29
 146 -153 146 -153 125 -171 c 128,-1,30
 104 -189 104 -189 66 -189 c 0,0,1
300 102 m 0,31,32
 340 102 340 102 368 125.5 c 128,-1,33
 396 149 396 149 411 189.5 c 128,-1,34
 426 230 426 230 426 281 c 0,35,36
 426 333 426 333 401.5 360.5 c 128,-1,37
 377 388 377 388 334 388 c 0,38,39
 294 388 294 388 266 365 c 128,-1,40
 238 342 238 342 223 301.5 c 128,-1,41
 208 261 208 261 208 210 c 0,42,43
 208 158 208 158 232.5 130 c 128,-1,44
 257 102 257 102 300 102 c 0,31,32
EndSplineSet
EndChar

StartChar: thorn
Encoding: 254 254 410
Width: 610
GlyphClass: 2
Flags: W
AnchorPoint: "Anchor-2" 268 0 basechar 0
AnchorPoint: "Anchor-0" 345 484 basechar 0
LayerCount: 2
Fore
SplineSet
66 -189 m 0,0,1
 31 -189 31 -189 14 -165.5 c 128,-1,2
 -3 -142 -3 -142 4 -101 c 2,3,-1
 121 637 l 2,4,5
 126 675 126 675 148 694.5 c 128,-1,6
 170 714 170 714 208 714 c 0,7,8
 243 714 243 714 259.5 691.5 c 128,-1,9
 276 669 276 669 270 627 c 2,10,-1
 229 367 l 1,11,-1
 226 406 l 1,12,13
 254 452 254 452 297.5 476.5 c 128,-1,14
 341 501 341 501 395 501 c 0,15,16
 450 501 450 501 491.5 475.5 c 128,-1,17
 533 450 533 450 555.5 402 c 128,-1,18
 578 354 578 354 578 289 c 0,19,20
 578 204 578 204 548 136 c 128,-1,21
 518 68 518 68 462.5 28.5 c 128,-1,22
 407 -11 407 -11 331 -11 c 0,23,24
 276 -11 276 -11 234.5 14.5 c 128,-1,25
 193 40 193 40 176 89 c 1,26,-1
 185 89 l 1,27,-1
 152 -116 l 2,28,29
 146 -153 146 -153 125 -171 c 128,-1,30
 104 -189 104 -189 66 -189 c 0,0,1
300 102 m 0,31,32
 340 102 340 102 368 125.5 c 128,-1,33
 396 149 396 149 411 189.5 c 128,-1,34
 426 230 426 230 426 281 c 0,35,36
 426 333 426 333 401.5 360.5 c 128,-1,37
 377 388 377 388 334 388 c 0,38,39
 294 388 294 388 266 365 c 128,-1,40
 238 342 238 342 223 301.5 c 128,-1,41
 208 261 208 261 208 210 c 0,42,43
 208 158 208 158 232.5 130 c 128,-1,44
 257 102 257 102 300 102 c 0,31,32
EndSplineSet
EndChar

StartChar: q
Encoding: 113 113 411
Width: 610
GlyphClass: 2
Flags: W
AnchorPoint: "Anchor-2" 269 0 basechar 0
AnchorPoint: "Anchor-0" 345 484 basechar 0
LayerCount: 2
Fore
SplineSet
407 -189 m 0,0,1
 372 -189 372 -189 356 -165.5 c 128,-1,2
 340 -142 340 -142 346 -101 c 2,3,-1
 375 85 l 1,4,-1
 385 85 l 1,5,6
 357 41 357 41 313 15 c 128,-1,7
 269 -11 269 -11 215 -11 c 0,8,9
 160 -11 160 -11 118.5 15.5 c 128,-1,10
 77 42 77 42 54.5 89.5 c 128,-1,11
 32 137 32 137 32 202 c 0,12,13
 32 288 32 288 62 355.5 c 128,-1,14
 92 423 92 423 148 462 c 128,-1,15
 204 501 204 501 281 501 c 0,16,17
 334 501 334 501 375.5 475.5 c 128,-1,18
 417 450 417 450 434 401 c 1,19,-1
 425 369 l 1,20,-1
 433 425 l 2,21,22
 439 462 439 462 458.5 480.5 c 128,-1,23
 478 499 478 499 516 499 c 0,24,25
 551 499 551 499 567.5 476 c 128,-1,26
 584 453 584 453 578 411 c 2,27,-1
 495 -112 l 2,28,29
 489 -150 489 -150 467 -169.5 c 128,-1,30
 445 -189 445 -189 407 -189 c 0,0,1
276 102 m 0,31,32
 316 102 316 102 344 126 c 128,-1,33
 372 150 372 150 387 190 c 128,-1,34
 402 230 402 230 402 281 c 0,35,36
 402 333 402 333 377.5 360.5 c 128,-1,37
 353 388 353 388 310 388 c 0,38,39
 270 388 270 388 242 365 c 128,-1,40
 214 342 214 342 199 301.5 c 128,-1,41
 184 261 184 261 184 210 c 0,42,43
 184 158 184 158 208.5 130 c 128,-1,44
 233 102 233 102 276 102 c 0,31,32
EndSplineSet
EndChar

StartChar: r
Encoding: 114 114 412
Width: 412
GlyphClass: 2
Flags: W
AnchorPoint: "Anchor-2" 97 0 basechar 0
AnchorPoint: "Anchor-0" 270 485 basechar 0
LayerCount: 2
Fore
SplineSet
95 -9 m 0,0,1
 58 -9 58 -9 41.5 13.5 c 128,-1,2
 25 36 25 36 32 76 c 2,3,-1
 87 427 l 2,4,5
 93 463 93 463 114.5 481 c 128,-1,6
 136 499 136 499 171 499 c 0,7,8
 207 499 207 499 223 477.5 c 128,-1,9
 239 456 239 456 233 415 c 2,10,-1
 225 371 l 1,11,-1
 216 371 l 1,12,13
 235 430 235 430 280.5 464 c 128,-1,14
 326 498 326 498 386 501 c 0,15,16
 416 502 416 502 428 490.5 c 128,-1,17
 440 479 440 479 440 452 c 0,18,19
 440 412 440 412 421.5 393 c 128,-1,20
 403 374 403 374 365 370 c 2,21,-1
 332 367 l 2,22,23
 273 361 273 361 247 331.5 c 128,-1,24
 221 302 221 302 212 246 c 2,25,-1
 183 64 l 2,26,27
 178 27 178 27 155.5 9 c 128,-1,28
 133 -9 133 -9 95 -9 c 0,0,1
EndSplineSet
EndChar

StartChar: s
Encoding: 115 115 420
Width: 492
GlyphClass: 2
Flags: W
AnchorPoint: "Anchor-2" 221 0 basechar 0
AnchorPoint: "Anchor-0" 279 484 basechar 0
LayerCount: 2
Fore
SplineSet
228 -11 m 0,0,1
 181 -11 181 -11 137 -2 c 128,-1,2
 93 7 93 7 60 21 c 0,3,4
 37 31 37 31 27.5 47 c 128,-1,5
 18 63 18 63 19.5 80 c 128,-1,6
 21 97 21 97 30.5 110 c 128,-1,7
 40 123 40 123 57 127.5 c 128,-1,8
 74 132 74 132 95 123 c 0,9,10
 127 108 127 108 161 100.5 c 128,-1,11
 195 93 195 93 227 93 c 0,12,13
 270 93 270 93 291.5 108 c 128,-1,14
 313 123 313 123 313 146 c 0,15,16
 313 163 313 163 301.5 173.5 c 128,-1,17
 290 184 290 184 265 188 c 2,18,-1
 174 205 l 2,19,20
 116 215 116 215 84 248.5 c 128,-1,21
 52 282 52 282 52 333 c 0,22,23
 52 378 52 378 78.5 416.5 c 128,-1,24
 105 455 105 455 157 478 c 128,-1,25
 209 501 209 501 285 501 c 0,26,27
 318 501 318 501 357 493 c 128,-1,28
 396 485 396 485 426 470 c 0,29,30
 448 460 448 460 457 444 c 128,-1,31
 466 428 466 428 464.5 412 c 128,-1,32
 463 396 463 396 452.5 383.5 c 128,-1,33
 442 371 442 371 425 367.5 c 128,-1,34
 408 364 408 364 386 373 c 0,35,36
 362 385 362 385 333.5 391.5 c 128,-1,37
 305 398 305 398 277 398 c 0,38,39
 232 398 232 398 209.5 382 c 128,-1,40
 187 366 187 366 187 341 c 0,41,42
 187 327 187 327 196.5 316.5 c 128,-1,43
 206 306 206 306 228 302 c 2,44,-1
 318 285 l 2,45,46
 382 273 382 273 415 240.5 c 128,-1,47
 448 208 448 208 448 157 c 0,48,49
 448 76 448 76 387.5 32.5 c 128,-1,50
 327 -11 327 -11 228 -11 c 0,0,1
EndSplineSet
EndChar

StartChar: germandbls
Encoding: 223 223 431
Width: 676
GlyphClass: 1
Flags: W
LayerCount: 2
Fore
SplineSet
429 -11 m 0,0,1
 387 -11 387 -11 344.5 -1 c 128,-1,2
 302 9 302 9 270 26 c 0,3,4
 249 37 249 37 241.5 53.5 c 128,-1,5
 234 70 234 70 236.5 87.5 c 128,-1,6
 239 105 239 105 249.5 118.5 c 128,-1,7
 260 132 260 132 276.5 136.5 c 128,-1,8
 293 141 293 141 313 130 c 0,9,10
 343 115 343 115 374.5 107.5 c 128,-1,11
 406 100 406 100 434 100 c 0,12,13
 468 100 468 100 487 111.5 c 128,-1,14
 506 123 506 123 506 147 c 0,15,16
 506 165 506 165 489 179 c 128,-1,17
 472 193 472 193 426 208 c 0,18,19
 363 230 363 230 335.5 260.5 c 128,-1,20
 308 291 308 291 308 332 c 0,21,22
 308 362 308 362 317.5 386 c 128,-1,23
 327 410 327 410 346.5 433 c 128,-1,24
 366 456 366 456 397 481 c 0,25,26
 420 500 420 500 433 517.5 c 128,-1,27
 446 535 446 535 446 559 c 0,28,29
 446 578 446 578 432 593 c 128,-1,30
 418 608 418 608 386 608 c 0,31,32
 326 608 326 608 291.5 576 c 128,-1,33
 257 544 257 544 246 475 c 2,34,-1
 181 62 l 2,35,36
 176 27 176 27 155 9 c 128,-1,37
 134 -9 134 -9 99 -9 c 0,38,39
 61 -9 61 -9 43.5 13 c 128,-1,40
 26 35 26 35 32 74 c 2,41,-1
 91 451 l 2,42,43
 112 584 112 584 183 650 c 128,-1,44
 254 716 254 716 390 716 c 0,45,46
 451 716 451 716 495 697 c 128,-1,47
 539 678 539 678 563 646.5 c 128,-1,48
 587 615 587 615 587 577 c 0,49,50
 587 534 587 534 567.5 503.5 c 128,-1,51
 548 473 548 473 511 440 c 0,52,53
 486 418 486 418 471.5 404 c 128,-1,54
 457 390 457 390 451 379.5 c 128,-1,55
 445 369 445 369 445 358 c 0,56,57
 445 341 445 341 462 327.5 c 128,-1,58
 479 314 479 314 523 299 c 0,59,60
 581 279 581 279 611.5 247 c 128,-1,61
 642 215 642 215 642 162 c 0,62,63
 642 106 642 106 615 67.5 c 128,-1,64
 588 29 588 29 540 9 c 128,-1,65
 492 -11 492 -11 429 -11 c 0,0,1
EndSplineSet
Substitution2: "Single Substitution lookup 39 subtable" germandbls.calt
Substitution2: "Single Substitution lookup 38 subtable" germandbls.calt
Substitution2: "'aalt' Access All Alternates lookup 0 subtable" germandbls.calt
EndChar

StartChar: t
Encoding: 116 116 432
Width: 404
GlyphClass: 2
Flags: W
AnchorPoint: "Anchor-5" 190 257 basechar 0
AnchorPoint: "Anchor-2" 209 0 basechar 0
AnchorPoint: "Anchor-1" 367 705 basechar 0
AnchorPoint: "Anchor-0" 229 635 basechar 0
LayerCount: 2
Fore
SplineSet
270 -11 m 0,0,1
 199 -11 199 -11 154.5 15 c 128,-1,2
 110 41 110 41 92 86.5 c 128,-1,3
 74 132 74 132 84 191 c 2,4,-1
 114 378 l 1,5,-1
 80 378 l 2,6,7
 52 378 52 378 36 390.5 c 128,-1,8
 20 403 20 403 20 426 c 0,9,10
 20 457 20 457 40.5 474 c 128,-1,11
 61 491 61 491 95 491 c 2,12,-1
 131 491 l 1,13,-1
 145 574 l 2,14,15
 151 609 151 609 171 626.5 c 128,-1,16
 191 644 191 644 226 644 c 0,17,18
 265 644 265 644 282 622 c 128,-1,19
 299 600 299 600 293 561 c 2,20,-1
 282 491 l 1,21,-1
 368 491 l 2,22,23
 397 491 397 491 413 479 c 128,-1,24
 429 467 429 467 429 444 c 0,25,26
 429 416 429 416 410.5 397 c 128,-1,27
 392 378 392 378 360 378 c 2,28,-1
 265 378 l 1,29,-1
 236 199 l 2,30,31
 228 152 228 152 247 132 c 128,-1,32
 266 112 266 112 300 112 c 0,33,34
 317 112 317 112 327 114.5 c 128,-1,35
 337 117 337 117 348 117 c 0,36,37
 364 117 364 117 371.5 108.5 c 128,-1,38
 379 100 379 100 379 76 c 0,39,40
 379 34 379 34 365.5 18 c 128,-1,41
 352 2 352 2 329 -3 c 0,42,43
 316 -7 316 -7 300 -9 c 128,-1,44
 284 -11 284 -11 270 -11 c 0,0,1
EndSplineSet
EndChar

StartChar: u
Encoding: 117 117 440
Width: 590
GlyphClass: 2
Flags: W
AnchorPoint: "Anchor-3" 445 0 basechar 0
AnchorPoint: "Anchor-2" 256 0 basechar 0
AnchorPoint: "Anchor-1" 456 484 basechar 0
AnchorPoint: "Anchor-0" 330 485 basechar 0
LayerCount: 2
Fore
SplineSet
195 -11 m 0,0,1
 143 -11 143 -11 106 11.5 c 128,-1,2
 69 34 69 34 53 80.5 c 128,-1,3
 37 127 37 127 49 199 c 2,4,-1
 86 429 l 2,5,6
 91 465 91 465 112 482 c 128,-1,7
 133 499 133 499 168 499 c 0,8,9
 206 499 206 499 223 478 c 128,-1,10
 240 457 240 457 235 416 c 2,11,-1
 201 201 l 2,12,13
 194 154 194 154 208 130.5 c 128,-1,14
 222 107 222 107 260 107 c 0,15,16
 308 107 308 107 338.5 139.5 c 128,-1,17
 369 172 369 172 378 229 c 2,18,-1
 410 429 l 2,19,20
 416 465 416 465 436 482 c 128,-1,21
 456 499 456 499 491 499 c 0,22,23
 530 499 530 499 547 477.5 c 128,-1,24
 564 456 564 456 558 416 c 2,25,-1
 503 62 l 2,26,27
 492 -9 492 -9 421 -9 c 0,28,29
 386 -9 386 -9 369.5 10 c 128,-1,30
 353 29 353 29 358 69 c 2,31,-1
 367 132 l 1,32,-1
 370 96 l 1,33,34
 344 43 344 43 298.5 16 c 128,-1,35
 253 -11 253 -11 195 -11 c 0,0,1
EndSplineSet
EndChar

StartChar: uhorn
Encoding: 432 432 450
Width: 590
GlyphClass: 2
Flags: W
AnchorPoint: "Anchor-2" 256 0 basechar 0
AnchorPoint: "Anchor-0" 330 485 basechar 0
LayerCount: 2
Fore
SplineSet
195 -11 m 0,0,1
 143 -11 143 -11 106 11.5 c 128,-1,2
 69 34 69 34 53 80.5 c 128,-1,3
 37 127 37 127 49 199 c 2,4,-1
 86 429 l 2,5,6
 91 464 91 464 112 481.5 c 128,-1,7
 133 499 133 499 168 499 c 0,8,9
 206 499 206 499 223 477.5 c 128,-1,10
 240 456 240 456 235 416 c 2,11,-1
 201 201 l 2,12,13
 194 154 194 154 208 130.5 c 128,-1,14
 222 107 222 107 260 107 c 0,15,16
 308 107 308 107 338.5 139.5 c 128,-1,17
 369 172 369 172 378 229 c 2,18,-1
 409 426 l 2,19,20
 415 461 415 461 434.5 477 c 128,-1,21
 454 493 454 493 483 495 c 0,22,23
 507 497 507 497 521.5 507 c 128,-1,24
 536 517 536 517 544.5 535 c 128,-1,25
 553 553 553 553 558 578 c 0,26,27
 566 625 566 625 630 625 c 0,28,29
 661 625 661 625 677 612 c 128,-1,30
 693 599 693 599 689 575 c 0,31,32
 681 519 681 519 648 476.5 c 128,-1,33
 615 434 615 434 559 422 c 1,34,-1
 503 62 l 2,35,36
 492 -9 492 -9 421 -9 c 0,37,38
 386 -9 386 -9 369.5 10 c 128,-1,39
 353 29 353 29 358 69 c 2,40,-1
 367 132 l 1,41,-1
 370 96 l 1,42,43
 344 43 344 43 298.5 16 c 128,-1,44
 253 -11 253 -11 195 -11 c 0,0,1
EndSplineSet
EndChar

StartChar: uogonek
Encoding: 371 371 460
Width: 590
GlyphClass: 1
Flags: W
LayerCount: 2
Fore
SplineSet
367 132 m 1,0,-1
 370 96 l 1,1,2
 344 43 344 43 298.5 16 c 128,-1,3
 253 -11 253 -11 195 -11 c 0,4,5
 143 -11 143 -11 106 11.5 c 128,-1,6
 69 34 69 34 53 80.5 c 128,-1,7
 37 127 37 127 49 199 c 2,8,-1
 86 429 l 2,9,10
 91 464 91 464 112 481.5 c 128,-1,11
 133 499 133 499 168 499 c 0,12,13
 206 499 206 499 223 477.5 c 128,-1,14
 240 456 240 456 235 416 c 2,15,-1
 201 201 l 2,16,17
 194 154 194 154 208 130.5 c 128,-1,18
 222 107 222 107 260 107 c 0,19,20
 308 107 308 107 338.5 139.5 c 128,-1,21
 369 172 369 172 378 229 c 2,22,-1
 410 429 l 2,23,24
 416 464 416 464 436 481.5 c 128,-1,25
 456 499 456 499 491 499 c 0,26,27
 530 499 530 499 547 477 c 128,-1,28
 564 455 564 455 558 416 c 2,29,-1
 503 64 l 2,30,31
 498 32 498 32 483.5 16.5 c 128,-1,32
 469 1 469 1 442 -7 c 0,33,34
 412 -15 412 -15 397 -34 c 128,-1,35
 382 -53 382 -53 382 -76 c 0,36,37
 382 -95 382 -95 396 -107.5 c 128,-1,38
 410 -120 410 -120 432 -120 c 0,39,40
 439 -120 439 -120 447 -119 c 128,-1,41
 455 -118 455 -118 465 -115 c 0,42,43
 483 -110 483 -110 493 -118.5 c 128,-1,44
 503 -127 503 -127 504.5 -141 c 128,-1,45
 506 -155 506 -155 499 -167.5 c 128,-1,46
 492 -180 492 -180 478 -186 c 0,47,48
 463 -191 463 -191 443.5 -194 c 128,-1,49
 424 -197 424 -197 406 -197 c 0,50,51
 348 -197 348 -197 319.5 -170 c 128,-1,52
 291 -143 291 -143 291 -101 c 0,53,54
 291 -60 291 -60 312.5 -27 c 128,-1,55
 334 6 334 6 373 29 c 1,56,-1
 365 16 l 1,57,58
 359 27 359 27 357.5 40 c 128,-1,59
 356 53 356 53 358 71 c 2,60,-1
 367 132 l 1,0,-1
EndSplineSet
EndChar

StartChar: v
Encoding: 118 118 464
Width: 534
GlyphClass: 2
Flags: W
AnchorPoint: "Anchor-2" 230 0 basechar 0
AnchorPoint: "Anchor-0" 306 484 basechar 0
LayerCount: 2
Fore
SplineSet
234 -9 m 0,0,1
 198 -9 198 -9 177 8.5 c 128,-1,2
 156 26 156 26 147 60 c 2,3,-1
 54 397 l 2,4,5
 45 427 45 427 51 450 c 128,-1,6
 57 473 57 473 75 486 c 128,-1,7
 93 499 93 499 121 499 c 0,8,9
 152 499 152 499 169 484 c 128,-1,10
 186 469 186 469 194 431 c 2,11,-1
 262 139 l 1,12,-1
 231 139 l 1,13,-1
 405 447 l 2,14,15
 421 476 421 476 439.5 487.5 c 128,-1,16
 458 499 458 499 487 499 c 0,17,18
 515 499 515 499 531 486.5 c 128,-1,19
 547 474 547 474 548.5 453.5 c 128,-1,20
 550 433 550 433 536 409 c 2,21,-1
 319 46 l 2,22,23
 301 17 301 17 280.5 4 c 128,-1,24
 260 -9 260 -9 234 -9 c 0,0,1
EndSplineSet
EndChar

StartChar: w
Encoding: 119 119 465
Width: 861
GlyphClass: 2
Flags: W
AnchorPoint: "Anchor-2" 390 0 basechar 0
AnchorPoint: "Anchor-0" 456 484 basechar 0
LayerCount: 2
Fore
SplineSet
221 -9 m 0,0,1
 191 -9 191 -9 171 7.5 c 128,-1,2
 151 24 151 24 142 59 c 2,3,-1
 59 397 l 2,4,5
 51 428 51 428 57.5 450.5 c 128,-1,6
 64 473 64 473 82 486 c 128,-1,7
 100 499 100 499 127 499 c 0,8,9
 155 499 155 499 170 484.5 c 128,-1,10
 185 470 185 470 193 434 c 2,11,-1
 254 146 l 1,12,-1
 229 146 l 1,13,-1
 395 457 l 2,14,15
 407 480 407 480 422.5 489.5 c 128,-1,16
 438 499 438 499 463 499 c 0,17,18
 486 499 486 499 501 486.5 c 128,-1,19
 516 474 516 474 522 447 c 2,20,-1
 585 146 l 1,21,-1
 567 146 l 1,22,-1
 724 443 l 2,23,24
 741 474 741 474 759 486.5 c 128,-1,25
 777 499 777 499 807 499 c 0,26,27
 836 499 836 499 851.5 486.5 c 128,-1,28
 867 474 867 474 868 454 c 128,-1,29
 869 434 869 434 856 409 c 2,30,-1
 652 46 l 2,31,32
 637 18 637 18 615 4.5 c 128,-1,33
 593 -9 593 -9 563 -9 c 0,34,35
 534 -9 534 -9 513.5 8 c 128,-1,36
 493 25 493 25 484 59 c 2,37,-1
 414 364 l 1,38,-1
 479 364 l 1,39,-1
 310 48 l 2,40,41
 295 19 295 19 273.5 5 c 128,-1,42
 252 -9 252 -9 221 -9 c 0,0,1
EndSplineSet
EndChar

StartChar: x
Encoding: 120 120 470
Width: 559
GlyphClass: 2
Flags: W
AnchorPoint: "Anchor-2" 240 0 basechar 0
AnchorPoint: "Anchor-0" 316 484 basechar 0
LayerCount: 2
Fore
SplineSet
79 -9 m 0,0,1
 48 -9 48 -9 31.5 7 c 128,-1,2
 15 23 15 23 16 46.5 c 128,-1,3
 17 70 17 70 37 92 c 2,4,-1
 219 280 l 1,5,-1
 218 219 l 1,6,-1
 100 399 l 2,7,8
 84 425 84 425 87 447.5 c 128,-1,9
 90 470 90 470 107.5 484.5 c 128,-1,10
 125 499 125 499 152 499 c 256,11,12
 179 499 179 499 198 487.5 c 128,-1,13
 217 476 217 476 232 452 c 2,14,-1
 313 322 l 1,15,-1
 271 322 l 1,16,-1
 394 460 l 2,17,18
 413 480 413 480 429.5 489.5 c 128,-1,19
 446 499 446 499 472 499 c 0,20,21
 504 499 504 499 520 483.5 c 128,-1,22
 536 468 536 468 535 445 c 128,-1,23
 534 422 534 422 514 400 c 2,24,-1
 343 219 l 1,25,-1
 344 287 l 1,26,-1
 473 93 l 2,27,28
 490 68 490 68 486.5 44.5 c 128,-1,29
 483 21 483 21 465 6 c 128,-1,30
 447 -9 447 -9 420 -9 c 0,31,32
 396 -9 396 -9 376 3 c 128,-1,33
 356 15 356 15 341 38 c 2,34,-1
 250 181 l 1,35,-1
 298 180 l 1,36,-1
 156 31 l 2,37,38
 137 11 137 11 121 1 c 128,-1,39
 105 -9 105 -9 79 -9 c 0,0,1
EndSplineSet
EndChar

StartChar: y
Encoding: 121 121 471
Width: 533
GlyphClass: 2
Flags: W
AnchorPoint: "Anchor-2" 384 0 basechar 0
AnchorPoint: "Anchor-0" 290 484 basechar 0
LayerCount: 2
Fore
SplineSet
127 -189 m 256,0,1
 98 -189 98 -189 82.5 -176 c 128,-1,2
 67 -163 67 -163 65.5 -142.5 c 128,-1,3
 64 -122 64 -122 79 -98 c 2,4,-1
 174 57 l 1,5,-1
 164 -5 l 1,6,-1
 53 397 l 2,7,8
 45 427 45 427 51 450 c 128,-1,9
 57 473 57 473 75 486 c 128,-1,10
 93 499 93 499 121 499 c 0,11,12
 152 499 152 499 168 484 c 128,-1,13
 184 469 184 469 192 431 c 2,14,-1
 262 139 l 1,15,-1
 229 139 l 1,16,-1
 404 445 l 2,17,18
 420 474 420 474 438 486.5 c 128,-1,19
 456 499 456 499 485 499 c 256,20,21
 514 499 514 499 530 486 c 128,-1,22
 546 473 546 473 548 452.5 c 128,-1,23
 550 432 550 432 536 408 c 2,24,-1
 209 -135 l 2,25,26
 192 -164 192 -164 174 -176.5 c 128,-1,27
 156 -189 156 -189 127 -189 c 256,0,1
EndSplineSet
EndChar

StartChar: uni01B4
Encoding: 436 436 478
Width: 583
GlyphClass: 1
Flags: W
LayerCount: 2
Fore
SplineSet
127 -189 m 256,0,1
 98 -189 98 -189 82.5 -176 c 128,-1,2
 67 -163 67 -163 65.5 -142.5 c 128,-1,3
 64 -122 64 -122 79 -98 c 2,4,-1
 174 57 l 1,5,-1
 164 -5 l 1,6,-1
 53 397 l 2,7,8
 45 427 45 427 51 450 c 128,-1,9
 57 473 57 473 75 486 c 128,-1,10
 93 499 93 499 121 499 c 0,11,12
 152 499 152 499 168 484 c 128,-1,13
 184 469 184 469 192 431 c 2,14,-1
 262 139 l 1,15,-1
 229 139 l 1,16,-1
 361 371 l 2,17,18
 388 420 388 420 416 448.5 c 128,-1,19
 444 477 444 477 480 489 c 128,-1,20
 516 501 516 501 566 501 c 0,21,22
 617 501 617 501 635.5 487 c 128,-1,23
 654 473 654 473 654 446 c 0,24,25
 654 422 654 422 644 402 c 128,-1,26
 634 382 634 382 617 382 c 0,27,28
 612 382 612 382 600 383 c 128,-1,29
 588 384 588 384 576 384 c 0,30,31
 550 384 550 384 526.5 369.5 c 128,-1,32
 503 355 503 355 480 317 c 2,33,-1
 209 -135 l 2,34,35
 192 -164 192 -164 174 -176.5 c 128,-1,36
 156 -189 156 -189 127 -189 c 256,0,1
EndSplineSet
EndChar

StartChar: z
Encoding: 122 122 482
Width: 480
GlyphClass: 2
Flags: W
AnchorPoint: "Anchor-2" 214 0 basechar 0
AnchorPoint: "Anchor-0" 281 484 basechar 0
LayerCount: 2
Fore
SplineSet
77 0 m 2,0,1
 52 0 52 0 36 10 c 128,-1,2
 20 20 20 20 14 37 c 128,-1,3
 8 54 8 54 13.5 74 c 128,-1,4
 19 94 19 94 38 113 c 2,5,-1
 328 413 l 1,6,-1
 332 378 l 1,7,-1
 126 378 l 2,8,9
 97 378 97 378 81.5 390.5 c 128,-1,10
 66 403 66 403 66 424 c 0,11,12
 66 455 66 455 84.5 473 c 128,-1,13
 103 491 103 491 133 491 c 2,14,-1
 414 491 l 2,15,16
 439 491 439 491 455.5 480.5 c 128,-1,17
 472 470 472 470 477 453 c 128,-1,18
 482 436 482 436 475.5 415 c 128,-1,19
 469 394 469 394 450 374 c 2,20,-1
 158 73 l 1,21,-1
 154 112 l 1,22,-1
 376 112 l 2,23,24
 435 112 435 112 435 66 c 0,25,26
 435 36 435 36 417 18 c 128,-1,27
 399 0 399 0 368 0 c 2,28,-1
 77 0 l 2,0,1
EndSplineSet
EndChar

StartChar: germandbls.calt
Encoding: 65540 -1 487
Width: 741
GlyphClass: 1
Flags: W
LayerCount: 2
Fore
SplineSet
436 -11 m 0,0,1
 395 -11 395 -11 358 -2 c 128,-1,2
 321 7 321 7 287 25 c 0,3,4
 267 35 267 35 259.5 52 c 128,-1,5
 252 69 252 69 254.5 87 c 128,-1,6
 257 105 257 105 268 119 c 128,-1,7
 279 133 279 133 296 138.5 c 128,-1,8
 313 144 313 144 334 135 c 0,9,10
 360 122 360 122 383.5 117.5 c 128,-1,11
 407 113 407 113 431 113 c 0,12,13
 481 113 481 113 509 140 c 128,-1,14
 537 167 537 167 537 210 c 0,15,16
 537 247 537 247 510 270 c 128,-1,17
 483 293 483 293 424 293 c 2,18,-1
 377 293 l 2,19,20
 356 293 356 293 342 305.5 c 128,-1,21
 328 318 328 318 328 339 c 0,22,23
 328 373 328 373 343 392.5 c 128,-1,24
 358 412 358 412 389 412 c 2,25,-1
 433 412 l 2,26,27
 488 412 488 412 517.5 435.5 c 128,-1,28
 547 459 547 459 547 509 c 0,29,30
 547 544 547 544 516 567.5 c 128,-1,31
 485 591 485 591 425 591 c 0,32,33
 347 591 347 591 308 554.5 c 128,-1,34
 269 518 269 518 257 443 c 2,35,-1
 197 65 l 2,36,37
 192 29 192 29 170.5 10 c 128,-1,38
 149 -9 149 -9 112 -9 c 0,39,40
 74 -9 74 -9 56 13.5 c 128,-1,41
 38 36 38 36 44 77 c 2,42,-1
 104 458 l 2,43,44
 119 553 119 553 162 609 c 128,-1,45
 205 665 205 665 274.5 690.5 c 128,-1,46
 344 716 344 716 438 716 c 0,47,48
 523 716 523 716 580 690.5 c 128,-1,49
 637 665 637 665 666.5 623 c 128,-1,50
 696 581 696 581 696 531 c 0,51,52
 696 466 696 466 653.5 416.5 c 128,-1,53
 611 367 611 367 542 352 c 1,54,-1
 542 368 l 1,55,56
 588 360 588 360 620 335 c 128,-1,57
 652 310 652 310 668.5 274 c 128,-1,58
 685 238 685 238 685 197 c 0,59,60
 685 141 685 141 656.5 93.5 c 128,-1,61
 628 46 628 46 572.5 17.5 c 128,-1,62
 517 -11 517 -11 436 -11 c 0,0,1
EndSplineSet
EndChar

StartChar: a.ss01
Encoding: 65542 -1 489
Width: 610
GlyphClass: 2
Flags: W
AnchorPoint: "Anchor-3" 466 0 basechar 0
AnchorPoint: "Anchor-2" 272 0 basechar 0
AnchorPoint: "Anchor-0" 332 484 basechar 0
LayerCount: 2
Fore
SplineSet
215 -11 m 256,0,1
 160 -11 160 -11 118.5 15.5 c 128,-1,2
 77 42 77 42 54.5 89.5 c 128,-1,3
 32 137 32 137 32 202 c 0,4,5
 32 288 32 288 62 355.5 c 128,-1,6
 92 423 92 423 148 462 c 128,-1,7
 204 501 204 501 279 501 c 0,8,9
 334 501 334 501 376 475 c 128,-1,10
 418 449 418 449 434 400 c 1,11,-1
 424 371 l 1,12,-1
 432 424 l 2,13,14
 438 461 438 461 460 480 c 128,-1,15
 482 499 482 499 518 499 c 0,16,17
 553 499 553 499 569 476.5 c 128,-1,18
 585 454 585 454 578 412 c 2,19,-1
 523 66 l 2,20,21
 518 29 518 29 496 10 c 128,-1,22
 474 -9 474 -9 437 -9 c 0,23,24
 402 -9 402 -9 386.5 15 c 128,-1,25
 371 39 371 39 378 80 c 2,26,-1
 385 125 l 1,27,-1
 384 85 l 1,28,29
 357 41 357 41 313.5 15 c 128,-1,30
 270 -11 270 -11 215 -11 c 256,0,1
276 102 m 0,31,32
 316 102 316 102 344 125.5 c 128,-1,33
 372 149 372 149 387 189.5 c 128,-1,34
 402 230 402 230 402 281 c 0,35,36
 402 333 402 333 377.5 360.5 c 128,-1,37
 353 388 353 388 310 388 c 0,38,39
 270 388 270 388 242 365 c 128,-1,40
 214 342 214 342 199 301.5 c 128,-1,41
 184 261 184 261 184 210 c 0,42,43
 184 158 184 158 208.5 130 c 128,-1,44
 233 102 233 102 276 102 c 0,31,32
EndSplineSet
EndChar

StartChar: l.ss02
Encoding: 65569 -1 516
Width: 267
GlyphClass: 2
Flags: W
AnchorPoint: "Anchor-5" 152 357 basechar 0
AnchorPoint: "Anchor-2" 95 0 basechar 0
AnchorPoint: "Anchor-1" 319 705 basechar 0
AnchorPoint: "Anchor-0" 206 705 basechar 0
LayerCount: 2
Fore
SplineSet
93 -9 m 0,0,1
 58 -9 58 -9 41.5 14.5 c 128,-1,2
 25 38 25 38 32 79 c 2,3,-1
 120 638 l 2,4,5
 126 676 126 676 148 695 c 128,-1,6
 170 714 170 714 207 714 c 0,7,8
 243 714 243 714 259.5 691.5 c 128,-1,9
 276 669 276 669 270 626 c 2,10,-1
 180 64 l 2,11,12
 168 -9 168 -9 93 -9 c 0,0,1
EndSplineSet
EndChar

StartChar: fi
Encoding: 64257 64257 525
Width: 642
GlyphClass: 3
LigCaretCntFixed: 1
Flags: W
LayerCount: 2
Fore
SplineSet
132 -9 m 0,0,1
 96 -9 96 -9 80 14.5 c 128,-1,2
 64 38 64 38 70 79 c 2,3,-1
 118 378 l 1,4,-1
 86 378 l 2,5,6
 58 378 58 378 43 390 c 128,-1,7
 28 402 28 402 28 424 c 0,8,9
 28 455 28 455 46 473 c 128,-1,10
 64 491 64 491 95 491 c 2,11,-1
 150 491 l 1,12,-1
 133 476 l 1,13,-1
 138 506 l 2,14,15
 151 595 151 595 208.5 647 c 128,-1,16
 266 699 266 699 376 706 c 2,17,-1
 403 708 l 2,18,19
 427 709 427 709 440 698.5 c 128,-1,20
 453 688 453 688 457.5 672.5 c 128,-1,21
 462 657 462 657 457.5 640.5 c 128,-1,22
 453 624 453 624 442 612 c 128,-1,23
 431 600 431 600 413 599 c 2,24,-1
 387 597 l 2,25,26
 343 593 343 593 319.5 572 c 128,-1,27
 296 551 296 551 289 511 c 2,28,-1
 284 479 l 1,29,-1
 274 491 l 1,30,-1
 547 491 l 2,31,32
 582 491 582 491 599 472.5 c 128,-1,33
 616 454 616 454 610 416 c 2,34,-1
 554 66 l 2,35,36
 549 29 549 29 527.5 10 c 128,-1,37
 506 -9 506 -9 467 -9 c 0,38,39
 432 -9 432 -9 415.5 14.5 c 128,-1,40
 399 38 399 38 405 79 c 2,41,-1
 453 378 l 1,42,-1
 269 378 l 1,43,-1
 219 66 l 2,44,45
 206 -9 206 -9 132 -9 c 0,0,1
565 581 m 0,46,47
 528 581 528 581 509 600 c 128,-1,48
 490 619 490 619 495 654 c 0,49,50
 500 692 500 692 524 712 c 128,-1,51
 548 732 548 732 590 732 c 0,52,53
 628 732 628 732 647.5 712.5 c 128,-1,54
 667 693 667 693 661 658 c 0,55,56
 656 620 656 620 632 600.5 c 128,-1,57
 608 581 608 581 565 581 c 0,46,47
EndSplineSet
Ligature2: "'liga' Standard Ligatures lookup 33 subtable" f i
LCarets2: 1 321
EndChar

StartChar: ordfeminine
Encoding: 170 170 529
Width: 346
GlyphClass: 1
Flags: W
LayerCount: 2
Fore
SplineSet
163 406 m 0,0,1
 119 406 119 406 89.5 434.5 c 128,-1,2
 60 463 60 463 60 500 c 0,3,4
 60 546 60 546 106 568 c 128,-1,5
 152 590 152 590 237 590 c 2,6,-1
 293 590 l 1,7,-1
 285 541 l 1,8,-1
 239 541 l 2,9,10
 197 541 197 541 176 532.5 c 128,-1,11
 155 524 155 524 155 506 c 0,12,13
 155 489 155 489 166.5 479 c 128,-1,14
 178 469 178 469 197 469 c 0,15,16
 215 469 215 469 230 477 c 128,-1,17
 245 485 245 485 255.5 498 c 128,-1,18
 266 511 266 511 269 528 c 2,19,-1
 280 596 l 2,20,21
 284 621 284 621 271 633 c 128,-1,22
 258 645 258 645 228 645 c 0,23,24
 211 645 211 645 191 642 c 128,-1,25
 171 639 171 639 154 633 c 0,26,27
 135 627 135 627 123 634 c 128,-1,28
 111 641 111 641 107.5 654 c 128,-1,29
 104 667 104 667 111 680 c 128,-1,30
 118 693 118 693 136 699 c 0,31,32
 157 707 157 707 183.5 711.5 c 128,-1,33
 210 716 210 716 238 716 c 0,34,35
 291 716 291 716 322 696.5 c 128,-1,36
 353 677 353 677 365 645 c 128,-1,37
 377 613 377 613 370 574 c 2,38,-1
 350 448 l 2,39,40
 343 406 343 406 302 406 c 0,41,42
 278 406 278 406 268 419.5 c 128,-1,43
 258 433 258 433 261 451 c 2,44,-1
 264 468 l 1,45,-1
 261 468 l 1,46,47
 243 437 243 437 218.5 421.5 c 128,-1,48
 194 406 194 406 163 406 c 0,0,1
EndSplineSet
EndChar

StartChar: ordmasculine
Encoding: 186 186 530
Width: 361
GlyphClass: 1
Flags: W
LayerCount: 2
Fore
SplineSet
225 408 m 0,0,1
 180 408 180 408 144 426 c 128,-1,2
 108 444 108 444 88 476.5 c 128,-1,3
 68 509 68 509 68 552 c 0,4,5
 68 603 68 603 90.5 640 c 128,-1,6
 113 677 113 677 151 696.5 c 128,-1,7
 189 716 189 716 236 716 c 0,8,9
 282 716 282 716 317.5 698 c 128,-1,10
 353 680 353 680 373.5 648.5 c 128,-1,11
 394 617 394 617 394 572 c 0,12,13
 394 522 394 522 371.5 485 c 128,-1,14
 349 448 349 448 310.5 428 c 128,-1,15
 272 408 272 408 225 408 c 0,0,1
226 481 m 0,16,17
 257 481 257 481 276.5 504 c 128,-1,18
 296 527 296 527 296 573 c 0,19,20
 296 607 296 607 279 625.5 c 128,-1,21
 262 644 262 644 235 644 c 0,22,23
 205 644 205 644 185.5 621.5 c 128,-1,24
 166 599 166 599 166 552 c 0,25,26
 166 517 166 517 182.5 499 c 128,-1,27
 199 481 199 481 226 481 c 0,16,17
EndSplineSet
EndChar

StartChar: uni0411
Encoding: 1041 1041 532
Width: 681
GlyphClass: 1
Flags: W
LayerCount: 2
Fore
SplineSet
120 0 m 2,0,1
 79 0 79 0 59.5 23 c 128,-1,2
 40 46 40 46 46 87 c 2,3,-1
 132 630 l 2,4,5
 138 667 138 667 160 686 c 128,-1,6
 182 705 182 705 219 705 c 2,7,-1
 581 705 l 2,8,9
 612 705 612 705 628.5 692.5 c 128,-1,10
 645 680 645 680 645 656 c 0,11,12
 645 623 645 623 626.5 603.5 c 128,-1,13
 608 584 608 584 573 584 c 2,14,-1
 274 584 l 1,15,-1
 248 421 l 1,16,-1
 399 421 l 2,17,18
 522 421 522 421 582.5 368 c 128,-1,19
 643 315 643 315 643 232 c 0,20,21
 643 120 643 120 572 60 c 128,-1,22
 501 0 501 0 363 0 c 2,23,-1
 120 0 l 2,0,1
200 120 m 1,24,-1
 367 120 l 2,25,26
 430 120 430 120 462 145.5 c 128,-1,27
 494 171 494 171 494 221 c 0,28,29
 494 262 494 262 467.5 281.5 c 128,-1,30
 441 301 441 301 378 301 c 2,31,-1
 229 301 l 1,32,-1
 200 120 l 1,24,-1
EndSplineSet
EndChar

StartChar: uni0413
Encoding: 1043 1043 534
Width: 569
GlyphClass: 2
Flags: W
AnchorPoint: "Anchor-4" 185 357 basechar 0
AnchorPoint: "Anchor-0" 355 705 basechar 0
LayerCount: 2
Fore
SplineSet
111 -9 m 0,0,1
 71 -9 71 -9 54.5 15.5 c 128,-1,2
 38 40 38 40 45 83 c 2,3,-1
 132 630 l 2,4,5
 137 667 137 667 159 686 c 128,-1,6
 181 705 181 705 219 705 c 2,7,-1
 558 705 l 2,8,9
 590 705 590 705 608 691.5 c 128,-1,10
 626 678 626 678 626 654 c 0,11,12
 626 618 626 618 605.5 597.5 c 128,-1,13
 585 577 585 577 549 577 c 2,14,-1
 279 577 l 1,15,-1
 198 70 l 2,16,17
 192 31 192 31 170.5 11 c 128,-1,18
 149 -9 149 -9 111 -9 c 0,0,1
EndSplineSet
EndChar

StartChar: uni0490
Encoding: 1168 1168 536
Width: 569
GlyphClass: 1
Flags: W
LayerCount: 2
Fore
SplineSet
112 -9 m 0,0,1
 72 -9 72 -9 55 15.5 c 128,-1,2
 38 40 38 40 45 83 c 2,3,-1
 132 630 l 2,4,5
 137 667 137 667 159.5 686 c 128,-1,6
 182 705 182 705 219 705 c 2,7,-1
 488 705 l 1,8,-1
 506 813 l 2,9,10
 516 876 516 876 580 876 c 0,11,12
 614 876 614 876 630 856 c 128,-1,13
 646 836 646 836 640 802 c 2,14,-1
 616 652 l 2,15,16
 610 615 610 615 588 596 c 128,-1,17
 566 577 566 577 529 577 c 2,18,-1
 279 577 l 1,19,-1
 198 70 l 2,20,21
 192 31 192 31 171 11 c 128,-1,22
 150 -9 150 -9 112 -9 c 0,0,1
EndSplineSet
EndChar

StartChar: uni04F6
Encoding: 1270 1270 537
Width: 569
GlyphClass: 1
Flags: W
LayerCount: 2
Fore
SplineSet
195 -178 m 0,0,1
 162 -178 162 -178 146.5 -157 c 128,-1,2
 131 -136 131 -136 137 -99 c 2,3,-1
 153 0 l 1,4,-1
 112 0 l 2,5,6
 72 0 72 0 55.5 24.5 c 128,-1,7
 39 49 39 49 46 92 c 2,8,-1
 132 630 l 2,9,10
 137 667 137 667 159 686 c 128,-1,11
 181 705 181 705 219 705 c 2,12,-1
 558 705 l 2,13,14
 590 705 590 705 608 691.5 c 128,-1,15
 626 678 626 678 626 654 c 0,16,17
 626 618 626 618 605.5 597.5 c 128,-1,18
 585 577 585 577 549 577 c 2,19,-1
 279 577 l 1,20,-1
 201 88 l 1,21,-1
 170 123 l 1,22,-1
 228 123 l 2,23,24
 263 123 263 123 281.5 103 c 128,-1,25
 300 83 300 83 294 43 c 2,26,-1
 270 -111 l 2,27,28
 265 -145 265 -145 246 -161.5 c 128,-1,29
 227 -178 227 -178 195 -178 c 0,0,1
EndSplineSet
EndChar

StartChar: uni0492
Encoding: 1170 1170 538
Width: 614
GlyphClass: 1
Flags: W
LayerCount: 2
Fore
SplineSet
157 -9 m 0,0,1
 117 -9 117 -9 100.5 16.5 c 128,-1,2
 84 42 84 42 91 83 c 2,3,-1
 123 289 l 1,4,-1
 92 289 l 2,5,6
 64 289 64 289 48 301.5 c 128,-1,7
 32 314 32 314 32 335 c 0,8,9
 32 366 32 366 49.5 383 c 128,-1,10
 67 400 67 400 99 400 c 2,11,-1
 141 400 l 1,12,-1
 177 630 l 2,13,14
 183 667 183 667 205 686 c 128,-1,15
 227 705 227 705 265 705 c 2,16,-1
 604 705 l 2,17,18
 636 705 636 705 654 691.5 c 128,-1,19
 672 678 672 678 672 654 c 0,20,21
 672 618 672 618 651.5 597.5 c 128,-1,22
 631 577 631 577 595 577 c 2,23,-1
 324 577 l 1,24,-1
 296 400 l 1,25,-1
 412 400 l 2,26,27
 441 400 441 400 457 388 c 128,-1,28
 473 376 473 376 473 354 c 0,29,30
 473 325 473 325 454.5 307 c 128,-1,31
 436 289 436 289 405 289 c 2,32,-1
 279 289 l 1,33,-1
 244 69 l 2,34,35
 237 30 237 30 216.5 10.5 c 128,-1,36
 196 -9 196 -9 157 -9 c 0,0,1
EndSplineSet
Substitution2: "'locl' Localized Forms in Cyrillic lookup 16 subtable" uni0492.loclBSH
Substitution2: "'aalt' Access All Alternates lookup 0 subtable" uni0492.loclBSH
EndChar

StartChar: uni0494
Encoding: 1172 1172 539
Width: 718
GlyphClass: 1
Flags: W
LayerCount: 2
Fore
SplineSet
384 -191 m 0,0,1
 363 -191 363 -191 341.5 -189 c 128,-1,2
 320 -187 320 -187 302 -184 c 0,3,4
 279 -180 279 -180 267 -166 c 128,-1,5
 255 -152 255 -152 253.5 -134 c 128,-1,6
 252 -116 252 -116 258.5 -99.5 c 128,-1,7
 265 -83 265 -83 279.5 -72.5 c 128,-1,8
 294 -62 294 -62 312 -65 c 0,9,10
 326 -67 326 -67 337 -68 c 128,-1,11
 348 -69 348 -69 360 -69 c 0,12,13
 408 -69 408 -69 441 -36 c 128,-1,14
 474 -3 474 -3 484 59 c 2,15,-1
 496 132 l 2,16,17
 511 225 511 225 473.5 269.5 c 128,-1,18
 436 314 436 314 360 314 c 0,19,20
 329 314 329 314 295.5 308.5 c 128,-1,21
 262 303 262 303 233 289 c 1,22,-1
 198 69 l 2,23,24
 193 31 193 31 171 11 c 128,-1,25
 149 -9 149 -9 111 -9 c 256,26,27
 73 -9 73 -9 56 15.5 c 128,-1,28
 39 40 39 40 45 83 c 2,29,-1
 132 630 l 2,30,31
 137 667 137 667 160 686 c 128,-1,32
 183 705 183 705 220 705 c 2,33,-1
 573 705 l 2,34,35
 606 705 606 705 623.5 691.5 c 128,-1,36
 641 678 641 678 641 654 c 0,37,38
 641 618 641 618 621 597.5 c 128,-1,39
 601 577 601 577 565 577 c 2,40,-1
 279 577 l 1,41,-1
 254 421 l 1,42,43
 280 433 280 433 316.5 439.5 c 128,-1,44
 353 446 353 446 392 446 c 0,45,46
 458 446 458 446 511 425.5 c 128,-1,47
 564 405 564 405 599.5 365.5 c 128,-1,48
 635 326 635 326 649.5 268.5 c 128,-1,49
 664 211 664 211 652 138 c 2,50,-1
 640 65 l 2,51,52
 627 -16 627 -16 593 -73 c 128,-1,53
 559 -130 559 -130 506 -160.5 c 128,-1,54
 453 -191 453 -191 384 -191 c 0,0,1
EndSplineSet
EndChar

StartChar: uni0414
Encoding: 1044 1044 540
Width: 811
GlyphClass: 1
Flags: W
AnchorPoint: "Anchor-0" 495 703 basechar 0
LayerCount: 2
Fore
SplineSet
15 -178 m 0,0,1
 -18 -178 -18 -178 -33 -158.5 c 128,-1,2
 -48 -139 -48 -139 -43 -103 c 2,3,-1
 -18 58 l 2,4,5
 -8 122 -8 122 58 122 c 2,6,-1
 100 122 l 1,7,-1
 49 107 l 1,8,9
 109 161 109 161 149.5 259.5 c 128,-1,10
 190 358 190 358 214 513 c 2,11,-1
 233 630 l 2,12,13
 239 667 239 667 261 686 c 128,-1,14
 283 705 283 705 320 705 c 2,15,-1
 673 705 l 2,16,17
 715 705 715 705 735 682 c 128,-1,18
 755 659 755 659 748 617 c 2,19,-1
 664 85 l 1,20,-1
 635 121 l 1,21,-1
 694 121 l 2,22,23
 730 121 730 121 747 101 c 128,-1,24
 764 81 764 81 758 46 c 2,25,-1
 732 -115 l 2,26,27
 722 -178 722 -178 658 -178 c 0,28,29
 625 -178 625 -178 609 -158.5 c 128,-1,30
 593 -139 593 -139 598 -103 c 2,31,-1
 614 0 l 1,32,-1
 110 0 l 1,33,-1
 92 -115 l 2,34,35
 81 -178 81 -178 15 -178 c 0,0,1
226 121 m 1,36,-1
 515 121 l 1,37,-1
 588 584 l 1,38,-1
 369 584 l 1,39,-1
 356 504 l 2,40,41
 335 368 335 368 305 273.5 c 128,-1,42
 275 179 275 179 226 121 c 1,36,-1
EndSplineSet
EndChar

StartChar: uni0416
Encoding: 1046 1046 544
Width: 1041
GlyphClass: 2
Flags: W
AnchorPoint: "Anchor-0" 593 705 basechar 0
LayerCount: 2
Fore
SplineSet
485 -9 m 0,0,1
 448 -9 448 -9 431 13 c 128,-1,2
 414 35 414 35 420 73 c 2,3,-1
 453 286 l 1,4,-1
 398 286 l 2,5,6
 351 286 351 286 317 266.5 c 128,-1,7
 283 247 283 247 255 200 c 2,8,-1
 150 33 l 2,9,10
 134 7 134 7 111 -2 c 128,-1,11
 88 -11 88 -11 66 -6.5 c 128,-1,12
 44 -2 44 -2 29 14 c 128,-1,13
 14 30 14 30 12 54 c 128,-1,14
 10 78 10 78 29 108 c 2,15,-1
 120 254 l 2,16,17
 164 324 164 324 216 360.5 c 128,-1,18
 268 397 268 397 337 409 c 1,19,-1
 282 366 l 1,20,-1
 164 608 l 2,21,22
 150 636 150 636 155.5 659 c 128,-1,23
 161 682 161 682 178.5 696.5 c 128,-1,24
 196 711 196 711 219 713.5 c 128,-1,25
 242 716 242 716 263.5 704 c 128,-1,26
 285 692 285 692 298 664 c 2,27,-1
 420 397 l 1,28,-1
 396 414 l 1,29,-1
 473 414 l 1,30,-1
 509 645 l 2,31,32
 515 680 515 680 535.5 697 c 128,-1,33
 556 714 556 714 590 714 c 0,34,35
 628 714 628 714 645 692.5 c 128,-1,36
 662 671 662 671 656 632 c 2,37,-1
 622 414 l 1,38,-1
 694 414 l 1,39,-1
 669 397 l 1,40,-1
 888 679 l 2,41,42
 907 703 907 703 929 709.5 c 128,-1,43
 951 716 951 716 972 709.5 c 128,-1,44
 993 703 993 703 1005.5 687 c 128,-1,45
 1018 671 1018 671 1017.5 648 c 128,-1,46
 1017 625 1017 625 997 600 c 2,47,-1
 808 366 l 1,48,-1
 747 409 l 1,49,50
 791 401 791 401 821.5 381.5 c 128,-1,51
 852 362 852 362 873.5 330.5 c 128,-1,52
 895 299 895 299 911 254 c 2,53,-1
 967 97 l 2,54,55
 979 66 979 66 971 42.5 c 128,-1,56
 963 19 963 19 944.5 6 c 128,-1,57
 926 -7 926 -7 902.5 -8 c 128,-1,58
 879 -9 879 -9 858 4.5 c 128,-1,59
 837 18 837 18 827 48 c 2,60,-1
 775 201 l 2,61,62
 759 246 759 246 732 266 c 128,-1,63
 705 286 705 286 658 286 c 2,64,-1
 602 286 l 1,65,-1
 566 61 l 2,66,67
 561 27 561 27 540.5 9 c 128,-1,68
 520 -9 520 -9 485 -9 c 0,0,1
EndSplineSet
EndChar

StartChar: uni0417
Encoding: 1047 1047 545
Width: 632
GlyphClass: 2
Flags: W
AnchorPoint: "Anchor-2" 288 0 basechar 0
AnchorPoint: "Anchor-0" 376 705 basechar 0
LayerCount: 2
Fore
SplineSet
293 -11 m 0,0,1
 231 -11 231 -11 167.5 4 c 128,-1,2
 104 19 104 19 53 51 c 0,3,4
 35 63 35 63 27.5 81.5 c 128,-1,5
 20 100 20 100 23 119.5 c 128,-1,6
 26 139 26 139 38 152.5 c 128,-1,7
 50 166 50 166 68.5 169.5 c 128,-1,8
 87 173 87 173 112 160 c 0,9,10
 139 145 139 145 169 136 c 128,-1,11
 199 127 199 127 229.5 123 c 128,-1,12
 260 119 260 119 288 119 c 0,13,14
 323 119 323 119 354.5 128.5 c 128,-1,15
 386 138 386 138 406 160 c 128,-1,16
 426 182 426 182 426 218 c 0,17,18
 426 258 426 258 401 277.5 c 128,-1,19
 376 297 376 297 325 297 c 2,20,-1
 220 297 l 2,21,22
 188 297 188 297 171 310.5 c 128,-1,23
 154 324 154 324 155 348 c 0,24,25
 156 380 156 380 175.5 399 c 128,-1,26
 195 418 195 418 229 418 c 2,27,-1
 336 418 l 2,28,29
 392 418 392 418 425.5 441 c 128,-1,30
 459 464 459 464 459 510 c 0,31,32
 459 537 459 537 446.5 554 c 128,-1,33
 434 571 434 571 408.5 579 c 128,-1,34
 383 587 383 587 346 587 c 256,35,36
 309 587 309 587 269 578.5 c 128,-1,37
 229 570 229 570 195 554 c 0,38,39
 167 541 167 541 145.5 545.5 c 128,-1,40
 124 550 124 550 111.5 564.5 c 128,-1,41
 99 579 99 579 97.5 598.5 c 128,-1,42
 96 618 96 618 108 637 c 128,-1,43
 120 656 120 656 146 668 c 0,44,45
 194 691 194 691 252 703.5 c 128,-1,46
 310 716 310 716 367 716 c 0,47,48
 444 716 444 716 498 692.5 c 128,-1,49
 552 669 552 669 581 629 c 128,-1,50
 610 589 610 589 610 538 c 0,51,52
 610 462 610 462 562.5 414 c 128,-1,53
 515 366 515 366 438 353 c 1,54,-1
 438 369 l 1,55,56
 503 357 503 357 540 314.5 c 128,-1,57
 577 272 577 272 577 209 c 0,58,59
 577 139 577 139 542.5 89.5 c 128,-1,60
 508 40 508 40 444 14.5 c 128,-1,61
 380 -11 380 -11 293 -11 c 0,0,1
EndSplineSet
EndChar

StartChar: uni0418
Encoding: 1048 1048 546
Width: 753
GlyphClass: 2
Flags: W
AnchorPoint: "Anchor-0" 446 705 basechar 0
LayerCount: 2
Fore
SplineSet
94 -9 m 0,0,1
 72 -9 72 -9 60 -1.5 c 128,-1,2
 48 6 48 6 44 17 c 128,-1,3
 40 28 40 28 40.5 41 c 128,-1,4
 41 54 41 54 42 65 c 2,5,-1
 133 641 l 2,6,7
 139 678 139 678 160 696 c 128,-1,8
 181 714 181 714 214 714 c 0,9,10
 252 714 252 714 267 691.5 c 128,-1,11
 282 669 282 669 276 629 c 2,12,-1
 212 223 l 1,13,-1
 186 228 l 1,14,-1
 614 678 l 2,15,16
 626 691 626 691 645.5 702.5 c 128,-1,17
 665 714 665 714 693 714 c 0,18,19
 723 714 723 714 734.5 702 c 128,-1,20
 746 690 746 690 746.5 673.5 c 128,-1,21
 747 657 747 657 745 640 c 2,22,-1
 654 64 l 2,23,24
 648 28 648 28 626.5 9.5 c 128,-1,25
 605 -9 605 -9 573 -9 c 0,26,27
 535 -9 535 -9 520 13.5 c 128,-1,28
 505 36 505 36 511 77 c 2,29,-1
 575 483 l 1,30,-1
 600 478 l 1,31,-1
 171 26 l 2,32,33
 158 12 158 12 139.5 1.5 c 128,-1,34
 121 -9 121 -9 94 -9 c 0,0,1
EndSplineSet
EndChar

StartChar: uni048A
Encoding: 1162 1162 549
Width: 793
GlyphClass: 1
Flags: W
LayerCount: 2
Fore
SplineSet
656 -138 m 2,0,1
 645 -161 645 -161 627 -171 c 128,-1,2
 609 -181 609 -181 590 -179 c 128,-1,3
 571 -177 571 -177 557 -166 c 128,-1,4
 543 -155 543 -155 539.5 -135.5 c 128,-1,5
 536 -116 536 -116 548 -92 c 2,6,-1
 614 40 l 1,7,-1
 623 0 l 1,8,-1
 577 0 l 2,9,10
 537 0 537 0 521 20 c 128,-1,11
 505 40 505 40 512 83 c 2,12,-1
 575 483 l 1,13,-1
 600 478 l 1,14,-1
 171 26 l 2,15,16
 158 12 158 12 139.5 1.5 c 128,-1,17
 121 -9 121 -9 94 -9 c 0,18,19
 72 -9 72 -9 60 -1.5 c 128,-1,20
 48 6 48 6 44 17 c 128,-1,21
 40 28 40 28 40.5 41 c 128,-1,22
 41 54 41 54 42 65 c 2,23,-1
 133 641 l 2,24,25
 139 678 139 678 160 696 c 128,-1,26
 181 714 181 714 214 714 c 0,27,28
 252 714 252 714 267 691.5 c 128,-1,29
 282 669 282 669 276 629 c 2,30,-1
 212 223 l 1,31,-1
 186 228 l 1,32,-1
 614 678 l 2,33,34
 626 691 626 691 645.5 702.5 c 128,-1,35
 665 714 665 714 693 714 c 0,36,37
 723 714 723 714 734.5 702 c 128,-1,38
 746 690 746 690 746.5 673.5 c 128,-1,39
 747 657 747 657 745 640 c 2,40,-1
 656 79 l 1,41,-1
 636 123 l 1,42,-1
 688 123 l 2,43,44
 730 123 730 123 746.5 99.5 c 128,-1,45
 763 76 763 76 743 35 c 2,46,-1
 656 -138 l 2,0,1
451 760 m 0,47,48
 381 760 381 760 335 789 c 128,-1,49
 289 818 289 818 268 867 c 0,50,51
 259 889 259 889 267 904 c 128,-1,52
 275 919 275 919 293 925 c 0,53,54
 311 932 311 932 324 923.5 c 128,-1,55
 337 915 337 915 349 894 c 0,56,57
 364 867 364 867 390 853.5 c 128,-1,58
 416 840 416 840 457 840 c 0,59,60
 497 840 497 840 526.5 854.5 c 128,-1,61
 556 869 556 869 578 899 c 0,62,63
 592 917 592 917 604.5 924.5 c 128,-1,64
 617 932 617 932 633 926 c 0,65,66
 649 919 649 919 655 906 c 128,-1,67
 661 893 661 893 652 875 c 0,68,69
 623 819 623 819 571.5 789.5 c 128,-1,70
 520 760 520 760 451 760 c 0,47,48
EndSplineSet
EndChar

StartChar: uni041A
Encoding: 1050 1050 550
Width: 695
GlyphClass: 2
Flags: W
AnchorPoint: "Anchor-5" 373 353 basechar 0
AnchorPoint: "Anchor-0" 419 705 basechar 0
LayerCount: 2
Fore
SplineSet
112 -9 m 0,0,1
 74 -9 74 -9 56 13.5 c 128,-1,2
 38 36 38 36 44 77 c 2,3,-1
 134 643 l 2,4,5
 139 679 139 679 160 696.5 c 128,-1,6
 181 714 181 714 218 714 c 0,7,8
 257 714 257 714 275 691.5 c 128,-1,9
 293 669 293 669 287 628 c 2,10,-1
 253 414 l 1,11,-1
 348 414 l 1,12,-1
 323 397 l 1,13,-1
 542 679 l 2,14,15
 561 703 561 703 583 710 c 128,-1,16
 605 717 605 717 625.5 710.5 c 128,-1,17
 646 704 646 704 658.5 687.5 c 128,-1,18
 671 671 671 671 671 648 c 128,-1,19
 671 625 671 625 651 600 c 2,20,-1
 467 366 l 1,21,-1
 401 409 l 1,22,23
 467 397 467 397 504 359.5 c 128,-1,24
 541 322 541 322 565 254 c 2,25,-1
 621 97 l 2,26,27
 632 66 632 66 624.5 42 c 128,-1,28
 617 18 617 18 598.5 5.5 c 128,-1,29
 580 -7 580 -7 556.5 -8 c 128,-1,30
 533 -9 533 -9 512 4.5 c 128,-1,31
 491 18 491 18 481 48 c 2,32,-1
 429 200 l 2,33,34
 414 247 414 247 386.5 266.5 c 128,-1,35
 359 286 359 286 312 286 c 2,36,-1
 233 286 l 1,37,-1
 198 65 l 2,38,39
 192 28 192 28 170.5 9.5 c 128,-1,40
 149 -9 149 -9 112 -9 c 0,0,1
EndSplineSet
EndChar

StartChar: uni041B
Encoding: 1051 1051 552
Width: 758
GlyphClass: 2
Flags: W
LayerCount: 2
Fore
SplineSet
573 -9 m 0,0,1
 535 -9 535 -9 517.5 14 c 128,-1,2
 500 37 500 37 506 79 c 2,3,-1
 585 577 l 1,4,-1
 366 577 l 1,5,-1
 344 436 l 2,6,7
 329 347 329 347 308 278.5 c 128,-1,8
 287 210 287 210 256.5 157.5 c 128,-1,9
 226 105 226 105 186 66.5 c 128,-1,10
 146 28 146 28 94 1 c 0,11,12
 65 -15 65 -15 38.5 -10 c 128,-1,13
 12 -5 12 -5 -4 23 c 0,14,15
 -21 51 -21 51 -12 75.5 c 128,-1,16
 -3 100 -3 100 25 117 c 0,17,18
 60 137 60 137 88 166.5 c 128,-1,19
 116 196 116 196 138 238 c 128,-1,20
 160 280 160 280 177.5 339 c 128,-1,21
 195 398 195 398 207 476 c 2,22,-1
 232 630 l 2,23,24
 238 667 238 667 260 686 c 128,-1,25
 282 705 282 705 319 705 c 2,26,-1
 672 705 l 2,27,28
 714 705 714 705 733.5 682 c 128,-1,29
 753 659 753 659 747 618 c 2,30,-1
 659 65 l 2,31,32
 654 29 654 29 632 10 c 128,-1,33
 610 -9 610 -9 573 -9 c 0,0,1
EndSplineSet
EndChar

StartChar: uni041F
Encoding: 1055 1055 556
Width: 772
GlyphClass: 2
Flags: W
LayerCount: 2
Fore
SplineSet
111 -9 m 256,0,1
 73 -9 73 -9 55.5 13.5 c 128,-1,2
 38 36 38 36 44 77 c 2,3,-1
 132 630 l 2,4,5
 138 667 138 667 160 686 c 128,-1,6
 182 705 182 705 219 705 c 2,7,-1
 686 705 l 2,8,9
 728 705 728 705 747.5 682 c 128,-1,10
 767 659 767 659 761 618 c 2,11,-1
 673 65 l 2,12,13
 668 28 668 28 646.5 9.5 c 128,-1,14
 625 -9 625 -9 587 -9 c 0,15,16
 550 -9 550 -9 532 13.5 c 128,-1,17
 514 36 514 36 520 78 c 2,18,-1
 600 577 l 1,19,-1
 279 577 l 1,20,-1
 198 65 l 2,21,22
 193 29 193 29 171 10 c 128,-1,23
 149 -9 149 -9 111 -9 c 256,0,1
EndSplineSet
EndChar

StartChar: uni0423
Encoding: 1059 1059 560
Width: 671
GlyphClass: 2
Flags: W
AnchorPoint: "Anchor-0" 397 705 basechar 0
LayerCount: 2
Fore
SplineSet
240 -9 m 0,0,1
 210 -9 210 -9 192 5.5 c 128,-1,2
 174 20 174 20 171.5 43 c 128,-1,3
 169 66 169 66 185 91 c 2,4,-1
 283 239 l 1,5,-1
 284 194 l 1,6,-1
 90 620 l 2,7,8
 78 646 78 646 84.5 667.5 c 128,-1,9
 91 689 91 689 110.5 701.5 c 128,-1,10
 130 714 130 714 156 714 c 0,11,12
 188 714 188 714 203.5 696 c 128,-1,13
 219 678 219 678 233 647 c 2,14,-1
 373 332 l 1,15,-1
 346 332 l 1,16,-1
 566 663 l 2,17,18
 581 685 581 685 599 699.5 c 128,-1,19
 617 714 617 714 648 714 c 0,20,21
 677 714 677 714 695 700 c 128,-1,22
 713 686 713 686 716 663.5 c 128,-1,23
 719 641 719 641 702 616 c 2,24,-1
 321 42 l 2,25,26
 306 20 306 20 288.5 5.5 c 128,-1,27
 271 -9 271 -9 240 -9 c 0,0,1
EndSplineSet
EndChar

StartChar: uni0424
Encoding: 1060 1060 562
Width: 908
GlyphClass: 1
Flags: W
LayerCount: 2
Fore
SplineSet
413 -35 m 0,0,1
 373 -35 373 -35 356 -11 c 128,-1,2
 339 13 339 13 346 55 c 2,3,-1
 353 101 l 1,4,-1
 394 54 l 1,5,-1
 384 54 l 2,6,7
 290 54 290 54 218.5 86 c 128,-1,8
 147 118 147 118 107.5 178.5 c 128,-1,9
 68 239 68 239 68 325 c 0,10,11
 68 392 68 392 91.5 453 c 128,-1,12
 115 514 115 514 162 561 c 128,-1,13
 209 608 209 608 279 635 c 128,-1,14
 349 662 349 662 442 662 c 2,15,-1
 472 662 l 1,16,-1
 435 615 l 1,17,-1
 443 669 l 2,18,19
 449 707 449 707 471.5 726 c 128,-1,20
 494 745 494 745 529 745 c 0,21,22
 569 745 569 745 586.5 721.5 c 128,-1,23
 604 698 604 698 597 655 c 2,24,-1
 590 611 l 1,25,-1
 549 658 l 1,26,-1
 558 658 l 2,27,28
 654 658 654 658 725 626.5 c 128,-1,29
 796 595 796 595 835.5 534.5 c 128,-1,30
 875 474 875 474 875 387 c 0,31,32
 875 320 875 320 852 259.5 c 128,-1,33
 829 199 829 199 781.5 151.5 c 128,-1,34
 734 104 734 104 664 77 c 128,-1,35
 594 50 594 50 501 50 c 2,36,-1
 471 50 l 1,37,-1
 508 97 l 1,38,-1
 500 43 l 2,39,40
 494 4 494 4 471 -15.5 c 128,-1,41
 448 -35 448 -35 413 -35 c 0,0,1
362 146 m 1,42,-1
 429 570 l 1,43,-1
 456 545 l 1,44,-1
 432 545 l 2,45,46
 378 545 378 545 339 527.5 c 128,-1,47
 300 510 300 510 275 479.5 c 128,-1,48
 250 449 250 449 237.5 410.5 c 128,-1,49
 225 372 225 372 225 329 c 0,50,51
 225 278 225 278 242.5 242.5 c 128,-1,52
 260 207 260 207 297.5 189 c 128,-1,53
 335 171 335 171 397 171 c 2,54,-1
 406 171 l 1,55,-1
 362 146 l 1,42,-1
514 142 m 1,56,-1
 487 167 l 1,57,-1
 512 167 l 2,58,59
 565 167 565 167 604 184.5 c 128,-1,60
 643 202 643 202 668 232.5 c 128,-1,61
 693 263 693 263 705 302 c 128,-1,62
 717 341 717 341 717 384 c 0,63,64
 717 436 717 436 700.5 470.5 c 128,-1,65
 684 505 684 505 646.5 523.5 c 128,-1,66
 609 542 609 542 548 542 c 2,67,-1
 538 542 l 1,68,-1
 581 566 l 1,69,-1
 514 142 l 1,56,-1
EndSplineSet
EndChar

StartChar: uni0427
Encoding: 1063 1063 564
Width: 708
GlyphClass: 2
Flags: W
AnchorPoint: "Anchor-5" 315 295 basechar 0
AnchorPoint: "Anchor-0" 412 705 basechar 0
LayerCount: 2
Fore
SplineSet
524 -9 m 0,0,1
 484 -9 484 -9 467.5 15 c 128,-1,2
 451 39 451 39 457 83 c 2,3,-1
 485 262 l 1,4,5
 459 251 459 251 422 244 c 128,-1,6
 385 237 385 237 347 237 c 0,7,8
 259 237 259 237 198 273 c 128,-1,9
 137 309 137 309 110.5 377.5 c 128,-1,10
 84 446 84 446 99 543 c 2,11,-1
 113 636 l 2,12,13
 119 675 119 675 142 694.5 c 128,-1,14
 165 714 165 714 200 714 c 0,15,16
 240 714 240 714 256 689.5 c 128,-1,17
 272 665 272 665 266 623 c 2,18,-1
 254 543 l 2,19,20
 239 451 239 451 269.5 409.5 c 128,-1,21
 300 368 300 368 377 368 c 0,22,23
 408 368 408 368 442.5 374.5 c 128,-1,24
 477 381 477 381 506 394 c 1,25,-1
 545 636 l 2,26,27
 551 675 551 675 573.5 694.5 c 128,-1,28
 596 714 596 714 631 714 c 0,29,30
 672 714 672 714 688 689.5 c 128,-1,31
 704 665 704 665 698 623 c 2,32,-1
 610 69 l 2,33,34
 604 30 604 30 581.5 10.5 c 128,-1,35
 559 -9 559 -9 524 -9 c 0,0,1
EndSplineSet
EndChar

StartChar: uni0426
Encoding: 1062 1062 565
Width: 824
GlyphClass: 1
Flags: W
LayerCount: 2
Fore
SplineSet
670 -178 m 0,0,1
 636 -178 636 -178 621 -157 c 128,-1,2
 606 -136 606 -136 612 -99 c 2,3,-1
 627 0 l 1,4,-1
 120 0 l 2,5,6
 80 0 80 0 60 23 c 128,-1,7
 40 46 40 46 46 87 c 2,8,-1
 134 642 l 2,9,10
 139 677 139 677 160.5 695.5 c 128,-1,11
 182 714 182 714 218 714 c 0,12,13
 257 714 257 714 275 691.5 c 128,-1,14
 293 669 293 669 287 628 c 2,15,-1
 207 128 l 1,16,-1
 528 128 l 1,17,-1
 609 640 l 2,18,19
 615 676 615 676 636 695 c 128,-1,20
 657 714 657 714 692 714 c 0,21,22
 733 714 733 714 751 691.5 c 128,-1,23
 769 669 769 669 763 628 c 2,24,-1
 679 100 l 1,25,-1
 624 128 l 1,26,-1
 703 128 l 2,27,28
 740 128 740 128 758.5 106.5 c 128,-1,29
 777 85 777 85 771 47 c 2,30,-1
 745 -113 l 2,31,32
 735 -178 735 -178 670 -178 c 0,0,1
EndSplineSet
EndChar

StartChar: uni0428
Encoding: 1064 1064 566
Width: 1080
GlyphClass: 1
Flags: W
LayerCount: 2
Fore
SplineSet
120 0 m 2,0,1
 80 0 80 0 60 23 c 128,-1,2
 40 46 40 46 46 87 c 2,3,-1
 134 641 l 2,4,5
 140 677 140 677 161 695.5 c 128,-1,6
 182 714 182 714 217 714 c 0,7,8
 256 714 256 714 273 691.5 c 128,-1,9
 290 669 290 669 284 628 c 2,10,-1
 205 128 l 1,11,-1
 444 128 l 1,12,-1
 525 640 l 2,13,14
 531 675 531 675 551.5 694.5 c 128,-1,15
 572 714 572 714 609 714 c 0,16,17
 648 714 648 714 665.5 691.5 c 128,-1,18
 683 669 683 669 676 628 c 2,19,-1
 597 128 l 1,20,-1
 837 128 l 1,21,-1
 918 640 l 2,22,23
 924 675 924 675 944 694.5 c 128,-1,24
 964 714 964 714 1001 714 c 0,25,26
 1040 714 1040 714 1057.5 691.5 c 128,-1,27
 1075 669 1075 669 1069 628 c 2,28,-1
 981 75 l 2,29,30
 975 37 975 37 952.5 18.5 c 128,-1,31
 930 0 930 0 894 0 c 2,32,-1
 120 0 l 2,0,1
EndSplineSet
EndChar

StartChar: uni0429
Encoding: 1065 1065 567
Width: 1131
GlyphClass: 1
Flags: W
LayerCount: 2
Fore
SplineSet
976 -178 m 0,0,1
 942 -178 942 -178 927 -157 c 128,-1,2
 912 -136 912 -136 918 -99 c 2,3,-1
 934 0 l 1,4,-1
 120 0 l 2,5,6
 80 0 80 0 59.5 23 c 128,-1,7
 39 46 39 46 46 87 c 2,8,-1
 134 640 l 2,9,10
 140 677 140 677 161 695.5 c 128,-1,11
 182 714 182 714 217 714 c 0,12,13
 256 714 256 714 273 691.5 c 128,-1,14
 290 669 290 669 284 628 c 2,15,-1
 205 128 l 1,16,-1
 444 128 l 1,17,-1
 526 640 l 2,18,19
 532 675 532 675 552 694.5 c 128,-1,20
 572 714 572 714 609 714 c 0,21,22
 648 714 648 714 665.5 691.5 c 128,-1,23
 683 669 683 669 676 628 c 2,24,-1
 597 128 l 1,25,-1
 836 128 l 1,26,-1
 917 640 l 2,27,28
 923 675 923 675 943.5 694.5 c 128,-1,29
 964 714 964 714 1001 714 c 0,30,31
 1040 714 1040 714 1057.5 692.5 c 128,-1,32
 1075 671 1075 671 1069 630 c 2,33,-1
 985 100 l 1,34,-1
 930 128 l 1,35,-1
 1010 128 l 2,36,37
 1047 128 1047 128 1065.5 107 c 128,-1,38
 1084 86 1084 86 1078 48 c 2,39,-1
 1053 -111 l 2,40,41
 1048 -145 1048 -145 1028 -161.5 c 128,-1,42
 1008 -178 1008 -178 976 -178 c 0,0,1
EndSplineSet
EndChar

StartChar: uni040F
Encoding: 1039 1039 568
Width: 772
GlyphClass: 1
Flags: W
LayerCount: 2
Fore
SplineSet
323 -178 m 0,0,1
 289 -178 289 -178 274 -157 c 128,-1,2
 259 -136 259 -136 265 -99 c 2,3,-1
 281 0 l 1,4,-1
 120 0 l 2,5,6
 80 0 80 0 59.5 23 c 128,-1,7
 39 46 39 46 45 87 c 2,8,-1
 133 640 l 2,9,10
 139 677 139 677 160.5 695.5 c 128,-1,11
 182 714 182 714 217 714 c 0,12,13
 256 714 256 714 274.5 691.5 c 128,-1,14
 293 669 293 669 287 628 c 2,15,-1
 207 128 l 1,16,-1
 528 128 l 1,17,-1
 609 642 l 2,18,19
 615 678 615 678 636 696 c 128,-1,20
 657 714 657 714 692 714 c 0,21,22
 733 714 733 714 751 691.5 c 128,-1,23
 769 669 769 669 762 628 c 2,24,-1
 675 76 l 2,25,26
 669 38 669 38 646.5 19 c 128,-1,27
 624 0 624 0 588 0 c 2,28,-1
 416 0 l 1,29,-1
 398 -111 l 2,30,31
 393 -145 393 -145 373.5 -161.5 c 128,-1,32
 354 -178 354 -178 323 -178 c 0,0,1
EndSplineSet
EndChar

StartChar: uni042C
Encoding: 1068 1068 569
Width: 681
GlyphClass: 1
Flags: W
LayerCount: 2
Fore
SplineSet
120 0 m 2,0,1
 79 0 79 0 59.5 23 c 128,-1,2
 40 46 40 46 46 87 c 2,3,-1
 133 637 l 2,4,5
 139 674 139 674 160 694 c 128,-1,6
 181 714 181 714 218 714 c 0,7,8
 257 714 257 714 275 691.5 c 128,-1,9
 293 669 293 669 287 628 c 2,10,-1
 254 421 l 1,11,-1
 398 421 l 2,12,13
 481 421 481 421 535 396 c 128,-1,14
 589 371 589 371 615.5 328.5 c 128,-1,15
 642 286 642 286 642 230 c 0,16,17
 642 118 642 118 572 59 c 128,-1,18
 502 0 502 0 365 0 c 2,19,-1
 120 0 l 2,0,1
206 120 m 1,20,-1
 366 120 l 2,21,22
 430 120 430 120 461.5 145.5 c 128,-1,23
 493 171 493 171 493 221 c 0,24,25
 493 262 493 262 466.5 281.5 c 128,-1,26
 440 301 440 301 377 301 c 2,27,-1
 235 301 l 1,28,-1
 206 120 l 1,20,-1
EndSplineSet
EndChar

StartChar: uni042B
Encoding: 1067 1067 570
Width: 928
GlyphClass: 2
Flags: W
AnchorPoint: "Anchor-0" 531 705 basechar 0
LayerCount: 2
Fore
SplineSet
120 0 m 2,0,1
 79 0 79 0 59.5 23 c 128,-1,2
 40 46 40 46 46 87 c 2,3,-1
 133 637 l 2,4,5
 139 674 139 674 160 694 c 128,-1,6
 181 714 181 714 218 714 c 0,7,8
 257 714 257 714 275 691.5 c 128,-1,9
 293 669 293 669 287 628 c 2,10,-1
 254 421 l 1,11,-1
 373 421 l 2,12,13
 455 421 455 421 509 396 c 128,-1,14
 563 371 563 371 589.5 328.5 c 128,-1,15
 616 286 616 286 616 230 c 0,16,17
 616 118 616 118 546 59 c 128,-1,18
 476 0 476 0 338 0 c 2,19,-1
 120 0 l 2,0,1
206 120 m 1,20,-1
 341 120 l 2,21,22
 404 120 404 120 436 145.5 c 128,-1,23
 468 171 468 171 468 221 c 0,24,25
 468 262 468 262 441.5 281.5 c 128,-1,26
 415 301 415 301 352 301 c 2,27,-1
 235 301 l 1,28,-1
 206 120 l 1,20,-1
743 -9 m 0,29,30
 705 -9 705 -9 687 14 c 128,-1,31
 669 37 669 37 675 77 c 2,32,-1
 764 640 l 2,33,34
 770 677 770 677 791 695.5 c 128,-1,35
 812 714 812 714 848 714 c 0,36,37
 887 714 887 714 905.5 691.5 c 128,-1,38
 924 669 924 669 918 628 c 2,39,-1
 829 65 l 2,40,41
 824 29 824 29 802 10 c 128,-1,42
 780 -9 780 -9 743 -9 c 0,29,30
EndSplineSet
EndChar

StartChar: uni042A
Encoding: 1066 1066 571
Width: 816
GlyphClass: 1
Flags: W
LayerCount: 2
Fore
SplineSet
256 0 m 2,0,1
 214 0 214 0 195 23 c 128,-1,2
 176 46 176 46 182 87 c 2,3,-1
 259 577 l 1,4,-1
 130 577 l 2,5,6
 94 577 94 577 76 594 c 128,-1,7
 58 611 58 611 62 641 c 0,8,9
 68 673 68 673 87 689 c 128,-1,10
 106 705 106 705 139 705 c 2,11,-1
 347 705 l 2,12,13
 389 705 389 705 408 682.5 c 128,-1,14
 427 660 427 660 421 619 c 2,15,-1
 389 421 l 1,16,-1
 534 421 l 2,17,18
 616 421 616 421 670 396 c 128,-1,19
 724 371 724 371 750.5 328.5 c 128,-1,20
 777 286 777 286 777 230 c 0,21,22
 777 118 777 118 707.5 59 c 128,-1,23
 638 0 638 0 500 0 c 2,24,-1
 256 0 l 2,0,1
342 120 m 1,25,-1
 502 120 l 2,26,27
 565 120 565 120 597 145.5 c 128,-1,28
 629 171 629 171 629 221 c 0,29,30
 629 262 629 262 602 281.5 c 128,-1,31
 575 301 575 301 513 301 c 2,32,-1
 371 301 l 1,33,-1
 342 120 l 1,25,-1
EndSplineSet
EndChar

StartChar: uni0409
Encoding: 1033 1033 572
Width: 1135
GlyphClass: 1
Flags: W
LayerCount: 2
Fore
SplineSet
576 0 m 2,0,1
 534 0 534 0 514.5 23 c 128,-1,2
 495 46 495 46 501 87 c 2,3,-1
 578 577 l 1,4,-1
 366 577 l 1,5,-1
 344 434 l 2,6,7
 329 343 329 343 307 274.5 c 128,-1,8
 285 206 285 206 255.5 155 c 128,-1,9
 226 104 226 104 187 67 c 128,-1,10
 148 30 148 30 98 1 c 0,11,12
 79 -10 79 -10 59 -11.5 c 128,-1,13
 39 -13 39 -13 21.5 -4 c 128,-1,14
 4 5 4 5 -6 24 c 0,15,16
 -21 52 -21 52 -11 76.5 c 128,-1,17
 -1 101 -1 101 28 118 c 0,18,19
 63 138 63 138 90.5 167.5 c 128,-1,20
 118 197 118 197 140 239.5 c 128,-1,21
 162 282 162 282 178.5 340 c 128,-1,22
 195 398 195 398 207 475 c 2,23,-1
 232 630 l 2,24,25
 238 667 238 667 259.5 686 c 128,-1,26
 281 705 281 705 319 705 c 2,27,-1
 665 705 l 2,28,29
 707 705 707 705 726.5 682 c 128,-1,30
 746 659 746 659 739 618 c 2,31,-1
 708 421 l 1,32,-1
 853 421 l 2,33,34
 936 421 936 421 989.5 396 c 128,-1,35
 1043 371 1043 371 1070 328.5 c 128,-1,36
 1097 286 1097 286 1097 230 c 0,37,38
 1097 118 1097 118 1026.5 59 c 128,-1,39
 956 0 956 0 818 0 c 2,40,-1
 576 0 l 2,0,1
661 120 m 1,41,-1
 821 120 l 2,42,43
 884 120 884 120 916 145.5 c 128,-1,44
 948 171 948 171 948 221 c 0,45,46
 948 262 948 262 921.5 281.5 c 128,-1,47
 895 301 895 301 832 301 c 2,48,-1
 689 301 l 1,49,-1
 661 120 l 1,41,-1
EndSplineSet
EndChar

StartChar: uni040A
Encoding: 1034 1034 573
Width: 1163
GlyphClass: 1
Flags: W
LayerCount: 2
Fore
SplineSet
110 -9 m 256,0,1
 71 -9 71 -9 54.5 13.5 c 128,-1,2
 38 36 38 36 44 78 c 2,3,-1
 133 639 l 2,4,5
 139 676 139 676 160.5 695 c 128,-1,6
 182 714 182 714 219 714 c 0,7,8
 257 714 257 714 275 691.5 c 128,-1,9
 293 669 293 669 287 628 c 2,10,-1
 254 422 l 1,11,-1
 581 422 l 1,12,-1
 616 639 l 2,13,14
 622 676 622 676 643.5 695 c 128,-1,15
 665 714 665 714 702 714 c 0,16,17
 740 714 740 714 758 691.5 c 128,-1,18
 776 669 776 669 769 627 c 2,19,-1
 736 421 l 1,20,-1
 881 421 l 2,21,22
 963 421 963 421 1017 396 c 128,-1,23
 1071 371 1071 371 1098 328.5 c 128,-1,24
 1125 286 1125 286 1125 230 c 0,25,26
 1125 118 1125 118 1054.5 59 c 128,-1,27
 984 0 984 0 846 0 c 2,28,-1
 603 0 l 2,29,30
 561 0 561 0 541.5 23 c 128,-1,31
 522 46 522 46 528 87 c 2,32,-1
 561 293 l 1,33,-1
 233 293 l 1,34,-1
 198 66 l 2,35,36
 193 30 193 30 171 10.5 c 128,-1,37
 149 -9 149 -9 110 -9 c 256,0,1
689 120 m 1,38,-1
 849 120 l 2,39,40
 912 120 912 120 944 145.5 c 128,-1,41
 976 171 976 171 976 221 c 0,42,43
 976 262 976 262 949.5 281.5 c 128,-1,44
 923 301 923 301 860 301 c 2,45,-1
 718 301 l 1,46,-1
 689 120 l 1,38,-1
EndSplineSet
EndChar

StartChar: uni0404
Encoding: 1028 1028 575
Width: 684
GlyphClass: 2
Flags: W
AnchorPoint: "Anchor-2" 355 0 basechar 0
AnchorPoint: "Anchor-0" 467 705 basechar 0
LayerCount: 2
Fore
SplineSet
398 -11 m 0,0,1
 303 -11 303 -11 228 25.5 c 128,-1,2
 153 62 153 62 110 133 c 128,-1,3
 67 204 67 204 67 306 c 0,4,5
 67 394 67 394 93 468 c 128,-1,6
 119 542 119 542 168.5 598 c 128,-1,7
 218 654 218 654 290.5 685 c 128,-1,8
 363 716 363 716 456 716 c 0,9,10
 505 716 505 716 554.5 704 c 128,-1,11
 604 692 604 692 645 667 c 0,12,13
 672 653 672 653 681.5 631.5 c 128,-1,14
 691 610 691 610 686.5 589 c 128,-1,15
 682 568 682 568 667.5 552 c 128,-1,16
 653 536 653 536 631 532.5 c 128,-1,17
 609 529 609 529 583 543 c 0,18,19
 553 562 553 562 519.5 570.5 c 128,-1,20
 486 579 486 579 452 579 c 0,21,22
 394 579 394 579 349.5 555 c 128,-1,23
 305 531 305 531 276.5 488.5 c 128,-1,24
 248 446 248 446 237 391 c 1,25,-1
 226 420 l 1,26,-1
 476 420 l 2,27,28
 509 420 509 420 526 406.5 c 128,-1,29
 543 393 543 393 542 369 c 0,30,31
 541 335 541 335 521.5 316.5 c 128,-1,32
 502 298 502 298 468 298 c 2,33,-1
 222 298 l 1,34,-1
 230 313 l 1,35,36
 231 253 231 253 250.5 211.5 c 128,-1,37
 270 170 270 170 311 148 c 128,-1,38
 352 126 352 126 417 126 c 0,39,40
 445 126 445 126 476 133 c 128,-1,41
 507 140 507 140 536 157 c 0,42,43
 565 172 565 172 586.5 167.5 c 128,-1,44
 608 163 608 163 620.5 148 c 128,-1,45
 633 133 633 133 634.5 112 c 128,-1,46
 636 91 636 91 625 71 c 128,-1,47
 614 51 614 51 589 38 c 0,48,49
 547 14 547 14 497 1.5 c 128,-1,50
 447 -11 447 -11 398 -11 c 0,0,1
EndSplineSet
EndChar

StartChar: uni042D
Encoding: 1069 1069 576
Width: 684
GlyphClass: 2
Flags: W
AnchorPoint: "Anchor-2" 270 0 basechar 0
AnchorPoint: "Anchor-0" 381 705 basechar 0
LayerCount: 2
Fore
SplineSet
261 -11 m 0,0,1
 212 -11 212 -11 163.5 1 c 128,-1,2
 115 13 115 13 73 38 c 0,3,4
 47 52 47 52 37.5 73 c 128,-1,5
 28 94 28 94 32 115.5 c 128,-1,6
 36 137 36 137 50.5 152.5 c 128,-1,7
 65 168 65 168 86.5 172 c 128,-1,8
 108 176 108 176 134 162 c 0,9,10
 164 143 164 143 197.5 134.5 c 128,-1,11
 231 126 231 126 265 126 c 0,12,13
 329 126 329 126 374.5 152.5 c 128,-1,14
 420 179 420 179 447.5 224.5 c 128,-1,15
 475 270 475 270 484 329 c 1,16,-1
 497 298 l 1,17,-1
 244 298 l 2,18,19
 211 298 211 298 194 311.5 c 128,-1,20
 177 325 177 325 178 349 c 0,21,22
 178 382 178 382 198 401 c 128,-1,23
 218 420 218 420 251 420 c 2,24,-1
 497 420 l 1,25,-1
 487 396 l 1,26,27
 487 455 487 455 468.5 495.5 c 128,-1,28
 450 536 450 536 411 557.5 c 128,-1,29
 372 579 372 579 306 579 c 0,30,31
 278 579 278 579 246 572.5 c 128,-1,32
 214 566 214 566 182 550 c 0,33,34
 153 535 153 535 131 539.5 c 128,-1,35
 109 544 109 544 97 560 c 128,-1,36
 85 576 85 576 83.5 597 c 128,-1,37
 82 618 82 618 93 637.5 c 128,-1,38
 104 657 104 657 129 669 c 0,39,40
 177 693 177 693 226 704.5 c 128,-1,41
 275 716 275 716 323 716 c 0,42,43
 419 716 419 716 493 680 c 128,-1,44
 567 644 567 644 608.5 572.5 c 128,-1,45
 650 501 650 501 650 393 c 0,46,47
 650 309 650 309 624.5 235 c 128,-1,48
 599 161 599 161 549.5 106 c 128,-1,49
 500 51 500 51 427.5 20 c 128,-1,50
 355 -11 355 -11 261 -11 c 0,0,1
EndSplineSet
EndChar

StartChar: uni040B
Encoding: 1035 1035 580
Width: 876
GlyphClass: 1
Flags: W
LayerCount: 2
Fore
SplineSet
278 -9 m 0,0,1
 241 -9 241 -9 223.5 14.5 c 128,-1,2
 206 38 206 38 212 81 c 2,3,-1
 291 577 l 1,4,-1
 127 577 l 2,5,6
 95 577 95 577 77 591 c 128,-1,7
 59 605 59 605 59 629 c 0,8,9
 59 665 59 665 79.5 685 c 128,-1,10
 100 705 100 705 136 705 c 2,11,-1
 631 705 l 2,12,13
 664 705 664 705 681.5 691.5 c 128,-1,14
 699 678 699 678 699 654 c 0,15,16
 699 618 699 618 679 597.5 c 128,-1,17
 659 577 659 577 623 577 c 2,18,-1
 447 577 l 1,19,-1
 422 421 l 1,20,21
 448 433 448 433 486 439.5 c 128,-1,22
 524 446 524 446 563 446 c 0,23,24
 651 446 651 446 711.5 409.5 c 128,-1,25
 772 373 772 373 799 304.5 c 128,-1,26
 826 236 826 236 810 139 c 2,27,-1
 798 68 l 2,28,29
 792 28 792 28 769 9.5 c 128,-1,30
 746 -9 746 -9 711 -9 c 0,31,32
 672 -9 672 -9 655.5 15 c 128,-1,33
 639 39 639 39 646 83 c 2,34,-1
 656 141 l 2,35,36
 671 233 671 233 639 273.5 c 128,-1,37
 607 314 607 314 530 314 c 0,38,39
 499 314 499 314 464.5 308.5 c 128,-1,40
 430 303 430 303 401 289 c 1,41,-1
 366 69 l 2,42,43
 360 31 360 31 338.5 11 c 128,-1,44
 317 -9 317 -9 278 -9 c 0,0,1
EndSplineSet
EndChar

StartChar: uni042E
Encoding: 1070 1070 581
Width: 1067
GlyphClass: 1
Flags: W
AnchorPoint: "Anchor-0" 601 676 basechar 0
LayerCount: 2
Fore
SplineSet
660 -11 m 0,0,1
 564 -11 564 -11 493.5 25.5 c 128,-1,2
 423 62 423 62 383.5 130 c 128,-1,3
 344 198 344 198 341 293 c 1,4,-1
 233 293 l 1,5,-1
 198 70 l 2,6,7
 192 31 192 31 170.5 11 c 128,-1,8
 149 -9 149 -9 111 -9 c 0,9,10
 71 -9 71 -9 54.5 15.5 c 128,-1,11
 38 40 38 40 45 83 c 2,12,-1
 133 636 l 2,13,14
 138 675 138 675 160 694.5 c 128,-1,15
 182 714 182 714 221 714 c 256,16,17
 260 714 260 714 276.5 689.5 c 128,-1,18
 293 665 293 665 286 622 c 2,19,-1
 254 422 l 1,20,-1
 354 422 l 1,21,22
 375 510 375 510 424 576 c 128,-1,23
 473 642 473 642 547 679 c 128,-1,24
 621 716 621 716 714 716 c 0,25,26
 811 716 811 716 883 679 c 128,-1,27
 955 642 955 642 994.5 572 c 128,-1,28
 1034 502 1034 502 1034 404 c 0,29,30
 1034 313 1034 313 1008 237 c 128,-1,31
 982 161 982 161 932.5 105.5 c 128,-1,32
 883 50 883 50 814.5 19.5 c 128,-1,33
 746 -11 746 -11 660 -11 c 0,0,1
663 121 m 0,34,35
 729 121 729 121 776 157 c 128,-1,36
 823 193 823 193 848 256.5 c 128,-1,37
 873 320 873 320 873 401 c 0,38,39
 873 494 873 494 829.5 539 c 128,-1,40
 786 584 786 584 711 584 c 0,41,42
 646 584 646 584 599 548.5 c 128,-1,43
 552 513 552 513 527.5 450 c 128,-1,44
 503 387 503 387 503 304 c 0,45,46
 503 212 503 212 546 166.5 c 128,-1,47
 589 121 589 121 663 121 c 0,34,35
EndSplineSet
EndChar

StartChar: uni042F
Encoding: 1071 1071 582
Width: 699
GlyphClass: 1
Flags: W
AnchorPoint: "Anchor-0" 428 688 basechar 0
LayerCount: 2
Fore
SplineSet
509 -9 m 0,0,1
 473 -9 473 -9 456.5 15.5 c 128,-1,2
 440 40 440 40 447 83 c 2,3,-1
 477 273 l 1,4,-1
 411 273 l 2,5,6
 391 273 391 273 374.5 268.5 c 128,-1,7
 358 264 358 264 343.5 254 c 128,-1,8
 329 244 329 244 315 225 c 2,9,-1
 180 27 l 2,10,11
 163 2 163 2 140.5 -5 c 128,-1,12
 118 -12 118 -12 96.5 -5.5 c 128,-1,13
 75 1 75 1 60.5 18 c 128,-1,14
 46 35 46 35 44 58 c 128,-1,15
 42 81 42 81 60 107 c 2,16,-1
 130 209 l 2,17,18
 159 252 159 252 192 272 c 128,-1,19
 225 292 225 292 267 292 c 2,20,-1
 309 292 l 1,21,-1
 316 275 l 1,22,23
 210 281 210 281 153 333 c 128,-1,24
 96 385 96 385 96 473 c 0,25,26
 96 554 96 554 131.5 605 c 128,-1,27
 167 656 167 656 229 680.5 c 128,-1,28
 291 705 291 705 369 705 c 2,29,-1
 611 705 l 2,30,31
 654 705 654 705 673.5 682.5 c 128,-1,32
 693 660 693 660 686 618 c 2,33,-1
 600 68 l 2,34,35
 594 30 594 30 571 10.5 c 128,-1,36
 548 -9 548 -9 509 -9 c 0,0,1
365 385 m 2,37,-1
 495 385 l 1,38,-1
 527 584 l 1,39,-1
 373 584 l 2,40,41
 312 584 312 584 279 556.5 c 128,-1,42
 246 529 246 529 246 475 c 0,43,44
 246 430 246 430 274.5 407.5 c 128,-1,45
 303 385 303 385 365 385 c 2,37,-1
EndSplineSet
EndChar

StartChar: uni0402
Encoding: 1026 1026 583
Width: 887
GlyphClass: 1
Flags: W
LayerCount: 2
Fore
SplineSet
551 -191 m 0,0,1
 530 -191 530 -191 507.5 -189 c 128,-1,2
 485 -187 485 -187 468 -183 c 0,3,4
 445 -177 445 -177 433.5 -163 c 128,-1,5
 422 -149 422 -149 421 -131 c 128,-1,6
 420 -113 420 -113 427 -97 c 128,-1,7
 434 -81 434 -81 449 -71.5 c 128,-1,8
 464 -62 464 -62 483 -65 c 0,9,10
 496 -67 496 -67 506 -68 c 128,-1,11
 516 -69 516 -69 528 -69 c 0,12,13
 576 -69 576 -69 609 -36 c 128,-1,14
 642 -3 642 -3 652 59 c 2,15,-1
 664 132 l 2,16,17
 679 225 679 225 641.5 269.5 c 128,-1,18
 604 314 604 314 529 314 c 0,19,20
 497 314 497 314 463 308.5 c 128,-1,21
 429 303 429 303 401 289 c 1,22,-1
 366 69 l 2,23,24
 360 31 360 31 338.5 11 c 128,-1,25
 317 -9 317 -9 278 -9 c 0,26,27
 241 -9 241 -9 223.5 15.5 c 128,-1,28
 206 40 206 40 213 82 c 2,29,-1
 291 577 l 1,30,-1
 127 577 l 2,31,32
 95 577 95 577 77 591 c 128,-1,33
 59 605 59 605 59 629 c 0,34,35
 59 665 59 665 79.5 685 c 128,-1,36
 100 705 100 705 136 705 c 2,37,-1
 631 705 l 2,38,39
 664 705 664 705 681.5 691.5 c 128,-1,40
 699 678 699 678 699 654 c 0,41,42
 699 618 699 618 679 597.5 c 128,-1,43
 659 577 659 577 623 577 c 2,44,-1
 447 577 l 1,45,-1
 422 421 l 1,46,47
 448 433 448 433 484 439.5 c 128,-1,48
 520 446 520 446 560 446 c 0,49,50
 625 446 625 446 678 426 c 128,-1,51
 731 406 731 406 767 366 c 128,-1,52
 803 326 803 326 817.5 268.5 c 128,-1,53
 832 211 832 211 820 138 c 2,54,-1
 808 65 l 2,55,56
 795 -17 795 -17 760.5 -74 c 128,-1,57
 726 -131 726 -131 673 -161 c 128,-1,58
 620 -191 620 -191 551 -191 c 0,0,1
EndSplineSet
EndChar

StartChar: uni0462
Encoding: 1122 1122 584
Width: 755
GlyphClass: 1
Flags: W
LayerCount: 2
Fore
SplineSet
197 0 m 2,0,1
 155 0 155 0 135.5 22.5 c 128,-1,2
 116 45 116 45 122 86 c 2,3,-1
 190 515 l 1,4,-1
 83 515 l 2,5,6
 51 515 51 515 35 530 c 128,-1,7
 19 545 19 545 23 570 c 0,8,9
 32 625 32 625 91 625 c 2,10,-1
 244 625 l 1,11,-1
 199 570 l 1,12,-1
 210 640 l 2,13,14
 216 677 216 677 238.5 695.5 c 128,-1,15
 261 714 261 714 298 714 c 0,16,17
 333 714 333 714 350 691.5 c 128,-1,18
 367 669 367 669 361 628 c 2,19,-1
 352 570 l 1,20,-1
 328 625 l 1,21,-1
 536 625 l 2,22,23
 568 625 568 625 584.5 610.5 c 128,-1,24
 601 596 601 596 596 570 c 0,25,26
 586 515 586 515 529 515 c 2,27,-1
 343 515 l 1,28,-1
 328 421 l 1,29,-1
 472 421 l 2,30,31
 595 421 595 421 656 368 c 128,-1,32
 717 315 717 315 717 232 c 0,33,34
 717 120 717 120 646.5 60 c 128,-1,35
 576 0 576 0 438 0 c 2,36,-1
 197 0 l 2,0,1
280 120 m 1,37,-1
 440 120 l 2,38,39
 504 120 504 120 535.5 145.5 c 128,-1,40
 567 171 567 171 567 221 c 0,41,42
 567 262 567 262 540.5 281.5 c 128,-1,43
 514 301 514 301 451 301 c 2,44,-1
 309 301 l 1,45,-1
 280 120 l 1,37,-1
EndSplineSet
EndChar

StartChar: uni046A
Encoding: 1130 1130 585
Width: 1041
GlyphClass: 1
Flags: W
LayerCount: 2
Fore
SplineSet
486 -9 m 0,0,1
 446 -9 446 -9 428 13.5 c 128,-1,2
 410 36 410 36 416 77 c 2,3,-1
 449 286 l 1,4,-1
 398 286 l 2,5,6
 350 286 350 286 316.5 266 c 128,-1,7
 283 246 283 246 255 200 c 2,8,-1
 150 33 l 2,9,10
 134 7 134 7 111 -2 c 128,-1,11
 88 -11 88 -11 66 -6.5 c 128,-1,12
 44 -2 44 -2 29 14 c 128,-1,13
 14 30 14 30 12 54 c 128,-1,14
 10 78 10 78 29 108 c 2,15,-1
 123 260 l 2,16,17
 155 311 155 311 198 345 c 128,-1,18
 241 379 241 379 291 395.5 c 128,-1,19
 341 412 341 412 395 412 c 2,20,-1
 435 412 l 1,21,-1
 427 378 l 1,22,-1
 257 622 l 2,23,24
 241 645 241 645 241 664 c 128,-1,25
 241 683 241 683 256 694 c 128,-1,26
 271 705 271 705 300 705 c 2,27,-1
 867 705 l 2,28,29
 899 705 899 705 914 693 c 128,-1,30
 929 681 929 681 926.5 662 c 128,-1,31
 924 643 924 643 902 621 c 2,32,-1
 656 378 l 1,33,-1
 645 412 l 1,34,-1
 681 412 l 2,35,36
 737 411 737 411 782.5 391 c 128,-1,37
 828 371 828 371 861 336 c 128,-1,38
 894 301 894 301 910 254 c 2,39,-1
 967 97 l 2,40,41
 978 66 978 66 970.5 42.5 c 128,-1,42
 963 19 963 19 944.5 6 c 128,-1,43
 926 -7 926 -7 902.5 -8 c 128,-1,44
 879 -9 879 -9 858 4.5 c 128,-1,45
 837 18 837 18 827 48 c 2,46,-1
 775 200 l 2,47,48
 759 247 759 247 731.5 266.5 c 128,-1,49
 704 286 704 286 657 286 c 2,50,-1
 605 286 l 1,51,-1
 570 64 l 2,52,53
 565 28 565 28 543.5 9.5 c 128,-1,54
 522 -9 522 -9 486 -9 c 0,0,1
540 411 m 1,55,-1
 542 411 l 1,56,-1
 767 636 l 1,57,-1
 761 600 l 1,58,-1
 376 600 l 1,59,-1
 382 636 l 1,60,-1
 540 411 l 1,55,-1
EndSplineSet
EndChar

StartChar: uni0474
Encoding: 1140 1140 587
Width: 786
GlyphClass: 1
Flags: W
LayerCount: 2
Fore
SplineSet
328 -9 m 0,0,1
 295 -9 295 -9 274.5 8 c 128,-1,2
 254 25 254 25 244 58 c 2,3,-1
 82 616 l 2,4,5
 74 645 74 645 80.5 666 c 128,-1,6
 87 687 87 687 105 699.5 c 128,-1,7
 123 712 123 712 148 712 c 0,8,9
 178 712 178 712 198 697.5 c 128,-1,10
 218 683 218 683 227 644 c 2,11,-1
 364 142 l 1,12,-1
 314 142 l 1,13,-1
 522 507 l 2,14,15
 561 574 561 574 598 617.5 c 128,-1,16
 635 661 635 661 680 684 c 128,-1,17
 725 707 725 707 786 712 c 0,18,19
 813 715 813 715 830 704 c 128,-1,20
 847 693 847 693 854 675.5 c 128,-1,21
 861 658 861 658 858 639 c 128,-1,22
 855 620 855 620 840.5 605 c 128,-1,23
 826 590 826 590 801 585 c 0,24,25
 769 580 769 580 744.5 563.5 c 128,-1,26
 720 547 720 547 698 517.5 c 128,-1,27
 676 488 676 488 649 442 c 2,28,-1
 415 46 l 2,29,30
 398 18 398 18 378.5 4.5 c 128,-1,31
 359 -9 359 -9 328 -9 c 0,0,1
EndSplineSet
EndChar

StartChar: uni0496
Encoding: 1174 1174 588
Width: 1080
GlyphClass: 1
Flags: W
LayerCount: 2
Fore
SplineSet
954 -178 m 0,0,1
 924 -178 924 -178 908.5 -157 c 128,-1,2
 893 -136 893 -136 899 -99 c 2,3,-1
 921 41 l 1,4,-1
 955 -3 l 1,5,-1
 903 -3 l 2,6,7
 877 -3 877 -3 857 8.5 c 128,-1,8
 837 20 837 20 827 48 c 2,9,-1
 775 201 l 2,10,11
 759 246 759 246 732 266 c 128,-1,12
 705 286 705 286 658 286 c 2,13,-1
 602 286 l 1,14,-1
 566 61 l 2,15,16
 561 27 561 27 540.5 9 c 128,-1,17
 520 -9 520 -9 485 -9 c 0,18,19
 448 -9 448 -9 431 13 c 128,-1,20
 414 35 414 35 420 73 c 2,21,-1
 453 286 l 1,22,-1
 398 286 l 2,23,24
 351 286 351 286 317 266.5 c 128,-1,25
 283 247 283 247 255 200 c 2,26,-1
 150 33 l 2,27,28
 134 7 134 7 111 -2 c 128,-1,29
 88 -11 88 -11 66 -6.5 c 128,-1,30
 44 -2 44 -2 29 14 c 128,-1,31
 14 30 14 30 12 54 c 128,-1,32
 10 78 10 78 29 108 c 2,33,-1
 120 254 l 2,34,35
 164 324 164 324 216 360.5 c 128,-1,36
 268 397 268 397 337 409 c 1,37,-1
 282 366 l 1,38,-1
 164 608 l 2,39,40
 150 636 150 636 155.5 659 c 128,-1,41
 161 682 161 682 178.5 696.5 c 128,-1,42
 196 711 196 711 218.5 713.5 c 128,-1,43
 241 716 241 716 263 704 c 128,-1,44
 285 692 285 692 298 664 c 2,45,-1
 420 397 l 1,46,-1
 396 414 l 1,47,-1
 473 414 l 1,48,-1
 509 645 l 2,49,50
 515 680 515 680 535.5 697 c 128,-1,51
 556 714 556 714 590 714 c 0,52,53
 628 714 628 714 645 692.5 c 128,-1,54
 662 671 662 671 656 632 c 2,55,-1
 622 414 l 1,56,-1
 694 414 l 1,57,-1
 669 397 l 1,58,-1
 888 679 l 2,59,60
 907 703 907 703 929 709.5 c 128,-1,61
 951 716 951 716 972 709.5 c 128,-1,62
 993 703 993 703 1005.5 687 c 128,-1,63
 1018 671 1018 671 1017.5 648 c 128,-1,64
 1017 625 1017 625 997 600 c 2,65,-1
 808 366 l 1,66,-1
 747 409 l 1,67,68
 791 401 791 401 821.5 381.5 c 128,-1,69
 852 362 852 362 873.5 330.5 c 128,-1,70
 895 299 895 299 911 254 c 2,71,-1
 973 81 l 1,72,-1
 913 123 l 1,73,-1
 989 123 l 2,74,75
 1027 123 1027 123 1045.5 102 c 128,-1,76
 1064 81 1064 81 1058 43 c 2,77,-1
 1033 -112 l 2,78,79
 1028 -145 1028 -145 1008.5 -161.5 c 128,-1,80
 989 -178 989 -178 954 -178 c 0,0,1
EndSplineSet
EndChar

StartChar: uni0498
Encoding: 1176 1176 589
Width: 632
GlyphClass: 2
Flags: W
AnchorPoint: "Anchor-2" 288 0 basechar 0
AnchorPoint: "Anchor-0" 376 705 basechar 0
LayerCount: 2
Fore
SplineSet
259 -178 m 0,0,1
 229 -178 229 -178 214 -158 c 128,-1,2
 199 -138 199 -138 205 -102 c 2,3,-1
 233 76 l 1,4,-1
 366 76 l 1,5,-1
 335 -114 l 2,6,7
 330 -147 330 -147 310 -162.5 c 128,-1,8
 290 -178 290 -178 259 -178 c 0,0,1
293 -11 m 0,9,10
 231 -11 231 -11 167.5 4 c 128,-1,11
 104 19 104 19 53 51 c 0,12,13
 35 63 35 63 27.5 81.5 c 128,-1,14
 20 100 20 100 23 119.5 c 128,-1,15
 26 139 26 139 38 152.5 c 128,-1,16
 50 166 50 166 68.5 169.5 c 128,-1,17
 87 173 87 173 112 160 c 0,18,19
 139 145 139 145 169 136 c 128,-1,20
 199 127 199 127 229.5 123 c 128,-1,21
 260 119 260 119 288 119 c 0,22,23
 323 119 323 119 354.5 128.5 c 128,-1,24
 386 138 386 138 406 160 c 128,-1,25
 426 182 426 182 426 218 c 0,26,27
 426 258 426 258 401 277.5 c 128,-1,28
 376 297 376 297 325 297 c 2,29,-1
 220 297 l 2,30,31
 188 297 188 297 171 310.5 c 128,-1,32
 154 324 154 324 155 348 c 0,33,34
 156 380 156 380 175.5 399 c 128,-1,35
 195 418 195 418 229 418 c 2,36,-1
 336 418 l 2,37,38
 392 418 392 418 425.5 441 c 128,-1,39
 459 464 459 464 459 510 c 0,40,41
 459 537 459 537 446.5 554 c 128,-1,42
 434 571 434 571 408.5 579 c 128,-1,43
 383 587 383 587 346 587 c 256,44,45
 309 587 309 587 269 578.5 c 128,-1,46
 229 570 229 570 195 554 c 0,47,48
 167 541 167 541 145.5 545.5 c 128,-1,49
 124 550 124 550 111.5 564.5 c 128,-1,50
 99 579 99 579 97.5 598.5 c 128,-1,51
 96 618 96 618 108 637 c 128,-1,52
 120 656 120 656 146 668 c 0,53,54
 194 691 194 691 252 703.5 c 128,-1,55
 310 716 310 716 367 716 c 0,56,57
 444 716 444 716 498 692.5 c 128,-1,58
 552 669 552 669 581 629 c 128,-1,59
 610 589 610 589 610 538 c 0,60,61
 610 462 610 462 562.5 414 c 128,-1,62
 515 366 515 366 438 353 c 1,63,-1
 438 369 l 1,64,65
 503 357 503 357 540 314.5 c 128,-1,66
 577 272 577 272 577 209 c 0,67,68
 577 139 577 139 542.5 89.5 c 128,-1,69
 508 40 508 40 444 14.5 c 128,-1,70
 380 -11 380 -11 293 -11 c 0,9,10
EndSplineSet
Substitution2: "'locl' Localized Forms in Cyrillic lookup 17 subtable" uni0498.loclCHU
Substitution2: "'locl' Localized Forms in Cyrillic lookup 16 subtable" uni0498.loclBSH
AlternateSubs2: "'aalt' Access All Alternates lookup 1 subtable" uni0498.loclBSH uni0498.loclCHU
EndChar

StartChar: uni049A
Encoding: 1178 1178 590
Width: 734
GlyphClass: 1
Flags: W
LayerCount: 2
Fore
SplineSet
609 -178 m 0,0,1
 578 -178 578 -178 563 -157 c 128,-1,2
 548 -136 548 -136 553 -99 c 2,3,-1
 576 41 l 1,4,-1
 588 -3 l 1,5,-1
 555 -3 l 2,6,7
 532 -3 532 -3 511.5 8 c 128,-1,8
 491 19 491 19 481 48 c 2,9,-1
 429 200 l 2,10,11
 414 247 414 247 386.5 266.5 c 128,-1,12
 359 286 359 286 312 286 c 2,13,-1
 233 286 l 1,14,-1
 198 65 l 2,15,16
 192 28 192 28 170.5 9.5 c 128,-1,17
 149 -9 149 -9 112 -9 c 0,18,19
 74 -9 74 -9 56 13.5 c 128,-1,20
 38 36 38 36 44 77 c 2,21,-1
 134 643 l 2,22,23
 139 679 139 679 160 696.5 c 128,-1,24
 181 714 181 714 218 714 c 0,25,26
 257 714 257 714 275 691.5 c 128,-1,27
 293 669 293 669 287 628 c 2,28,-1
 253 414 l 1,29,-1
 348 414 l 1,30,-1
 323 397 l 1,31,-1
 542 679 l 2,32,33
 561 703 561 703 583 710 c 128,-1,34
 605 717 605 717 626 710.5 c 128,-1,35
 647 704 647 704 659.5 687.5 c 128,-1,36
 672 671 672 671 671.5 648 c 128,-1,37
 671 625 671 625 651 600 c 2,38,-1
 467 366 l 1,39,-1
 401 409 l 1,40,41
 467 397 467 397 504 359.5 c 128,-1,42
 541 322 541 322 565 254 c 2,43,-1
 627 81 l 1,44,-1
 587 123 l 1,45,-1
 644 123 l 2,46,47
 682 123 682 123 700 102 c 128,-1,48
 718 81 718 81 712 43 c 2,49,-1
 687 -112 l 2,50,51
 682 -145 682 -145 663 -161.5 c 128,-1,52
 644 -178 644 -178 609 -178 c 0,0,1
EndSplineSet
EndChar

StartChar: uni049C
Encoding: 1180 1180 591
Width: 761
GlyphClass: 1
Flags: W
LayerCount: 2
Fore
SplineSet
112 -9 m 0,0,1
 74 -9 74 -9 56 13.5 c 128,-1,2
 38 36 38 36 44 77 c 2,3,-1
 134 641 l 2,4,5
 139 677 139 677 160 695.5 c 128,-1,6
 181 714 181 714 218 714 c 0,7,8
 257 714 257 714 275 691.5 c 128,-1,9
 293 669 293 669 287 628 c 2,10,-1
 253 413 l 1,11,-1
 303 413 l 1,12,-1
 323 535 l 2,13,14
 330 582 330 582 377 582 c 0,15,16
 402 582 402 582 413 568 c 128,-1,17
 424 554 424 554 420 528 c 2,18,-1
 402 413 l 1,19,-1
 404 413 l 1,20,-1
 397 409 l 1,21,-1
 608 680 l 2,22,23
 627 704 627 704 649.5 710.5 c 128,-1,24
 672 717 672 717 692.5 711 c 128,-1,25
 713 705 713 705 726 688.5 c 128,-1,26
 739 672 739 672 738 649.5 c 128,-1,27
 737 627 737 627 717 601 c 2,28,-1
 532 366 l 1,29,-1
 468 409 l 1,30,31
 511 401 511 401 541.5 382 c 128,-1,32
 572 363 572 363 593.5 331.5 c 128,-1,33
 615 300 615 300 631 254 c 2,34,-1
 688 97 l 2,35,36
 699 66 699 66 691.5 42.5 c 128,-1,37
 684 19 684 19 665 5.5 c 128,-1,38
 646 -8 646 -8 623 -8.5 c 128,-1,39
 600 -9 600 -9 579 4.5 c 128,-1,40
 558 18 558 18 549 48 c 2,41,-1
 496 202 l 2,42,43
 480 248 480 248 453 268.5 c 128,-1,44
 426 289 426 289 378 289 c 2,45,-1
 358 289 l 1,46,-1
 384 300 l 1,47,-1
 364 171 l 2,48,49
 356 125 356 125 308 125 c 0,50,51
 258 125 258 125 266 179 c 2,52,-1
 284 289 l 1,53,-1
 233 289 l 1,54,-1
 197 64 l 2,55,56
 192 27 192 27 170.5 9 c 128,-1,57
 149 -9 149 -9 112 -9 c 0,0,1
EndSplineSet
EndChar

StartChar: uni049E
Encoding: 1182 1182 592
Width: 761
GlyphClass: 1
Flags: W
LayerCount: 2
Fore
SplineSet
171 -9 m 0,0,1
 132 -9 132 -9 114 13.5 c 128,-1,2
 96 36 96 36 102 77 c 2,3,-1
 173 520 l 1,4,-1
 87 520 l 2,5,6
 57 520 57 520 42.5 534 c 128,-1,7
 28 548 28 548 32 572 c 0,8,9
 36 598 36 598 51.5 611 c 128,-1,10
 67 624 67 624 93 624 c 2,11,-1
 223 624 l 1,12,-1
 179 562 l 1,13,-1
 192 641 l 2,14,15
 198 677 198 677 219 695.5 c 128,-1,16
 240 714 240 714 276 714 c 0,17,18
 315 714 315 714 333.5 692.5 c 128,-1,19
 352 671 352 671 345 628 c 2,20,-1
 334 560 l 1,21,-1
 316 624 l 1,22,-1
 404 624 l 2,23,24
 434 624 434 624 448.5 610 c 128,-1,25
 463 596 463 596 459 572 c 0,26,27
 455 547 455 547 439.5 533.5 c 128,-1,28
 424 520 424 520 397 520 c 2,29,-1
 328 520 l 1,30,-1
 312 414 l 1,31,-1
 415 414 l 1,32,-1
 390 397 l 1,33,-1
 608 679 l 2,34,35
 626 703 626 703 648.5 710 c 128,-1,36
 671 717 671 717 691.5 710.5 c 128,-1,37
 712 704 712 704 725 687.5 c 128,-1,38
 738 671 738 671 737.5 648.5 c 128,-1,39
 737 626 737 626 718 601 c 2,40,-1
 529 360 l 1,41,-1
 462 409 l 1,42,43
 505 401 505 401 535.5 382 c 128,-1,44
 566 363 566 363 587.5 331.5 c 128,-1,45
 609 300 609 300 625 254 c 2,46,-1
 682 97 l 2,47,48
 693 66 693 66 685.5 42.5 c 128,-1,49
 678 19 678 19 659 6 c 128,-1,50
 640 -7 640 -7 617 -7.5 c 128,-1,51
 594 -8 594 -8 573 5.5 c 128,-1,52
 552 19 552 19 542 49 c 2,53,-1
 489 200 l 2,54,55
 474 247 474 247 446.5 266.5 c 128,-1,56
 419 286 419 286 372 286 c 2,57,-1
 291 286 l 1,58,-1
 255 64 l 2,59,60
 249 27 249 27 228 9 c 128,-1,61
 207 -9 207 -9 171 -9 c 0,0,1
EndSplineSet
EndChar

StartChar: uni04A0
Encoding: 1184 1184 593
Width: 831
GlyphClass: 1
Flags: W
LayerCount: 2
Fore
SplineSet
248 -9 m 0,0,1
 210 -9 210 -9 192 13.5 c 128,-1,2
 174 36 174 36 180 77 c 2,3,-1
 259 578 l 1,4,-1
 129 578 l 2,5,6
 95 578 95 578 77 591.5 c 128,-1,7
 59 605 59 605 59 630 c 0,8,9
 59 665 59 665 80 685 c 128,-1,10
 101 705 101 705 137 705 c 2,11,-1
 353 705 l 2,12,13
 392 705 392 705 410 682.5 c 128,-1,14
 428 660 428 660 422 620 c 2,15,-1
 388 414 l 1,16,-1
 484 414 l 1,17,-1
 459 397 l 1,18,-1
 678 679 l 2,19,20
 696 703 696 703 718.5 710 c 128,-1,21
 741 717 741 717 762 710.5 c 128,-1,22
 783 704 783 704 795.5 687.5 c 128,-1,23
 808 671 808 671 807.5 648 c 128,-1,24
 807 625 807 625 787 600 c 2,25,-1
 603 366 l 1,26,-1
 537 409 l 1,27,28
 602 397 602 397 639.5 359.5 c 128,-1,29
 677 322 677 322 701 254 c 2,30,-1
 757 97 l 2,31,32
 768 66 768 66 760.5 42 c 128,-1,33
 753 18 753 18 734.5 5.5 c 128,-1,34
 716 -7 716 -7 692.5 -8 c 128,-1,35
 669 -9 669 -9 648 4.5 c 128,-1,36
 627 18 627 18 617 48 c 2,37,-1
 565 200 l 2,38,39
 550 247 550 247 522.5 266.5 c 128,-1,40
 495 286 495 286 448 286 c 2,41,-1
 369 286 l 1,42,-1
 333 65 l 2,43,44
 327 28 327 28 306 9.5 c 128,-1,45
 285 -9 285 -9 248 -9 c 0,0,1
EndSplineSet
EndChar

StartChar: uni04A2
Encoding: 1186 1186 594
Width: 829
GlyphClass: 1
Flags: W
LayerCount: 2
Fore
SplineSet
677 -178 m 0,0,1
 644 -178 644 -178 629 -157 c 128,-1,2
 614 -136 614 -136 620 -99 c 2,3,-1
 635 0 l 1,4,-1
 594 0 l 2,5,6
 554 0 554 0 538 24.5 c 128,-1,7
 522 49 522 49 529 92 c 2,8,-1
 561 293 l 1,9,-1
 233 293 l 1,10,-1
 198 70 l 2,11,12
 192 31 192 31 170.5 11 c 128,-1,13
 149 -9 149 -9 111 -9 c 0,14,15
 71 -9 71 -9 54.5 15.5 c 128,-1,16
 38 40 38 40 45 83 c 2,17,-1
 133 636 l 2,18,19
 138 675 138 675 160 694.5 c 128,-1,20
 182 714 182 714 221 714 c 256,21,22
 260 714 260 714 276.5 689.5 c 128,-1,23
 293 665 293 665 286 622 c 2,24,-1
 254 422 l 1,25,-1
 581 422 l 1,26,-1
 616 636 l 2,27,28
 622 675 622 675 643 694.5 c 128,-1,29
 664 714 664 714 703 714 c 256,30,31
 742 714 742 714 759 690 c 128,-1,32
 776 666 776 666 768 622 c 2,33,-1
 683 88 l 1,34,-1
 648 123 l 1,35,-1
 710 123 l 2,36,37
 745 123 745 123 764 103 c 128,-1,38
 783 83 783 83 776 43 c 2,39,-1
 752 -111 l 2,40,41
 747 -145 747 -145 728 -161.5 c 128,-1,42
 709 -178 709 -178 677 -178 c 0,0,1
EndSplineSet
EndChar

StartChar: uni04A4
Encoding: 1188 1188 595
Width: 948
GlyphClass: 1
Flags: W
LayerCount: 2
Fore
SplineSet
111 -9 m 0,0,1
 71 -9 71 -9 54.5 15.5 c 128,-1,2
 38 40 38 40 45 83 c 2,3,-1
 133 636 l 2,4,5
 138 675 138 675 160 694.5 c 128,-1,6
 182 714 182 714 221 714 c 256,7,8
 260 714 260 714 276.5 689.5 c 128,-1,9
 293 665 293 665 286 622 c 2,10,-1
 254 422 l 1,11,-1
 581 422 l 1,12,-1
 615 630 l 2,13,14
 621 667 621 667 643 686 c 128,-1,15
 665 705 665 705 702 705 c 2,16,-1
 945 705 l 2,17,18
 978 705 978 705 995.5 691.5 c 128,-1,19
 1013 678 1013 678 1013 654 c 0,20,21
 1013 618 1013 618 993 597.5 c 128,-1,22
 973 577 973 577 937 577 c 2,23,-1
 761 577 l 1,24,-1
 681 70 l 2,25,26
 675 31 675 31 653.5 11 c 128,-1,27
 632 -9 632 -9 593 -9 c 0,28,29
 553 -9 553 -9 537 15.5 c 128,-1,30
 521 40 521 40 528 83 c 2,31,-1
 561 293 l 1,32,-1
 233 293 l 1,33,-1
 198 70 l 2,34,35
 192 31 192 31 170.5 11 c 128,-1,36
 149 -9 149 -9 111 -9 c 0,0,1
EndSplineSet
EndChar

StartChar: uni0524
Encoding: 1316 1316 596
Width: 822
GlyphClass: 1
Flags: W
LayerCount: 2
Fore
SplineSet
671 -178 m 0,0,1
 638 -178 638 -178 622.5 -157 c 128,-1,2
 607 -136 607 -136 613 -99 c 2,3,-1
 629 0 l 1,4,-1
 587 0 l 2,5,6
 548 0 548 0 532 24.5 c 128,-1,7
 516 49 516 49 523 92 c 2,8,-1
 600 577 l 1,9,-1
 279 577 l 1,10,-1
 198 65 l 2,11,12
 193 29 193 29 171 10 c 128,-1,13
 149 -9 149 -9 111 -9 c 256,14,15
 73 -9 73 -9 55.5 13.5 c 128,-1,16
 38 36 38 36 44 77 c 2,17,-1
 132 630 l 2,18,19
 138 667 138 667 160 686 c 128,-1,20
 182 705 182 705 219 705 c 2,21,-1
 686 705 l 2,22,23
 728 705 728 705 747.5 682 c 128,-1,24
 767 659 767 659 761 618 c 2,25,-1
 677 88 l 1,26,-1
 646 123 l 1,27,-1
 703 123 l 2,28,29
 739 123 739 123 757.5 103 c 128,-1,30
 776 83 776 83 770 43 c 2,31,-1
 746 -111 l 2,32,33
 741 -145 741 -145 722 -161.5 c 128,-1,34
 703 -178 703 -178 671 -178 c 0,0,1
EndSplineSet
EndChar

StartChar: uni04A8
Encoding: 1192 1192 597
Width: 849
GlyphClass: 1
Flags: W
LayerCount: 2
Fore
SplineSet
374 -11 m 0,0,1
 282 -11 282 -11 212.5 23.5 c 128,-1,2
 143 58 143 58 104 126.5 c 128,-1,3
 65 195 65 195 65 295 c 0,4,5
 65 387 65 387 91.5 464 c 128,-1,6
 118 541 118 541 168 597 c 128,-1,7
 218 653 218 653 289 684 c 128,-1,8
 360 715 360 715 449 716 c 0,9,10
 455 716 455 716 460.5 715.5 c 128,-1,11
 466 715 466 715 472 714 c 0,12,13
 509 712 509 712 522.5 693 c 128,-1,14
 536 674 536 674 534 647 c 0,15,16
 533 629 533 629 524 616 c 128,-1,17
 515 603 515 603 501.5 596.5 c 128,-1,18
 488 590 488 590 473 590 c 0,19,20
 462 590 462 590 449.5 590 c 128,-1,21
 437 590 437 590 424 587 c 0,22,23
 363 580 363 580 318.5 541.5 c 128,-1,24
 274 503 274 503 250 441.5 c 128,-1,25
 226 380 226 380 226 301 c 0,26,27
 226 232 226 232 245.5 189 c 128,-1,28
 265 146 265 146 303 126 c 128,-1,29
 341 106 341 106 394 106 c 0,30,31
 457 106 457 106 505 121 c 128,-1,32
 553 136 553 136 584.5 166.5 c 128,-1,33
 616 197 616 197 632 242 c 128,-1,34
 648 287 648 287 648 347 c 0,35,36
 648 387 648 387 632 410 c 128,-1,37
 616 433 616 433 586 433 c 0,38,39
 557 433 557 433 536.5 411.5 c 128,-1,40
 516 390 516 390 504.5 351 c 128,-1,41
 493 312 493 312 493 259 c 0,42,43
 493 205 493 205 514.5 171 c 128,-1,44
 536 137 536 137 578 121.5 c 128,-1,45
 620 106 620 106 681 106 c 0,46,47
 702 106 702 106 726 109.5 c 128,-1,48
 750 113 750 113 772 120 c 0,49,50
 797 128 797 128 814 122.5 c 128,-1,51
 831 117 831 117 840 102.5 c 128,-1,52
 849 88 849 88 849 70.5 c 128,-1,53
 849 53 849 53 839 37 c 128,-1,54
 829 21 829 21 807 12 c 0,55,56
 779 1 779 1 741.5 -5 c 128,-1,57
 704 -11 704 -11 666 -11 c 0,58,59
 599 -11 599 -11 542 11 c 128,-1,60
 485 33 485 33 442 71.5 c 128,-1,61
 399 110 399 110 375 161.5 c 128,-1,62
 351 213 351 213 351 272 c 0,63,64
 351 353 351 353 382 416 c 128,-1,65
 413 479 413 479 468 515.5 c 128,-1,66
 523 552 523 552 596 552 c 0,67,68
 653 552 653 552 697 528 c 128,-1,69
 741 504 741 504 765.5 461.5 c 128,-1,70
 790 419 790 419 790 361 c 0,71,72
 790 283 790 283 757.5 215.5 c 128,-1,73
 725 148 725 148 667.5 97 c 128,-1,74
 610 46 610 46 535 17.5 c 128,-1,75
 460 -11 460 -11 374 -11 c 0,0,1
EndSplineSet
EndChar

StartChar: uni04AA
Encoding: 1194 1194 598
Width: 684
GlyphClass: 2
Flags: W
AnchorPoint: "Anchor-2" 373 0 basechar 0
AnchorPoint: "Anchor-0" 445 705 basechar 0
LayerCount: 2
Fore
SplineSet
344 -178 m 0,0,1
 315 -178 315 -178 299.5 -158 c 128,-1,2
 284 -138 284 -138 290 -102 c 2,3,-1
 318 76 l 1,4,-1
 451 76 l 1,5,-1
 420 -114 l 2,6,7
 415 -147 415 -147 395.5 -162.5 c 128,-1,8
 376 -178 376 -178 344 -178 c 0,0,1
399 -11 m 0,9,10
 303 -11 303 -11 228 25.5 c 128,-1,11
 153 62 153 62 110 133.5 c 128,-1,12
 67 205 67 205 67 312 c 0,13,14
 67 397 67 397 93 470.5 c 128,-1,15
 119 544 119 544 168.5 599 c 128,-1,16
 218 654 218 654 290.5 685 c 128,-1,17
 363 716 363 716 456 716 c 0,18,19
 508 716 508 716 559 703 c 128,-1,20
 610 690 610 690 651 664 c 0,21,22
 673 651 673 651 679.5 631 c 128,-1,23
 686 611 686 611 681.5 590.5 c 128,-1,24
 677 570 677 570 664 554 c 128,-1,25
 651 538 651 538 632.5 533 c 128,-1,26
 614 528 614 528 593 539 c 0,27,28
 554 562 554 562 520.5 570.5 c 128,-1,29
 487 579 487 579 452 579 c 0,30,31
 380 579 380 579 331 544.5 c 128,-1,32
 282 510 282 510 257 450.5 c 128,-1,33
 232 391 232 391 232 317 c 0,34,35
 232 251 232 251 252 208.5 c 128,-1,36
 272 166 272 166 313 146 c 128,-1,37
 354 126 354 126 416 126 c 0,38,39
 447 126 447 126 478 133.5 c 128,-1,40
 509 141 509 141 541 158 c 0,41,42
 565 170 565 170 584.5 165.5 c 128,-1,43
 604 161 604 161 616 145.5 c 128,-1,44
 628 130 628 130 631 110 c 128,-1,45
 634 90 634 90 625 71 c 128,-1,46
 616 52 616 52 593 39 c 0,47,48
 551 14 551 14 498 1.5 c 128,-1,49
 445 -11 445 -11 399 -11 c 0,9,10
EndSplineSet
Substitution2: "'locl' Localized Forms in Cyrillic lookup 17 subtable" uni04AA.loclCHU
Substitution2: "'locl' Localized Forms in Cyrillic lookup 16 subtable" uni04AA.loclBSH
AlternateSubs2: "'aalt' Access All Alternates lookup 1 subtable" uni04AA.loclBSH uni04AA.loclCHU
EndChar

StartChar: uni04AC
Encoding: 1196 1196 599
Width: 609
GlyphClass: 1
Flags: W
LayerCount: 2
Fore
SplineSet
349 -178 m 0,0,1
 315 -178 315 -178 299.5 -157 c 128,-1,2
 284 -136 284 -136 290 -99 c 2,3,-1
 306 0 l 1,4,-1
 277 0 l 2,5,6
 236 0 236 0 215.5 23 c 128,-1,7
 195 46 195 46 201 87 c 2,8,-1
 279 577 l 1,9,-1
 119 577 l 2,10,11
 87 577 87 577 69 591 c 128,-1,12
 51 605 51 605 51 629 c 0,13,14
 51 665 51 665 71.5 685 c 128,-1,15
 92 705 92 705 127 705 c 2,16,-1
 616 705 l 2,17,18
 649 705 649 705 666.5 691.5 c 128,-1,19
 684 678 684 678 684 654 c 0,20,21
 684 618 684 618 664 597.5 c 128,-1,22
 644 577 644 577 608 577 c 2,23,-1
 434 577 l 1,24,-1
 357 93 l 1,25,-1
 300 125 l 1,26,-1
 382 125 l 2,27,28
 420 125 420 125 437.5 104 c 128,-1,29
 455 83 455 83 449 45 c 2,30,-1
 425 -111 l 2,31,32
 414 -178 414 -178 349 -178 c 0,0,1
EndSplineSet
EndChar

StartChar: uni04B2
Encoding: 1202 1202 602
Width: 724
GlyphClass: 1
Flags: W
LayerCount: 2
Fore
SplineSet
589 -178 m 0,0,1
 559 -178 559 -178 543.5 -157 c 128,-1,2
 528 -136 528 -136 534 -99 c 2,3,-1
 556 41 l 1,4,-1
 590 0 l 1,5,-1
 541 0 l 2,6,7
 514 0 514 0 496.5 10.5 c 128,-1,8
 479 21 479 21 462 49 c 2,9,-1
 329 279 l 1,10,-1
 369 279 l 1,11,-1
 168 40 l 2,12,13
 145 13 145 13 126.5 2 c 128,-1,14
 108 -9 108 -9 81 -9 c 0,15,16
 51 -9 51 -9 33.5 9 c 128,-1,17
 16 27 16 27 16 52.5 c 128,-1,18
 16 78 16 78 37 103 c 2,19,-1
 293 392 l 1,20,-1
 293 324 l 1,21,-1
 125 605 l 2,22,23
 109 633 109 633 112.5 657.5 c 128,-1,24
 116 682 116 682 135 698 c 128,-1,25
 154 714 154 714 184 714 c 0,26,27
 212 714 212 714 228 701.5 c 128,-1,28
 244 689 244 689 263 655 c 2,29,-1
 388 436 l 1,30,-1
 351 436 l 1,31,-1
 544 665 l 2,32,33
 567 692 567 692 585.5 703 c 128,-1,34
 604 714 604 714 630 714 c 0,35,36
 661 714 661 714 679 696.5 c 128,-1,37
 697 679 697 679 698 654 c 128,-1,38
 699 629 699 629 678 604 c 2,39,-1
 427 322 l 1,40,-1
 427 393 l 1,41,-1
 611 85 l 1,42,-1
 553 123 l 1,43,-1
 624 123 l 2,44,45
 662 123 662 123 680.5 102 c 128,-1,46
 699 81 699 81 693 43 c 2,47,-1
 668 -112 l 2,48,49
 663 -145 663 -145 643.5 -161.5 c 128,-1,50
 624 -178 624 -178 589 -178 c 0,0,1
EndSplineSet
EndChar

StartChar: uni04B4
Encoding: 1204 1204 603
Width: 960
GlyphClass: 1
Flags: W
LayerCount: 2
Fore
SplineSet
806 -178 m 0,0,1
 772 -178 772 -178 757 -157 c 128,-1,2
 742 -136 742 -136 748 -99 c 2,3,-1
 763 0 l 1,4,-1
 257 0 l 2,5,6
 216 0 216 0 195.5 23 c 128,-1,7
 175 46 175 46 181 87 c 2,8,-1
 259 577 l 1,9,-1
 128 577 l 2,10,11
 95 577 95 577 77.5 591 c 128,-1,12
 60 605 60 605 60 629 c 0,13,14
 60 665 60 665 80.5 685 c 128,-1,15
 101 705 101 705 137 705 c 2,16,-1
 540 705 l 2,17,18
 572 705 572 705 590 691.5 c 128,-1,19
 608 678 608 678 608 654 c 0,20,21
 608 618 608 618 587.5 597.5 c 128,-1,22
 567 577 567 577 531 577 c 2,23,-1
 415 577 l 1,24,-1
 344 128 l 1,25,-1
 665 128 l 1,26,-1
 746 640 l 2,27,28
 752 676 752 676 772.5 695 c 128,-1,29
 793 714 793 714 829 714 c 0,30,31
 869 714 869 714 887 691.5 c 128,-1,32
 905 669 905 669 899 628 c 2,33,-1
 814 92 l 1,34,-1
 758 128 l 1,35,-1
 838 128 l 2,36,37
 876 128 876 128 894.5 106.5 c 128,-1,38
 913 85 913 85 907 47 c 2,39,-1
 882 -111 l 2,40,41
 871 -178 871 -178 806 -178 c 0,0,1
EndSplineSet
EndChar

StartChar: uni04B6
Encoding: 1206 1206 604
Width: 758
GlyphClass: 1
Flags: W
LayerCount: 2
Fore
SplineSet
485 262 m 1,0,1
 459 251 459 251 422 244 c 128,-1,2
 385 237 385 237 347 237 c 0,3,4
 259 237 259 237 198 273 c 128,-1,5
 137 309 137 309 110.5 377.5 c 128,-1,6
 84 446 84 446 99 543 c 2,7,-1
 113 636 l 2,8,9
 119 675 119 675 142 694.5 c 128,-1,10
 165 714 165 714 200 714 c 0,11,12
 240 714 240 714 256 689.5 c 128,-1,13
 272 665 272 665 266 623 c 2,14,-1
 254 543 l 2,15,16
 239 451 239 451 269.5 409.5 c 128,-1,17
 300 368 300 368 377 368 c 0,18,19
 408 368 408 368 442.5 374.5 c 128,-1,20
 477 381 477 381 506 394 c 1,21,-1
 545 636 l 2,22,23
 551 675 551 675 573.5 694.5 c 128,-1,24
 596 714 596 714 631 714 c 0,25,26
 672 714 672 714 688 689.5 c 128,-1,27
 704 665 704 665 698 623 c 2,28,-1
 613 88 l 1,29,-1
 582 123 l 1,30,-1
 640 123 l 2,31,32
 675 123 675 123 694 103 c 128,-1,33
 713 83 713 83 706 43 c 2,34,-1
 682 -111 l 2,35,36
 677 -145 677 -145 658 -161.5 c 128,-1,37
 639 -178 639 -178 607 -178 c 0,38,39
 574 -178 574 -178 559 -157 c 128,-1,40
 544 -136 544 -136 550 -99 c 2,41,-1
 565 0 l 1,42,-1
 524 0 l 2,43,44
 484 0 484 0 468 24.5 c 128,-1,45
 452 49 452 49 458 92 c 2,46,-1
 485 262 l 1,0,1
EndSplineSet
EndChar

StartChar: uni04B8
Encoding: 1208 1208 605
Width: 708
GlyphClass: 1
Flags: W
LayerCount: 2
Fore
SplineSet
523 -9 m 0,0,1
 483 -9 483 -9 466 14.5 c 128,-1,2
 449 38 449 38 456 81 c 2,3,-1
 485 262 l 1,4,5
 465 253 465 253 439 247 c 128,-1,6
 413 241 413 241 384 239 c 1,7,-1
 399 250 l 1,8,-1
 382 142 l 2,9,10
 374 95 374 95 327 95 c 0,11,12
 303 95 303 95 291.5 110 c 128,-1,13
 280 125 280 125 284 151 c 2,14,-1
 300 249 l 1,15,-1
 311 239 l 1,16,17
 235 246 235 246 182 284 c 128,-1,18
 129 322 129 322 107 388 c 128,-1,19
 85 454 85 454 99 543 c 2,20,-1
 113 636 l 2,21,22
 119 675 119 675 142 694.5 c 128,-1,23
 165 714 165 714 200 714 c 0,24,25
 240 714 240 714 256 689.5 c 128,-1,26
 272 665 272 665 266 623 c 2,27,-1
 254 543 l 2,28,29
 242 467 242 467 260.5 426 c 128,-1,30
 279 385 279 385 329 374 c 1,31,-1
 319 367 l 1,32,-1
 338 490 l 2,33,34
 346 537 346 537 393 537 c 0,35,36
 417 537 417 537 428.5 522 c 128,-1,37
 440 507 440 507 436 481 c 2,38,-1
 417 362 l 1,39,-1
 404 369 l 1,40,41
 430 371 430 371 456.5 377.5 c 128,-1,42
 483 384 483 384 506 394 c 1,43,-1
 545 636 l 2,44,45
 551 675 551 675 573.5 694.5 c 128,-1,46
 596 714 596 714 631 714 c 0,47,48
 671 714 671 714 687.5 689.5 c 128,-1,49
 704 665 704 665 698 623 c 2,50,-1
 610 69 l 2,51,52
 604 30 604 30 581.5 10.5 c 128,-1,53
 559 -9 559 -9 523 -9 c 0,0,1
EndSplineSet
EndChar

StartChar: uni04BA
Encoding: 1210 1210 606
Width: 708
GlyphClass: 2
Flags: W
LayerCount: 2
Fore
SplineSet
112 -9 m 0,0,1
 72 -9 72 -9 55 15.5 c 128,-1,2
 38 40 38 40 45 83 c 2,3,-1
 133 636 l 2,4,5
 138 675 138 675 161 694.5 c 128,-1,6
 184 714 184 714 220 714 c 0,7,8
 260 714 260 714 276.5 690 c 128,-1,9
 293 666 293 666 286 623 c 2,10,-1
 257 443 l 1,11,12
 284 455 284 455 322.5 461.5 c 128,-1,13
 361 468 361 468 399 468 c 0,14,15
 487 468 487 468 547.5 432 c 128,-1,16
 608 396 608 396 634.5 327.5 c 128,-1,17
 661 259 661 259 646 162 c 2,18,-1
 631 69 l 2,19,20
 625 30 625 30 602 10.5 c 128,-1,21
 579 -9 579 -9 544 -9 c 0,22,23
 505 -9 505 -9 488.5 16 c 128,-1,24
 472 41 472 41 478 83 c 2,25,-1
 491 162 l 2,26,27
 505 255 505 255 474.5 296 c 128,-1,28
 444 337 444 337 367 337 c 0,29,30
 336 337 336 337 301 331.5 c 128,-1,31
 266 326 266 326 237 312 c 1,32,-1
 198 69 l 2,33,34
 192 30 192 30 169.5 10.5 c 128,-1,35
 147 -9 147 -9 112 -9 c 0,0,1
EndSplineSet
EndChar

StartChar: uni0526
Encoding: 1318 1318 607
Width: 758
GlyphClass: 1
Flags: W
LayerCount: 2
Fore
SplineSet
491 162 m 2,0,1
 506 255 506 255 475 296 c 128,-1,2
 444 337 444 337 367 337 c 0,3,4
 336 337 336 337 301 331.5 c 128,-1,5
 266 326 266 326 237 312 c 1,6,-1
 198 69 l 2,7,8
 192 30 192 30 169.5 10.5 c 128,-1,9
 147 -9 147 -9 112 -9 c 0,10,11
 72 -9 72 -9 55 15.5 c 128,-1,12
 38 40 38 40 45 83 c 2,13,-1
 133 636 l 2,14,15
 138 675 138 675 161 694.5 c 128,-1,16
 184 714 184 714 220 714 c 0,17,18
 260 714 260 714 276.5 690 c 128,-1,19
 293 666 293 666 286 623 c 2,20,-1
 257 443 l 1,21,22
 284 455 284 455 322.5 461.5 c 128,-1,23
 361 468 361 468 399 468 c 0,24,25
 487 468 487 468 548 432 c 128,-1,26
 609 396 609 396 635 327.5 c 128,-1,27
 661 259 661 259 646 162 c 2,28,-1
 634 89 l 1,29,-1
 603 123 l 1,30,-1
 660 123 l 2,31,32
 695 123 695 123 714 103 c 128,-1,33
 733 83 733 83 727 43 c 2,34,-1
 703 -111 l 2,35,36
 698 -145 698 -145 679 -161.5 c 128,-1,37
 660 -178 660 -178 627 -178 c 256,38,39
 594 -178 594 -178 579 -157 c 128,-1,40
 564 -136 564 -136 570 -99 c 2,41,-1
 586 0 l 1,42,-1
 544 0 l 2,43,44
 504 0 504 0 488.5 24.5 c 128,-1,45
 473 49 473 49 480 92 c 2,46,-1
 491 162 l 2,0,1
EndSplineSet
EndChar

StartChar: uni04BC
Encoding: 1212 1212 608
Width: 986
GlyphClass: 2
Flags: W
AnchorPoint: "Anchor-3" 654 0 basechar 0
LayerCount: 2
Fore
SplineSet
609 -11 m 0,0,1
 503 -11 503 -11 423 30 c 128,-1,2
 343 71 343 71 300 146 c 128,-1,3
 257 221 257 221 259 324 c 1,4,-1
 285 291 l 1,5,-1
 242 291 l 2,6,7
 173 291 173 291 126.5 315 c 128,-1,8
 80 339 80 339 60 381.5 c 128,-1,9
 40 424 40 424 49 478 c 2,10,-1
 53 502 l 2,11,12
 66 556 66 556 133 556 c 0,13,14
 168 556 168 556 188 540.5 c 128,-1,15
 208 525 208 525 203 493 c 0,16,17
 202 486 202 486 201.5 479.5 c 128,-1,18
 201 473 201 473 201 466 c 0,19,20
 199 439 199 439 212.5 426 c 128,-1,21
 226 413 226 413 257 413 c 2,22,-1
 293 413 l 1,23,-1
 263 384 l 1,24,25
 273 452 273 452 300.5 511.5 c 128,-1,26
 328 571 328 571 374.5 617 c 128,-1,27
 421 663 421 663 486 689.5 c 128,-1,28
 551 716 551 716 635 716 c 0,29,30
 717 716 717 716 776 691 c 128,-1,31
 835 666 835 666 873 625.5 c 128,-1,32
 911 585 911 585 930.5 536 c 128,-1,33
 950 487 950 487 955 438 c 128,-1,34
 960 389 960 389 952 348 c 0,35,36
 947 322 947 322 934.5 310 c 128,-1,37
 922 298 922 298 906.5 294.5 c 128,-1,38
 891 291 891 291 877 291 c 2,39,-1
 390 291 l 1,40,-1
 421 324 l 1,41,42
 417 261 417 261 440.5 215.5 c 128,-1,43
 464 170 464 170 511 145.5 c 128,-1,44
 558 121 558 121 626 121 c 0,45,46
 676 121 676 121 722.5 132 c 128,-1,47
 769 143 769 143 810 163 c 0,48,49
 834 175 834 175 853 169.5 c 128,-1,50
 872 164 872 164 884 148 c 128,-1,51
 896 132 896 132 898 112 c 128,-1,52
 900 92 900 92 891 73 c 128,-1,53
 882 54 882 54 859 44 c 0,54,55
 806 18 806 18 742.5 3.5 c 128,-1,56
 679 -11 679 -11 609 -11 c 0,0,1
634 590 m 0,57,58
 572 590 572 590 529 563 c 128,-1,59
 486 536 486 536 460.5 488.5 c 128,-1,60
 435 441 435 441 426 380 c 1,61,-1
 401 413 l 1,62,-1
 845 413 l 1,63,-1
 802 352 l 1,64,65
 813 426 813 426 796.5 479 c 128,-1,66
 780 532 780 532 739 561 c 128,-1,67
 698 590 698 590 634 590 c 0,57,58
EndSplineSet
EndChar

StartChar: uni04C3
Encoding: 1219 1219 612
Width: 718
GlyphClass: 1
Flags: W
LayerCount: 2
Fore
SplineSet
386 -191 m 0,0,1
 365 -191 365 -191 342 -189 c 128,-1,2
 319 -187 319 -187 301 -183 c 0,3,4
 278 -178 278 -178 266 -164 c 128,-1,5
 254 -150 254 -150 253 -131.5 c 128,-1,6
 252 -113 252 -113 259 -96.5 c 128,-1,7
 266 -80 266 -80 280 -70.5 c 128,-1,8
 294 -61 294 -61 313 -64 c 0,9,10
 326 -68 326 -68 337 -68.5 c 128,-1,11
 348 -69 348 -69 360 -69 c 0,12,13
 408 -69 408 -69 441.5 -36 c 128,-1,14
 475 -3 475 -3 484 58 c 2,15,-1
 494 115 l 2,16,17
 504 180 504 180 488.5 219.5 c 128,-1,18
 473 259 473 259 437 276.5 c 128,-1,19
 401 294 401 294 349 294 c 2,20,-1
 233 294 l 1,21,-1
 197 64 l 2,22,23
 192 27 192 27 170.5 9 c 128,-1,24
 149 -9 149 -9 112 -9 c 0,25,26
 74 -9 74 -9 56 13.5 c 128,-1,27
 38 36 38 36 44 77 c 2,28,-1
 134 641 l 2,29,30
 139 677 139 677 160 695.5 c 128,-1,31
 181 714 181 714 218 714 c 0,32,33
 257 714 257 714 275 691.5 c 128,-1,34
 293 669 293 669 287 628 c 2,35,-1
 254 422 l 1,36,-1
 363 422 l 1,37,-1
 333 397 l 1,38,-1
 552 680 l 2,39,40
 570 704 570 704 592.5 710.5 c 128,-1,41
 615 717 615 717 635 710.5 c 128,-1,42
 655 704 655 704 668 687 c 128,-1,43
 681 670 681 670 680 647.5 c 128,-1,44
 679 625 679 625 659 599 c 2,45,-1
 476 366 l 1,46,-1
 432 416 l 1,47,48
 507 407 507 407 561.5 373 c 128,-1,49
 616 339 616 339 640.5 276.5 c 128,-1,50
 665 214 665 214 649 121 c 2,51,-1
 639 62 l 2,52,53
 626 -20 626 -20 592 -76.5 c 128,-1,54
 558 -133 558 -133 506 -162 c 128,-1,55
 454 -191 454 -191 386 -191 c 0,0,1
EndSplineSet
EndChar

StartChar: uni04C5
Encoding: 1221 1221 613
Width: 799
GlyphClass: 1
Flags: W
LayerCount: 2
Fore
SplineSet
662 -138 m 2,0,1
 650 -161 650 -161 632 -171 c 128,-1,2
 614 -181 614 -181 595.5 -179 c 128,-1,3
 577 -177 577 -177 563 -166 c 128,-1,4
 549 -155 549 -155 545 -135.5 c 128,-1,5
 541 -116 541 -116 554 -92 c 2,6,-1
 619 40 l 1,7,-1
 629 0 l 1,8,-1
 573 0 l 2,9,10
 533 0 533 0 516.5 20 c 128,-1,11
 500 40 500 40 507 83 c 2,12,-1
 585 577 l 1,13,-1
 366 577 l 1,14,-1
 344 436 l 2,15,16
 329 347 329 347 308 278.5 c 128,-1,17
 287 210 287 210 256.5 157.5 c 128,-1,18
 226 105 226 105 186 66.5 c 128,-1,19
 146 28 146 28 94 1 c 0,20,21
 65 -15 65 -15 38.5 -10 c 128,-1,22
 12 -5 12 -5 -4 23 c 0,23,24
 -21 51 -21 51 -12 75.5 c 128,-1,25
 -3 100 -3 100 25 117 c 0,26,27
 60 137 60 137 88 166.5 c 128,-1,28
 116 196 116 196 138 238 c 128,-1,29
 160 280 160 280 177.5 339 c 128,-1,30
 195 398 195 398 207 476 c 2,31,-1
 232 630 l 2,32,33
 238 667 238 667 260 686 c 128,-1,34
 282 705 282 705 319 705 c 2,35,-1
 672 705 l 2,36,37
 714 705 714 705 733.5 682 c 128,-1,38
 753 659 753 659 747 618 c 2,39,-1
 661 79 l 1,40,-1
 642 123 l 1,41,-1
 693 123 l 2,42,43
 736 123 736 123 752 99.5 c 128,-1,44
 768 76 768 76 749 35 c 2,45,-1
 662 -138 l 2,0,1
EndSplineSet
EndChar

StartChar: uni04C7
Encoding: 1223 1223 614
Width: 780
GlyphClass: 1
Flags: W
LayerCount: 2
Fore
SplineSet
436 -191 m 0,0,1
 406 -191 406 -191 392 -175.5 c 128,-1,2
 378 -160 378 -160 377.5 -138.5 c 128,-1,3
 377 -117 377 -117 390 -99.5 c 128,-1,4
 403 -82 403 -82 430 -80 c 0,5,6
 466 -78 466 -78 487 -59.5 c 128,-1,7
 508 -41 508 -41 514 -2 c 2,8,-1
 561 293 l 1,9,-1
 233 293 l 1,10,-1
 198 70 l 2,11,12
 192 31 192 31 170.5 11 c 128,-1,13
 149 -9 149 -9 111 -9 c 0,14,15
 71 -9 71 -9 54.5 15.5 c 128,-1,16
 38 40 38 40 45 83 c 2,17,-1
 133 636 l 2,18,19
 138 675 138 675 160 694.5 c 128,-1,20
 182 714 182 714 221 714 c 256,21,22
 260 714 260 714 276.5 689.5 c 128,-1,23
 293 665 293 665 286 622 c 2,24,-1
 254 422 l 1,25,-1
 581 422 l 1,26,-1
 615 636 l 2,27,28
 621 675 621 675 642.5 694.5 c 128,-1,29
 664 714 664 714 703 714 c 256,30,31
 742 714 742 714 758.5 690 c 128,-1,32
 775 666 775 666 768 622 c 2,33,-1
 672 17 l 2,34,35
 661 -53 661 -53 634 -98 c 128,-1,36
 607 -143 607 -143 559.5 -165.5 c 128,-1,37
 512 -188 512 -188 436 -191 c 0,0,1
EndSplineSet
EndChar

StartChar: uni04C9
Encoding: 1225 1225 615
Width: 820
GlyphClass: 1
Flags: W
LayerCount: 2
Fore
SplineSet
683 -138 m 2,0,1
 671 -161 671 -161 653 -171 c 128,-1,2
 635 -181 635 -181 616 -179 c 128,-1,3
 597 -177 597 -177 583.5 -166 c 128,-1,4
 570 -155 570 -155 566 -135.5 c 128,-1,5
 562 -116 562 -116 574 -92 c 2,6,-1
 640 40 l 1,7,-1
 649 0 l 1,8,-1
 594 0 l 2,9,10
 553 0 553 0 537 20 c 128,-1,11
 521 40 521 40 528 83 c 2,12,-1
 561 293 l 1,13,-1
 233 293 l 1,14,-1
 198 70 l 2,15,16
 192 31 192 31 170.5 11 c 128,-1,17
 149 -9 149 -9 111 -9 c 0,18,19
 71 -9 71 -9 54.5 15.5 c 128,-1,20
 38 40 38 40 45 83 c 2,21,-1
 133 636 l 2,22,23
 138 675 138 675 160 694.5 c 128,-1,24
 182 714 182 714 221 714 c 256,25,26
 260 714 260 714 276.5 689.5 c 128,-1,27
 293 665 293 665 286 622 c 2,28,-1
 254 422 l 1,29,-1
 581 422 l 1,30,-1
 616 636 l 2,31,32
 622 675 622 675 643 694.5 c 128,-1,33
 664 714 664 714 703 714 c 256,34,35
 742 714 742 714 759 690 c 128,-1,36
 776 666 776 666 768 622 c 2,37,-1
 682 79 l 1,38,-1
 663 123 l 1,39,-1
 714 123 l 2,40,41
 757 123 757 123 773 99.5 c 128,-1,42
 789 76 789 76 769 35 c 2,43,-1
 683 -138 l 2,0,1
EndSplineSet
EndChar

StartChar: uni04CB
Encoding: 1227 1227 616
Width: 747
GlyphClass: 1
Flags: W
LayerCount: 2
Fore
SplineSet
383 -178 m 0,0,1
 350 -178 350 -178 336.5 -158 c 128,-1,2
 323 -138 323 -138 328 -102 c 2,3,-1
 352 51 l 2,4,5
 358 86 358 86 379 104.5 c 128,-1,6
 400 123 400 123 433 123 c 2,7,-1
 521 123 l 1,8,-1
 454 65 l 1,9,-1
 485 262 l 1,10,11
 459 251 459 251 422 244 c 128,-1,12
 385 237 385 237 347 237 c 0,13,14
 259 237 259 237 198 273 c 128,-1,15
 137 309 137 309 110.5 377.5 c 128,-1,16
 84 446 84 446 99 543 c 2,17,-1
 113 636 l 2,18,19
 119 675 119 675 142 694.5 c 128,-1,20
 165 714 165 714 200 714 c 0,21,22
 240 714 240 714 256 689.5 c 128,-1,23
 272 665 272 665 266 623 c 2,24,-1
 254 543 l 2,25,26
 239 451 239 451 269.5 409.5 c 128,-1,27
 300 368 300 368 377 368 c 0,28,29
 408 368 408 368 442.5 374.5 c 128,-1,30
 477 381 477 381 506 394 c 1,31,-1
 545 636 l 2,32,33
 551 675 551 675 573.5 694.5 c 128,-1,34
 596 714 596 714 631 714 c 0,35,36
 672 714 672 714 688 689.5 c 128,-1,37
 704 665 704 665 698 623 c 2,38,-1
 611 76 l 2,39,40
 605 38 605 38 582.5 19 c 128,-1,41
 560 0 560 0 523 0 c 2,42,-1
 480 0 l 1,43,-1
 463 -107 l 2,44,45
 458 -142 458 -142 437.5 -160 c 128,-1,46
 417 -178 417 -178 383 -178 c 0,0,1
EndSplineSet
EndChar

StartChar: uni04CD
Encoding: 1229 1229 617
Width: 917
GlyphClass: 1
Flags: W
LayerCount: 2
Fore
SplineSet
777 -138 m 2,0,1
 765 -161 765 -161 747 -171 c 128,-1,2
 729 -181 729 -181 710 -179 c 128,-1,3
 691 -177 691 -177 677.5 -166 c 128,-1,4
 664 -155 664 -155 660 -135.5 c 128,-1,5
 656 -116 656 -116 668 -92 c 2,6,-1
 734 40 l 1,7,-1
 744 0 l 1,8,-1
 702 0 l 2,9,10
 662 0 662 0 645.5 20 c 128,-1,11
 629 40 629 40 636 83 c 2,12,-1
 698 473 l 1,13,-1
 721 473 l 1,14,-1
 480 131 l 2,15,16
 467 113 467 113 453.5 105 c 128,-1,17
 440 97 440 97 419 97 c 0,18,19
 397 97 397 97 383.5 107.5 c 128,-1,20
 370 118 370 118 360 140 c 2,21,-1
 227 468 l 1,22,-1
 249 468 l 1,23,-1
 184 59 l 2,24,25
 179 27 179 27 160 10 c 128,-1,26
 141 -7 141 -7 108 -7 c 0,27,28
 70 -7 70 -7 55 13.5 c 128,-1,29
 40 34 40 34 45 70 c 2,30,-1
 137 648 l 2,31,32
 142 681 142 681 161.5 697.5 c 128,-1,33
 181 714 181 714 213 714 c 0,34,35
 242 714 242 714 258.5 701.5 c 128,-1,36
 275 689 275 689 287 658 c 2,37,-1
 447 241 l 1,38,-1
 417 241 l 1,39,-1
 718 669 l 2,40,41
 735 693 735 693 754 703.5 c 128,-1,42
 773 714 773 714 802 714 c 0,43,44
 838 714 838 714 854.5 693.5 c 128,-1,45
 871 673 871 673 865 637 c 2,46,-1
 776 79 l 1,47,-1
 757 123 l 1,48,-1
 808 123 l 2,49,50
 851 123 851 123 867 99.5 c 128,-1,51
 883 76 883 76 863 35 c 2,52,-1
 777 -138 l 2,0,1
EndSplineSet
EndChar

StartChar: uni04E0
Encoding: 1248 1248 626
Width: 632
GlyphClass: 1
Flags: W
LayerCount: 2
Fore
SplineSet
294 -11 m 0,0,1
 231 -11 231 -11 168.5 4 c 128,-1,2
 106 19 106 19 54 51 c 0,3,4
 35 62 35 62 27.5 81 c 128,-1,5
 20 100 20 100 22.5 119.5 c 128,-1,6
 25 139 25 139 37 153 c 128,-1,7
 49 167 49 167 68 171 c 128,-1,8
 87 175 87 175 112 161 c 0,9,10
 152 137 152 137 200 127.5 c 128,-1,11
 248 118 248 118 290 118 c 0,12,13
 325 118 325 118 357 128 c 128,-1,14
 389 138 389 138 409.5 160.5 c 128,-1,15
 430 183 430 183 430 221 c 0,16,17
 430 252 430 252 414.5 268 c 128,-1,18
 399 284 399 284 375.5 290.5 c 128,-1,19
 352 297 352 297 325 297 c 2,20,-1
 232 297 l 2,21,22
 208 297 208 297 194 308 c 128,-1,23
 180 319 180 319 175.5 335 c 128,-1,24
 171 351 171 351 176.5 367.5 c 128,-1,25
 182 384 182 384 195 396 c 2,26,-1
 452 612 l 1,27,-1
 455 578 l 1,28,-1
 155 578 l 2,29,30
 118 578 118 578 101.5 592.5 c 128,-1,31
 85 607 85 607 85 633 c 0,32,33
 85 668 85 668 107.5 686.5 c 128,-1,34
 130 705 130 705 163 705 c 2,35,-1
 563 705 l 2,36,37
 589 705 589 705 604 693 c 128,-1,38
 619 681 619 681 622 661.5 c 128,-1,39
 625 642 625 642 615 619.5 c 128,-1,40
 605 597 605 597 581 577 c 2,41,-1
 345 378 l 1,42,-1
 313 415 l 1,43,-1
 370 415 l 2,44,45
 439 415 439 415 485.5 391 c 128,-1,46
 532 367 532 367 556 325 c 128,-1,47
 580 283 580 283 580 228 c 0,48,49
 580 158 580 158 545 104.5 c 128,-1,50
 510 51 510 51 446 20 c 128,-1,51
 382 -11 382 -11 294 -11 c 0,0,1
EndSplineSet
EndChar

StartChar: uni04E8
Encoding: 1256 1256 630
Width: 797
GlyphClass: 2
Flags: W
AnchorPoint: "Anchor-5" 415 353 basechar 0
AnchorPoint: "Anchor-3" 436 0 basechar 0
AnchorPoint: "Anchor-2" 367 0 basechar 0
AnchorPoint: "Anchor-1" 516 705 basechar 0
AnchorPoint: "Anchor-0" 457 705 basechar 0
LayerCount: 2
Fore
SplineSet
148 301 m 1,0,-1
 167 415 l 1,1,-1
 683 415 l 1,2,-1
 665 301 l 1,3,-1
 148 301 l 1,0,-1
388 -11 m 0,4,5
 291 -11 291 -11 218.5 26 c 128,-1,6
 146 63 146 63 106 133 c 128,-1,7
 66 203 66 203 66 302 c 0,8,9
 66 392 66 392 92.5 468 c 128,-1,10
 119 544 119 544 168.5 599.5 c 128,-1,11
 218 655 218 655 287 685.5 c 128,-1,12
 356 716 356 716 442 716 c 0,13,14
 540 716 540 716 612.5 679 c 128,-1,15
 685 642 685 642 724.5 572 c 128,-1,16
 764 502 764 502 764 404 c 0,17,18
 764 313 764 313 738 237 c 128,-1,19
 712 161 712 161 662.5 105.5 c 128,-1,20
 613 50 613 50 544 19.5 c 128,-1,21
 475 -11 475 -11 388 -11 c 0,4,5
391 121 m 0,22,23
 458 121 458 121 505.5 157 c 128,-1,24
 553 193 553 193 578 256.5 c 128,-1,25
 603 320 603 320 603 401 c 0,26,27
 603 494 603 494 559 539 c 128,-1,28
 515 584 515 584 439 584 c 0,29,30
 372 584 372 584 325 548.5 c 128,-1,31
 278 513 278 513 253 450 c 128,-1,32
 228 387 228 387 228 304 c 0,33,34
 228 212 228 212 271.5 166.5 c 128,-1,35
 315 121 315 121 391 121 c 0,22,23
EndSplineSet
EndChar

StartChar: uni04FA
Encoding: 1274 1274 638
Width: 614
GlyphClass: 1
Flags: W
LayerCount: 2
Fore
SplineSet
80 -183 m 2,0,1
 56 -184 56 -184 39.5 -172.5 c 128,-1,2
 23 -161 23 -161 21 -136 c 256,3,4
 19 -111 19 -111 33.5 -96.5 c 128,-1,5
 48 -82 48 -82 72 -81 c 2,6,-1
 84 -80 l 2,7,8
 132 -76 132 -76 159.5 -55.5 c 128,-1,9
 187 -35 187 -35 192 0 c 1,10,-1
 151 0 l 2,11,12
 117 0 117 0 100.5 19.5 c 128,-1,13
 84 39 84 39 89 73 c 2,14,-1
 123 289 l 1,15,-1
 92 289 l 2,16,17
 64 289 64 289 48 301.5 c 128,-1,18
 32 314 32 314 32 335 c 0,19,20
 32 366 32 366 49.5 383 c 128,-1,21
 67 400 67 400 99 400 c 2,22,-1
 141 400 l 1,23,-1
 177 630 l 2,24,25
 183 667 183 667 205 686 c 128,-1,26
 227 705 227 705 265 705 c 2,27,-1
 604 705 l 2,28,29
 636 705 636 705 654 691.5 c 128,-1,30
 672 678 672 678 672 654 c 0,31,32
 672 618 672 618 651.5 597.5 c 128,-1,33
 631 577 631 577 595 577 c 2,34,-1
 324 577 l 1,35,-1
 296 400 l 1,36,-1
 412 400 l 2,37,38
 441 400 441 400 457 388 c 128,-1,39
 473 376 473 376 473 354 c 0,40,41
 473 325 473 325 454.5 307 c 128,-1,42
 436 289 436 289 405 289 c 2,43,-1
 279 289 l 1,44,-1
 247 88 l 1,45,-1
 218 123 l 1,46,-1
 279 123 l 2,47,48
 314 123 314 123 331 103.5 c 128,-1,49
 348 84 348 84 342 50 c 2,50,-1
 339 29 l 2,51,52
 329 -39 329 -39 302.5 -83.5 c 128,-1,53
 276 -128 276 -128 229.5 -152 c 128,-1,54
 183 -176 183 -176 111 -181 c 2,55,-1
 80 -183 l 2,0,1
EndSplineSet
EndChar

StartChar: uni04FC
Encoding: 1276 1276 639
Width: 685
GlyphClass: 1
Flags: W
LayerCount: 2
Fore
SplineSet
428 -181 m 0,0,1
 398 -187 398 -187 376.5 -173.5 c 128,-1,2
 355 -160 355 -160 348 -130 c 0,3,4
 341 -99 341 -99 354.5 -82 c 128,-1,5
 368 -65 368 -65 392 -58 c 0,6,7
 426 -48 426 -48 442.5 -29.5 c 128,-1,8
 459 -11 459 -11 459 21 c 0,9,10
 459 36 459 36 452.5 55.5 c 128,-1,11
 446 75 446 75 431 102 c 2,12,-1
 329 279 l 1,13,-1
 369 279 l 1,14,-1
 168 40 l 2,15,16
 145 13 145 13 126.5 2 c 128,-1,17
 108 -9 108 -9 82 -9 c 0,18,19
 51 -9 51 -9 33.5 9 c 128,-1,20
 16 27 16 27 15.5 52.5 c 128,-1,21
 15 78 15 78 36 103 c 2,22,-1
 293 392 l 1,23,-1
 293 324 l 1,24,-1
 125 605 l 2,25,26
 109 633 109 633 112.5 657.5 c 128,-1,27
 116 682 116 682 135 698 c 128,-1,28
 154 714 154 714 184 714 c 0,29,30
 212 714 212 714 228 701.5 c 128,-1,31
 244 689 244 689 263 655 c 2,32,-1
 388 436 l 1,33,-1
 351 436 l 1,34,-1
 544 665 l 2,35,36
 567 692 567 692 585.5 703 c 128,-1,37
 604 714 604 714 630 714 c 0,38,39
 661 714 661 714 679.5 697 c 128,-1,40
 698 680 698 680 699 655 c 128,-1,41
 700 630 700 630 679 606 c 2,42,-1
 427 322 l 1,43,-1
 427 393 l 1,44,-1
 564 163 l 2,45,46
 590 120 590 120 600 83.5 c 128,-1,47
 610 47 610 47 610 17 c 0,48,49
 610 -67 610 -67 565 -115 c 128,-1,50
 520 -163 520 -163 428 -181 c 0,0,1
EndSplineSet
EndChar

